<svg width="590" height="336" viewBox="0 0 590 336" fill="none" xmlns="http://www.w3.org/2000/svg">
<g clip-path="url(#clip0_1376_10192)">
<rect x="44.847" y="16.6692" width="480.5" height="318.548" fill="#F4F1EF" stroke="black" stroke-width="1.33844"/>
<circle cx="64.5" cy="280.5" r="33" stroke="black" stroke-dasharray="8 8"/>
<circle cx="168" cy="305" r="9" fill="#AAE2BF"/>
<circle cx="132" cy="25" r="26.5" stroke="black" stroke-dasharray="3 3"/>
<rect x="264.277" y="25.7071" width="23.4322" height="23.4322" transform="rotate(45 264.277 25.7071)" stroke="black"/>
<circle cx="434.5" cy="22.5" r="32.5" fill="#AAE2BF"/>
<path d="M451.369 321.336L450.351 325.136L449.868 325.006L449.583 326.069L448.805 325.291L448.451 325.645L445.67 322.863L446.023 322.51L443.242 319.728L442.888 320.082L440.107 317.3L440.46 316.947L437.679 314.165L437.325 314.519L434.544 311.737L434.897 311.384L432.116 308.602L431.762 308.956L428.981 306.174L429.334 305.821L426.553 303.039L426.199 303.393L423.418 300.611L423.771 300.258L420.99 297.476L420.636 297.83L417.855 295.048L418.208 294.695L415.427 291.913L415.073 292.267L412.292 289.485L412.645 289.132L409.864 286.35L409.51 286.704L406.729 283.922L407.082 283.569L404.301 280.787L403.947 281.141L401.166 278.359L401.519 278.006L400.741 277.227L401.804 276.943L401.675 276.46L405.474 275.442L405.604 275.924L409.403 274.906L409.274 274.423L413.074 273.405L413.203 273.888L417.003 272.87L416.873 272.387L420.673 271.369L420.802 271.852L424.602 270.834L424.472 270.351L428.272 269.333L428.401 269.816L432.201 268.798L432.071 268.315L435.871 267.297L436 267.78L439.8 266.762L439.671 266.279L443.47 265.261L443.6 265.744L447.399 264.725L447.27 264.243L451.069 263.224L451.199 263.707L454.998 262.689L454.869 262.206L458.669 261.188L458.798 261.671L462.597 260.653L462.468 260.17L466.268 259.152L466.397 259.635L467.46 259.35L467.175 260.413L467.658 260.543L466.64 264.342L466.157 264.213L465.139 268.013L465.622 268.142L464.604 271.942L464.121 271.812L463.103 275.612L463.586 275.741L462.568 279.541L462.085 279.411L461.067 283.211L461.55 283.34L460.532 287.14L460.049 287.01L459.031 290.81L459.514 290.939L458.496 294.739L458.013 294.61L456.995 298.409L457.477 298.539L456.459 302.338L455.976 302.209L454.958 306.008L455.441 306.138L454.423 309.937L453.94 309.808L452.922 313.607L453.405 313.737L452.387 317.536L451.904 317.407L450.886 321.207L451.369 321.336Z" stroke="black" stroke-dasharray="4 4"/>
<path d="M347.071 306.117L335.04 351.016L302.172 318.147L347.071 306.117Z" stroke="black"/>
</g>
<rect x="44.6777" y="16.5" width="480.838" height="318.887" stroke="black"/>
<line x1="446.669" y1="16" x2="446.669" y2="336" stroke="black" stroke-width="1.33844"/>
<line x1="366.072" y1="17.3384" x2="366.072" y2="335.887" stroke="black" stroke-width="1.33844"/>
<line x1="205.458" y1="17.3384" x2="205.458" y2="335.887" stroke="black" stroke-width="1.33844"/>
<line x1="285.765" y1="17.3384" x2="285.765" y2="335.887" stroke="black" stroke-width="1.33844"/>
<line x1="125.154" y1="17.3384" x2="125.154" y2="335.887" stroke="black" stroke-width="1.33844"/>
<line x1="44.1758" y1="254.911" x2="524.675" y2="254.911" stroke="black" stroke-width="1.33844"/>
<line x1="44.1758" y1="174.605" x2="524.675" y2="174.605" stroke="black" stroke-width="1.33844"/>
<line x1="44.1758" y1="94.2987" x2="524.675" y2="94.2987" stroke="black" stroke-width="1.33844"/>
<path d="M586.463 100.881L573.875 24.8625L471.183 41.8668L483.771 117.886L586.463 100.881Z" fill="white" stroke="black"/>
<path d="M548.908 81.3389L560.453 69.7999L546.084 60.8405L557.631 49.316L543.373 41.1668" stroke="black"/>
<path d="M548.403 77.17L559.947 65.6288L545.578 56.6717L557.125 45.145L542.867 36.998" stroke="black"/>
<path d="M491.048 106.136L496.834 100.353L489.632 95.8619L495.42 90.0856L488.273 86.0011" stroke="black"/>
<path d="M505.329 206.618C522.335 189.317 514.176 145.131 514.176 145.131L543.132 142.576C543.132 142.576 550.547 173.38 547.57 192.88C544.475 213.16 533.704 227.337 518.215 240.789C506.302 251.135 491.554 254.021 475.778 253.732C459.635 253.437 448.407 249.488 437.295 239.459C415.562 219.841 404.548 172.482 404.548 172.482L430.303 160.198C430.303 160.198 444.4 223.482 473.88 221.96C487.527 221.255 495.75 216.363 505.329 206.618Z" fill="black" stroke="black"/>
<path d="M554.091 95.0704C555.466 97.6278 537.739 132.058 537.739 132.058L539.601 144.162L530.244 144.799L518.668 145.601L519.199 134.331L512.188 112.035C512.188 112.035 516.94 111.739 519.165 113.839C521.391 115.938 530.523 73.6844 533.206 76.6355C535.89 79.5865 527.62 107.099 529.388 108.345C531.156 109.592 543.75 81.9548 545.124 84.5113C546.497 87.0678 534.755 114.248 534.755 114.248C534.755 114.248 547.743 85.2999 549.511 86.5472C551.279 87.7946 539.601 117.137 539.601 117.137C539.601 117.137 552.717 92.513 554.091 95.0704Z" fill="#F4F1EF" stroke="black" stroke-width="1.41243"/>
<rect x="73.6836" y="69.8342" width="8.24428" height="46.3741" transform="rotate(-30 73.6836 69.8342)" fill="black"/>
<circle cx="68.305" cy="53.305" r="27.3092" transform="rotate(-30 68.305 53.305)" fill="black"/>
<circle cx="68.3044" cy="53.305" r="20.0954" transform="rotate(-30 68.3044 53.305)" fill="white"/>
<path fill-rule="evenodd" clip-rule="evenodd" d="M49.6519 62.9631C49.6517 62.9631 49.6517 62.963 49.6517 62.963L49.6517 62.9621L49.6516 62.9593L49.6513 62.9496L49.6506 62.9144C49.6501 62.8839 49.6496 62.8396 49.6494 62.7822C49.649 62.6674 49.6501 62.4999 49.6557 62.2855C49.6669 61.8567 49.6962 61.2396 49.7685 60.4791C49.9131 58.9591 50.23 56.861 50.9204 54.5461C52.3002 49.9195 55.1851 44.3868 61.2054 40.911C67.2277 37.434 73.3556 37.7655 77.9478 38.9492C80.2447 39.5413 82.1667 40.3485 83.5152 41.0078C84.1898 41.3377 84.7221 41.6312 85.0873 41.8432C85.2699 41.9492 85.4108 42.0349 85.507 42.0947C85.5551 42.1246 85.592 42.148 85.6173 42.1642L85.6466 42.1831L85.6514 42.1863C85.7866 42.2725 85.878 42.4222 85.8827 42.5945L85.3829 42.6081C85.8827 42.5945 85.8827 42.5948 85.8827 42.5951L85.8827 42.596L85.8828 42.5987L85.883 42.6079L85.8835 42.641C85.8839 42.6695 85.8842 42.7108 85.8842 42.7643C85.884 42.8713 85.8822 43.0271 85.8757 43.2266C85.8625 43.6255 85.8305 44.1996 85.7547 44.9083C85.6034 46.325 85.2772 48.2845 84.5771 50.4605C83.1768 54.8129 80.2718 60.0548 74.2616 63.5248C68.2531 66.9938 62.155 66.9518 57.5814 66.0535C55.2941 65.6042 53.3807 64.9397 52.0381 64.387C51.3664 64.1105 50.8364 63.8615 50.4728 63.6808C50.2909 63.5904 50.1505 63.517 50.0547 63.4657C50.0067 63.44 49.9699 63.4199 49.9447 63.4059L49.9154 63.3895L49.9073 63.385L49.905 63.3836L49.9042 63.3832C49.9039 63.383 49.9037 63.3829 50.1518 62.9488L49.9037 63.3829C49.7468 63.2932 49.6569 63.1314 49.6519 62.9631ZM84.8833 42.8851C84.804 42.8368 84.7043 42.7771 84.5852 42.708C84.2382 42.5066 83.7269 42.2245 83.0759 41.9062C81.7729 41.2691 79.9151 40.489 77.6982 39.9176C73.2627 38.7743 67.4269 38.4737 61.7054 41.777C55.982 45.0815 53.215 50.3512 51.8787 54.8319C51.211 57.0706 50.904 59.1024 50.764 60.5738C50.6941 61.3091 50.666 61.9031 50.6553 62.3115C50.6519 62.4441 50.6503 62.5571 50.6497 62.649C50.7235 62.6874 50.8131 62.7332 50.9178 62.7853C51.2626 62.9567 51.771 63.1956 52.4187 63.4623C53.7148 63.9958 55.5645 64.6383 57.7741 65.0723C62.1946 65.9405 68.0264 65.97 73.7616 62.6588C79.4951 59.3485 82.2757 54.3486 83.6252 50.1542C84.2999 48.0569 84.6146 46.1667 84.7604 44.8021C84.8332 44.1202 84.8638 43.5707 84.8762 43.1937C84.8802 43.0725 84.8823 42.9692 84.8833 42.8851Z" fill="black"/>
<path d="M78.5 51.4999C78.5 55.8917 74.7217 59.4999 70 59.4999C65.2783 59.4999 61.5 55.8917 61.5 51.4999C61.5 47.1082 65.2783 43.4999 70 43.4999C74.7217 43.4999 78.5 47.1082 78.5 51.4999Z" fill="#AAE2BF" stroke="black"/>
<path d="M86.4841 203.754C110.209 208.819 158.951 162.386 158.951 162.386L176.646 185.449C176.646 185.449 138.796 224.073 120.744 232.025C101.97 240.296 83.1923 237.876 63.5292 232.025C48.4059 227.525 38.4392 217.977 30.2166 204.51C21.8024 190.729 21.0212 180.068 22.2633 163.969C24.5156 134.779 61.206 100.394 61.206 100.394L85.392 115.535C85.392 115.535 39.5577 161.391 56.6615 185.449C64.5795 196.587 73.1201 200.9 86.4841 203.754Z" fill="black" stroke="black"/>
<path fill-rule="evenodd" clip-rule="evenodd" d="M78.8162 81.873C79.9986 80.5995 85.5433 74.5156 84.6795 73.3323C83.7134 72.0091 78.2802 73.0495 73.61 77.7588L74.0218 78.1179C73.5829 78.0832 73.1911 78.2017 72.8908 78.5334C71.6377 79.9174 70.0353 91.8232 70.0353 91.8232L60.5078 105.683L76.3197 115.075L75.2153 119.229C75.2153 119.229 96.8898 106.055 96.0988 103.809C95.3972 101.816 81.8653 85.5284 78.8162 81.873Z" fill="#F4F1EF"/>
<path d="M84.6795 73.3323L85.0833 73.0375V73.0375L84.6795 73.3323ZM78.8162 81.873L78.4498 81.5328L78.1504 81.8553L78.4323 82.1932L78.8162 81.873ZM73.61 77.7588L73.2549 77.4068L72.8795 77.7854L73.2814 78.1357L73.61 77.7588ZM74.0218 78.1179L73.9825 78.6163L75.491 78.7353L74.3504 77.741L74.0218 78.1179ZM72.8908 78.5334L72.5201 78.1978V78.1978L72.8908 78.5334ZM70.0353 91.8232L70.4473 92.1064L70.5149 92.0081L70.5308 91.8899L70.0353 91.8232ZM60.5078 105.683L60.0958 105.4L59.7931 105.84L60.2525 106.113L60.5078 105.683ZM76.3197 115.075L76.8029 115.204L76.9 114.839L76.575 114.646L76.3197 115.075ZM75.2153 119.229L74.7321 119.1L74.4126 120.302L75.475 119.656L75.2153 119.229ZM96.0988 103.809L95.6272 103.975V103.975L96.0988 103.809ZM84.2756 73.6271C84.2468 73.5876 84.3012 73.6192 84.2393 73.8644C84.1833 74.0861 84.0561 74.3826 83.8561 74.7457C83.4587 75.467 82.8292 76.3533 82.1209 77.2613C80.7085 79.0719 79.0386 80.8986 78.4498 81.5328L79.1826 82.2132C79.7762 81.5738 81.4698 79.7218 82.9094 77.8763C83.6271 76.9563 84.2957 76.0201 84.732 75.2282C84.9488 74.8345 85.1223 74.4517 85.2088 74.1092C85.2894 73.7902 85.3281 73.3728 85.0833 73.0375L84.2756 73.6271ZM73.965 78.1109C76.2469 75.8099 78.7057 74.4157 80.691 73.758C81.686 73.4284 82.5433 73.2899 83.1887 73.3034C83.8681 73.3175 84.1782 73.4937 84.2756 73.6271L85.0833 73.0375C84.6977 72.5093 83.9664 72.3194 83.2095 72.3036C82.4184 72.2871 81.4445 72.455 80.3766 72.8087C78.2363 73.5178 75.6433 74.9984 73.2549 77.4068L73.965 78.1109ZM74.3504 77.741L73.9385 77.3819L73.2814 78.1357L73.6932 78.4948L74.3504 77.741ZM74.0611 77.6194C73.4992 77.5751 72.944 77.7296 72.5201 78.1978L73.2614 78.8689C73.4382 78.6737 73.6665 78.5914 73.9825 78.6163L74.0611 77.6194ZM72.5201 78.1978C72.2901 78.4519 72.101 78.876 71.9375 79.3334C71.7659 79.8135 71.5959 80.41 71.4308 81.0729C71.1002 82.4003 70.7801 84.0313 70.5008 85.6101C70.2211 87.1907 69.9809 88.727 69.8107 89.8675C69.7256 90.4379 69.6579 90.9097 69.6115 91.2391C69.5882 91.4038 69.5703 91.5329 69.5582 91.621C69.5522 91.665 69.5476 91.6988 69.5445 91.7216C69.5429 91.733 69.5417 91.7416 69.5409 91.7475C69.5406 91.7504 69.5403 91.7526 69.54 91.7541C69.5399 91.7549 69.5399 91.7554 69.5398 91.7558C69.5398 91.756 69.5398 91.7562 69.5398 91.7563C69.5397 91.7564 69.5397 91.7565 70.0353 91.8232C70.5308 91.8899 70.5308 91.8898 70.5308 91.8898C70.5308 91.8897 70.5308 91.8896 70.5309 91.8894C70.5309 91.8891 70.531 91.8886 70.5311 91.8879C70.5313 91.8865 70.5315 91.8844 70.5319 91.8816C70.5327 91.876 70.5338 91.8675 70.5353 91.8564C70.5384 91.834 70.5429 91.8008 70.5489 91.7573C70.5609 91.6702 70.5786 91.5422 70.6017 91.3787C70.6478 91.0516 70.7151 90.5824 70.7998 90.0151C70.9692 88.88 71.2079 87.3532 71.4855 85.7844C71.7634 84.2138 72.0788 82.6089 72.4012 81.3146C72.5625 80.6667 72.7233 80.106 72.8791 79.6701C73.0431 79.2115 73.1783 78.9608 73.2614 78.8689L72.5201 78.1978ZM69.6232 91.5399L60.0958 105.4L60.9199 105.966L70.4473 92.1064L69.6232 91.5399ZM60.2525 106.113L76.0643 115.505L76.575 114.646L60.7632 105.253L60.2525 106.113ZM75.8364 114.947L74.7321 119.1L75.6985 119.357L76.8029 115.204L75.8364 114.947ZM75.2153 119.229C75.475 119.656 75.4751 119.656 75.4752 119.656C75.4754 119.656 75.4757 119.656 75.476 119.655C75.4767 119.655 75.4777 119.654 75.4791 119.654C75.4817 119.652 75.4857 119.65 75.491 119.646C75.5015 119.64 75.5171 119.63 75.5377 119.618C75.5789 119.593 75.64 119.555 75.7195 119.507C75.8785 119.409 76.1115 119.267 76.4075 119.084C76.9997 118.719 77.8445 118.194 78.8557 117.559C80.8778 116.287 83.567 114.567 86.2325 112.776C88.8955 110.987 91.5453 109.12 93.4836 107.555C94.4502 106.774 95.2566 106.056 95.8004 105.45C96.0709 105.15 96.2943 104.857 96.4374 104.584C96.5706 104.33 96.6912 103.986 96.5704 103.643L95.6272 103.975C95.6053 103.913 95.6493 103.934 95.5518 104.12C95.4644 104.287 95.3032 104.508 95.0567 104.782C94.5666 105.327 93.8094 106.006 92.8553 106.777C90.9521 108.313 88.3316 110.161 85.6748 111.946C83.0206 113.729 80.3406 115.443 78.3234 116.712C77.315 117.346 76.4726 117.869 75.8826 118.233C75.5875 118.415 75.3556 118.557 75.1975 118.654C75.1184 118.702 75.0579 118.739 75.0171 118.764C74.9967 118.776 74.9813 118.786 74.971 118.792C74.9658 118.795 74.9619 118.798 74.9594 118.799C74.9581 118.8 74.9571 118.801 74.9565 118.801C74.9562 118.801 74.9559 118.801 74.9558 118.801C74.9556 118.801 74.9556 118.802 75.2153 119.229ZM96.5704 103.643C96.5085 103.467 96.3915 103.249 96.2508 103.016C96.1052 102.774 95.9161 102.486 95.6915 102.16C95.2421 101.508 94.6388 100.687 93.9295 99.7524C92.5101 97.8823 90.654 95.5408 88.7271 93.1506C84.8726 88.3694 80.7252 83.381 79.2002 81.5527L78.4323 82.1932C79.9563 84.0204 84.0994 89.0036 87.9485 93.7782C89.8734 96.166 91.7224 98.4985 93.1329 100.357C93.8385 101.287 94.4313 102.094 94.8681 102.728C95.0866 103.045 95.2632 103.315 95.3943 103.532C95.5304 103.758 95.6014 103.902 95.6272 103.975L96.5704 103.643Z" fill="black"/>
<path d="M77.9494 84.6281C77.1808 81.7575 88.2255 78.2048 88.2255 78.2048L90.8998 77.3094C93.9718 76.873 108.283 95.9382 103.793 100.898C99.3031 105.858 94.8939 106.239 93.6581 104.541C92.4741 102.914 98.5125 98.1891 99.0199 97.7966C98.851 97.9167 97.9537 98.462 94.2654 99.6223C90.0384 100.952 87 100.898 87 98.4999C87 96.1017 96.7078 90.9906 96.7078 90.9906C96.7078 90.9906 80.9149 95.9851 81.0002 92.4999C81.0855 89.0148 92.7462 84.6281 92.7462 84.6281C92.7462 84.6281 78.718 87.4988 77.9494 84.6281Z" fill="#F4F1EF" stroke="black"/>
<circle cx="72" cy="51.9999" r="3" fill="black"/>
<rect x="125.5" y="68.5" width="321" height="215" fill="white" stroke="black"/>
<rect x="125.5" y="254.5" width="321" height="30" fill="#AAE2BF" stroke="black"/>
<rect x="137.5" y="263.5" width="11" height="11" fill="white" stroke="black"/>
<rect x="158" y="263" width="12" height="12" fill="black"/>
<rect x="179.5" y="263.5" width="11" height="11" stroke="black"/>
<rect x="175.5" y="121.5" width="73" height="38" fill="white" stroke="black"/>
<rect x="169.5" y="115.5" width="72" height="37" fill="white" stroke="black"/>
<rect x="162.5" y="106.5" width="72" height="39" fill="#AAE2BF" stroke="black"/>
<path d="M282.968 222.437L291.596 216L290.319 226.688L287.868 225.271L285.038 230.164L282.588 228.747L285.418 223.854L282.968 222.437Z" fill="black"/>
<rect x="292.5" y="110.5" width="128" height="104" stroke="black" stroke-dasharray="4 4"/>
<defs>
<clipPath id="clip0_1376_10192">
<rect x="44.1777" y="16" width="481.838" height="319.887" fill="white"/>
</clipPath>
</defs>
</svg>
