<svg width="736" height="340" viewBox="0 0 736 340" fill="none" xmlns="http://www.w3.org/2000/svg">
<line x1="11.0381" y1="328.857" x2="717.463" y2="328.857" stroke="black"/>
<line x1="11.5381" y1="9.02124" x2="11.5381" y2="329.358" stroke="black"/>
<line x1="396.861" y1="9.02124" x2="396.861" y2="329.358" stroke="black"/>
<line x1="11.0381" y1="264.79" x2="717.463" y2="264.79" stroke="black"/>
<line x1="75.7583" y1="9.02124" x2="75.7583" y2="329.358" stroke="black"/>
<line x1="461.082" y1="9.02124" x2="461.082" y2="329.358" stroke="black"/>
<line x1="11.0381" y1="200.724" x2="717.463" y2="200.724" stroke="black"/>
<line x1="139.979" y1="9.02124" x2="139.979" y2="329.358" stroke="black"/>
<line x1="525.302" y1="9.02124" x2="525.302" y2="329.358" stroke="black"/>
<line x1="11.0381" y1="136.656" x2="717.463" y2="136.656" stroke="black"/>
<line x1="204.199" y1="9.02124" x2="204.199" y2="329.358" stroke="black"/>
<line x1="589.522" y1="9.02124" x2="589.522" y2="329.358" stroke="black"/>
<line x1="11.0381" y1="72.5889" x2="717.463" y2="72.5889" stroke="black"/>
<line x1="268.42" y1="9.02124" x2="268.42" y2="329.358" stroke="black"/>
<line x1="653.743" y1="9.02124" x2="653.743" y2="329.358" stroke="black"/>
<line x1="11.0381" y1="8.52124" x2="717.463" y2="8.52124" stroke="black"/>
<line x1="332.641" y1="9.02124" x2="332.641" y2="329.358" stroke="black"/>
<line x1="717.963" y1="9.02124" x2="717.963" y2="329.358" stroke="black"/>
<mask id="mask0_1370_4461" style="mask-type:alpha" maskUnits="userSpaceOnUse" x="204" y="28" width="65" height="45">
<rect x="204.703" y="28.0415" width="64.2205" height="44.0463" fill="#C4C4C4"/>
</mask>
<g mask="url(#mask0_1370_4461)">
<path d="M222.49 92.537C217.954 92.537 213.866 91.697 210.226 90.017C206.642 88.281 203.534 85.957 200.902 83.045C198.326 80.077 196.338 76.773 194.938 73.133C193.594 69.437 192.922 65.629 192.922 61.709C192.922 58.013 193.566 54.401 194.854 50.873C196.142 47.345 198.046 44.181 200.566 41.381C203.142 38.525 206.278 36.257 209.974 34.577C213.726 32.897 218.066 32.057 222.994 32.057C228.65 32.057 233.55 33.261 237.694 35.669C241.838 38.077 244.918 41.213 246.934 45.077L236.35 52.469C235.454 50.397 234.25 48.773 232.738 47.597C231.226 46.365 229.574 45.525 227.782 45.077C226.046 44.573 224.338 44.321 222.658 44.321C218.626 44.321 215.35 45.441 212.83 47.681C210.366 49.921 208.742 52.721 207.958 56.081H227.614V67.085H207.622C207.958 69.605 208.826 71.873 210.226 73.889C211.682 75.849 213.474 77.417 215.602 78.593C217.786 79.713 220.194 80.273 222.826 80.273C224.506 80.273 226.242 80.021 228.034 79.517C229.826 78.957 231.45 78.061 232.906 76.829C234.418 75.597 235.594 74.001 236.434 72.041L247.69 78.677C246.458 81.645 244.498 84.165 241.81 86.237C239.122 88.253 236.042 89.821 232.57 90.941C229.154 92.005 225.794 92.537 222.49 92.537Z" fill="black"/>
<path d="M210.226 90.017L209.79 90.9169L209.799 90.921L209.807 90.9249L210.226 90.017ZM200.902 83.045L200.147 83.7004L200.154 83.708L200.16 83.7155L200.902 83.045ZM194.938 73.133L193.999 73.4747L194.002 73.4833L194.005 73.4919L194.938 73.133ZM194.854 50.873L195.794 51.2159L194.854 50.873ZM200.566 41.381L199.824 40.7112L199.823 40.712L200.566 41.381ZM209.974 34.577L209.566 33.6643L209.56 33.6666L209.974 34.577ZM237.694 35.669L237.192 36.5336V36.5336L237.694 35.669ZM246.934 45.077L247.507 45.8968L248.227 45.3936L247.821 44.6144L246.934 45.077ZM236.35 52.469L235.432 52.8659L235.919 53.9902L236.923 53.2888L236.35 52.469ZM232.738 47.597L232.107 48.3722L232.115 48.3793L232.124 48.3863L232.738 47.597ZM227.782 45.077L227.503 46.0373L227.522 46.0425L227.54 46.0471L227.782 45.077ZM212.83 47.681L212.166 46.9335L212.158 46.941L212.83 47.681ZM207.958 56.081L206.984 55.8537L206.698 57.081H207.958V56.081ZM227.614 56.081H228.614V55.081H227.614V56.081ZM227.614 67.085V68.085H228.614V67.085H227.614ZM207.622 67.085V66.085H206.48L206.631 67.2171L207.622 67.085ZM210.226 73.889L209.405 74.4594L209.414 74.4725L209.424 74.4853L210.226 73.889ZM215.602 78.593L215.119 79.4682L215.132 79.4757L215.146 79.4828L215.602 78.593ZM228.034 79.517L228.305 80.4796L228.319 80.4757L228.333 80.4714L228.034 79.517ZM232.906 76.829L232.275 76.0537L232.267 76.0596L232.26 76.0656L232.906 76.829ZM236.434 72.041L236.942 71.1795L235.963 70.6022L235.515 71.647L236.434 72.041ZM247.69 78.677L248.614 79.0603L248.947 78.2572L248.198 77.8155L247.69 78.677ZM241.81 86.237L242.41 87.037L242.421 87.029L241.81 86.237ZM232.57 90.941L232.868 91.8958L232.877 91.8927L232.57 90.941ZM222.49 91.537C218.08 91.537 214.138 90.7209 210.645 89.109L209.807 90.9249C213.595 92.6731 217.829 93.537 222.49 93.537V91.537ZM210.662 89.117C207.192 87.4362 204.189 85.1896 201.644 82.3744L200.16 83.7155C202.88 86.7244 206.092 89.1257 209.79 90.9169L210.662 89.117ZM201.658 82.3895C199.157 79.5085 197.23 76.3047 195.872 72.774L194.005 73.4919C195.447 77.2412 197.496 80.6454 200.147 83.7004L201.658 82.3895ZM195.878 72.7912C194.574 69.2044 193.922 65.512 193.922 61.709H191.922C191.922 65.7459 192.615 69.6695 193.999 73.4747L195.878 72.7912ZM193.922 61.709C193.922 58.1319 194.545 54.6358 195.794 51.2159L193.915 50.53C192.587 54.1661 191.922 57.8941 191.922 61.709H193.922ZM195.794 51.2159C197.038 47.8085 198.875 44.7551 201.31 42.0499L199.823 40.712C197.218 43.6068 195.247 46.8814 193.915 50.53L195.794 51.2159ZM201.309 42.0507C203.788 39.3022 206.81 37.1137 210.388 35.4873L209.56 33.6666C205.747 35.4002 202.497 37.7477 199.824 40.7112L201.309 42.0507ZM210.383 35.4896C213.983 33.8775 218.18 33.057 222.994 33.057V31.057C217.953 31.057 213.469 31.9164 209.566 33.6643L210.383 35.4896ZM222.994 33.057C228.506 33.057 233.226 34.2291 237.192 36.5336L238.197 34.8043C233.875 32.2929 228.795 31.057 222.994 31.057V33.057ZM237.192 36.5336C241.189 38.8564 244.128 41.8597 246.048 45.5395L247.821 44.6144C245.709 40.5662 242.487 37.2975 238.197 34.8043L237.192 36.5336ZM246.362 44.2571L235.778 51.6491L236.923 53.2888L247.507 45.8968L246.362 44.2571ZM237.268 52.072C236.317 49.8734 235.019 48.1038 233.352 46.8076L232.124 48.3863C233.482 49.4421 234.591 50.9205 235.432 52.8659L237.268 52.072ZM233.37 46.8217C231.751 45.5023 229.967 44.5924 228.025 44.1068L227.54 46.0471C229.181 46.4575 230.702 47.2276 232.107 48.3722L233.37 46.8217ZM228.061 44.1166C226.241 43.5883 224.44 43.321 222.658 43.321V45.321C224.237 45.321 225.851 45.5576 227.503 46.0373L228.061 44.1166ZM222.658 43.321C218.432 43.321 214.904 44.5002 212.166 46.9335L213.495 48.4284C215.797 46.3818 218.821 45.321 222.658 45.321V43.321ZM212.158 46.941C209.538 49.3226 207.813 52.3038 206.984 55.8537L208.932 56.3082C209.672 53.1381 211.195 50.5193 213.503 48.4209L212.158 46.941ZM207.958 57.081H227.614V55.081H207.958V57.081ZM226.614 56.081V67.085H228.614V56.081H226.614ZM227.614 66.085H207.622V68.085H227.614V66.085ZM206.631 67.2171C206.987 69.8888 207.911 72.3081 209.405 74.4594L211.048 73.3186C209.742 71.4378 208.929 69.3211 208.614 66.9528L206.631 67.2171ZM209.424 74.4853C210.964 76.5595 212.865 78.2228 215.119 79.4682L216.086 77.7177C214.084 76.6111 212.4 75.1384 211.029 73.2926L209.424 74.4853ZM215.146 79.4828C217.481 80.6804 220.047 81.273 222.826 81.273V79.273C220.341 79.273 218.091 78.7455 216.059 77.7031L215.146 79.4828ZM222.826 81.273C224.607 81.273 226.434 81.0057 228.305 80.4796L227.764 78.5543C226.05 79.0362 224.405 79.273 222.826 79.273V81.273ZM228.333 80.4714C230.254 79.871 231.996 78.9092 233.552 77.5923L232.26 76.0656C230.905 77.2127 229.398 78.043 227.736 78.5625L228.333 80.4714ZM233.538 77.6042C235.187 76.2609 236.456 74.5292 237.353 72.4349L235.515 71.647C234.733 73.4727 233.65 74.933 232.275 76.0537L233.538 77.6042ZM235.926 72.9024L247.182 79.5384L248.198 77.8155L236.942 71.1795L235.926 72.9024ZM246.767 78.2936C245.605 81.0912 243.758 83.4733 241.2 85.4449L242.421 87.029C245.239 84.8566 247.311 82.1987 248.614 79.0603L246.767 78.2936ZM241.21 85.437C238.618 87.3811 235.639 88.9003 232.263 89.9893L232.877 91.8927C236.446 90.7416 239.626 89.1249 242.41 87.037L241.21 85.437ZM232.273 89.9862C228.945 91.0227 225.685 91.537 222.49 91.537V93.537C225.903 93.537 229.363 92.9872 232.868 91.8957L232.273 89.9862Z" fill="#F4F1EF"/>
</g>
<path d="M583.503 322.175L588.939 328.858L653.746 328.858L653.746 266.041L646.988 257.785L584.208 258.634L583.503 322.175Z" fill="black" stroke="black"/>
<rect x="0.5" y="0.5" width="64.0684" height="63.2205" transform="matrix(3.47593e-08 1 1 -5.49691e-08 583.001 257.282)" fill="#F4F1EF" stroke="black"/>
<path d="M625.748 288.172H622.049V301.9H607.252V288.172H604.375L614.65 274.443L625.748 288.172Z" fill="black" stroke="black"/>
<path d="M0.402038 63.3126L11.3731 71.6901L140.085 71.6901L140.085 8.75161L131.357 0.398654L1.79368 1.25319L0.402038 63.3126Z" fill="black" stroke="black" stroke-width="0.7952"/>
<rect x="0.3976" y="0.3976" width="63.0171" height="130.205" transform="matrix(6.84449e-08 1 1 -2.79157e-08 1.10993e-08 -2.72137e-08)" fill="#F4F1EF" stroke="black" stroke-width="0.7952"/>
<rect x="157.224" y="172.637" width="92.4711" height="91.8666" fill="white" stroke="black"/>
<path d="M157.257 258.274L244.136 258.274L249.681 264.782L157.257 264.782L157.257 258.274Z" fill="black"/>
<path d="M209.368 201.27L226.751 201.27L226.751 224.504L179.431 224.504" stroke="black"/>
<path d="M174.002 224.487L189.129 217.785L189.129 231.189L174.002 224.487Z" fill="black"/>
<path d="M153.252 164.747L120.915 136.656L75.76 136.656L124.95 181.629L153.252 164.747Z" fill="black" stroke="black"/>
<path d="M180.771 218.984C181.467 222.375 145.382 186.29 145.382 186.29L135.401 175.61L150.602 166.854L160.49 171.901L185.217 178.511L169.776 179.19C169.776 179.19 177.763 185.331 180.56 186.88C183.356 188.429 200.483 199.416 200.081 200.911C199.68 202.406 175.06 189.416 175.06 189.416C175.06 189.416 196.922 209.681 195.772 210.976C194.621 212.271 170.858 193.1 170.858 193.1C170.858 193.1 193.47 213.565 192.319 214.86C191.168 216.155 167.553 199.427 167.553 199.427C167.553 199.427 180.076 215.593 180.771 218.984Z" fill="#F4F1EF" stroke="black"/>
<rect x="332.641" y="72.5879" width="111.386" height="143.151" fill="white" stroke="black"/>
<path d="M350.492 243.316C350.492 243.316 328.559 302.236 312.322 328.858L356.998 328.858L376.794 257.282L350.492 243.316Z" fill="black" stroke="black"/>
<path d="M387.329 216.775C389.6 216.911 388.501 225.559 388.501 225.559L386.327 232.756L374.799 256.281L356.151 246.381L353.214 250.275L346.15 213.473L357.712 231.56C357.712 231.56 359.572 217.688 359.497 213.249C359.422 208.811 361.163 187.265 363.248 186.708C365.333 186.151 366.385 218.096 366.385 218.096C366.385 218.096 368.32 208.662 370.964 210.184C373.607 211.707 374.799 220.305 374.799 220.305C374.799 220.305 377.293 212.951 379.657 213.433C382.022 213.916 382.655 220.434 382.655 220.434C382.655 220.434 385.058 216.639 387.329 216.775Z" fill="#F4F1EF" stroke="black"/>
<path d="M558.114 132.878L563.195 134.607L617.143 227.825L538.055 273.377L532.635 271.57L478.64 178.65L558.114 132.878Z" fill="black" stroke="black" stroke-width="1.41243"/>
<path d="M532.543 271.548L478.357 178.574L557.719 132.79L611.653 225.983L532.543 271.548Z" fill="white" stroke="black"/>
<path d="M548.704 230.245L554.384 234.759L553.296 227.601L554.227 227.065L555.425 235.633L554.622 236.095L547.774 230.781L548.704 230.245ZM560.665 232.745C560.155 233.038 559.635 233.177 559.104 233.162C558.575 233.136 558.088 232.986 557.643 232.712C557.193 232.432 556.833 232.057 556.561 231.588C556.286 231.112 556.141 230.613 556.126 230.091C556.114 229.559 556.231 229.062 556.476 228.599C556.725 228.125 557.1 227.744 557.603 227.454C558.112 227.161 558.631 227.027 559.159 227.053C559.69 227.069 560.181 227.217 560.63 227.497C561.082 227.767 561.446 228.14 561.721 228.616C561.993 229.085 562.135 229.586 562.147 230.118C562.162 230.64 562.048 231.135 561.806 231.605C561.561 232.068 561.18 232.448 560.665 232.745ZM557.448 231.09C557.652 231.442 557.912 231.718 558.228 231.919C558.551 232.115 558.888 232.225 559.241 232.248C559.59 232.264 559.921 232.182 560.234 232.002C560.548 231.821 560.783 231.573 560.939 231.257C561.102 230.937 561.176 230.59 561.16 230.217C561.147 229.833 561.038 229.466 560.834 229.114C560.631 228.762 560.368 228.487 560.045 228.291C559.729 228.09 559.391 227.98 559.032 227.961C558.679 227.938 558.346 228.017 558.033 228.198C557.719 228.378 557.486 228.63 557.334 228.952C557.177 229.268 557.104 229.615 557.113 229.992C557.129 230.366 557.241 230.731 557.448 231.09ZM566.555 229.352C566.046 229.645 565.526 229.784 564.995 229.769C564.46 229.746 563.964 229.597 563.508 229.321C563.053 229.044 562.687 228.668 562.411 228.192C562.132 227.71 561.985 227.208 561.97 226.686C561.956 226.164 562.076 225.673 562.332 225.213C562.584 224.746 562.968 224.364 563.484 224.067C563.986 223.778 564.49 223.64 564.994 223.654C565.501 223.657 565.955 223.795 566.357 224.068L565.667 224.817C565.397 224.651 565.107 224.571 564.796 224.576C564.482 224.574 564.181 224.656 563.894 224.822C563.581 225.002 563.341 225.249 563.174 225.562C563.014 225.872 562.942 226.213 562.958 226.587C562.97 226.954 563.081 227.32 563.293 227.685C563.5 228.043 563.764 228.326 564.084 228.533C564.407 228.73 564.744 228.839 565.097 228.862C565.456 228.881 565.792 228.801 566.106 228.62C566.308 228.504 566.48 228.357 566.621 228.18C566.769 227.999 566.877 227.811 566.947 227.614C567.019 227.408 567.039 227.218 567.008 227.044L567.997 226.813C568.062 227.272 567.966 227.736 567.707 228.206C567.455 228.673 567.071 229.055 566.555 229.352ZM568.403 226.189C568.214 225.863 568.143 225.53 568.19 225.19C568.24 224.84 568.39 224.505 568.641 224.187C568.892 223.869 569.233 223.585 569.663 223.337C569.892 223.206 570.145 223.086 570.422 222.979C570.695 222.865 570.951 222.787 571.188 222.746L570.973 222.374C570.747 221.983 570.452 221.744 570.089 221.658C569.722 221.565 569.323 221.643 568.892 221.891C568.611 222.053 568.37 222.261 568.17 222.516C567.972 222.76 567.784 223.059 567.606 223.414L566.942 222.988C567.143 222.568 567.377 222.207 567.646 221.904C567.911 221.595 568.223 221.337 568.582 221.13C569.235 220.754 569.856 220.64 570.446 220.787C571.032 220.928 571.512 221.321 571.886 221.966L573.137 224.127C573.253 224.329 573.405 224.381 573.592 224.282L573.977 224.947C573.899 225.009 573.83 225.062 573.768 225.106C573.713 225.147 573.666 225.178 573.627 225.201C573.425 225.317 573.239 225.35 573.071 225.3C572.909 225.245 572.785 225.16 572.701 225.043L572.494 224.732C572.438 225.147 572.276 225.536 572.008 225.899C571.739 226.262 571.429 226.545 571.076 226.748C570.737 226.944 570.394 227.05 570.047 227.067C569.696 227.078 569.378 227.009 569.092 226.861C568.802 226.706 568.572 226.482 568.403 226.189ZM571.941 224.633C571.967 224.497 571.976 224.37 571.969 224.252C571.958 224.128 571.933 224.034 571.896 223.968L571.528 223.333C571.016 223.41 570.538 223.577 570.094 223.833C569.656 224.085 569.352 224.377 569.179 224.711C569.01 225.035 569.012 225.347 569.185 225.647C569.28 225.81 569.415 225.945 569.59 226.053C569.768 226.15 569.97 226.199 570.197 226.199C570.43 226.195 570.673 226.12 570.928 225.973C571.196 225.819 571.42 225.62 571.601 225.377C571.778 225.127 571.892 224.879 571.941 224.633ZM577.761 222.898C577.363 223.127 576.944 223.238 576.504 223.231C576.065 223.223 575.66 223.117 575.289 222.913L575.844 223.872L575.08 224.312L570.949 217.173L571.81 216.676L573.576 219.728C573.599 219.271 573.709 218.851 573.905 218.469C574.101 218.086 574.409 217.775 574.826 217.534C575.179 217.331 575.539 217.224 575.906 217.212C576.27 217.194 576.623 217.255 576.966 217.397C577.312 217.528 577.63 217.723 577.919 217.983C578.211 218.232 578.457 218.529 578.657 218.874C578.932 219.35 579.079 219.852 579.098 220.381C579.119 220.899 579.017 221.384 578.791 221.835C578.561 222.281 578.218 222.635 577.761 222.898ZM577.115 222.279C577.461 222.08 577.714 221.817 577.873 221.49C578.029 221.157 578.098 220.804 578.083 220.431C578.067 220.058 577.964 219.708 577.776 219.382C577.583 219.049 577.33 218.778 577.017 218.567C576.71 218.353 576.378 218.231 576.022 218.201C575.668 218.162 575.325 218.238 574.992 218.429C574.627 218.64 574.368 218.945 574.217 219.346C574.072 219.742 574.019 220.146 574.057 220.559L574.912 222.036C575.082 222.224 575.3 222.36 575.565 222.442C575.833 222.514 576.106 222.534 576.384 222.504C576.669 222.471 576.913 222.395 577.115 222.279Z" fill="black"/>
<path d="M504.222 188.446C503.674 188.761 503.115 188.945 502.544 188.997C501.976 189.038 501.427 188.975 500.897 188.81C500.367 188.644 499.887 188.39 499.457 188.047C499.023 187.696 498.668 187.282 498.392 186.805C498.111 186.32 497.933 185.804 497.857 185.257C497.783 184.699 497.809 184.154 497.935 183.62C498.063 183.075 498.295 182.572 498.629 182.112C498.959 181.645 499.391 181.257 499.925 180.95C500.473 180.634 501.031 180.456 501.599 180.415C502.173 180.371 502.724 180.436 503.252 180.613C503.786 180.785 504.27 181.046 504.704 181.397C505.133 181.74 505.482 182.144 505.751 182.607C506.019 183.071 506.195 183.566 506.277 184.091C506.359 184.616 506.346 185.136 506.237 185.651L507.977 186.214L506.375 187.136L505.75 186.942C505.578 187.235 505.363 187.511 505.106 187.77C504.849 188.029 504.554 188.254 504.222 188.446ZM503.355 186.924C503.618 186.772 503.835 186.587 504.004 186.369L502.062 185.743L503.663 184.821L504.425 185.06C504.421 184.814 504.383 184.563 504.31 184.31C504.233 184.049 504.129 183.805 503.996 183.576C503.776 183.196 503.493 182.883 503.149 182.638C502.807 182.383 502.43 182.235 502.019 182.195C501.61 182.144 501.198 182.239 500.782 182.478C500.352 182.726 500.056 183.044 499.893 183.433C499.733 183.812 499.68 184.216 499.735 184.646C499.793 185.065 499.928 185.458 500.14 185.825C500.361 186.206 500.642 186.524 500.984 186.78C501.322 187.028 501.698 187.176 502.114 187.223C502.525 187.263 502.939 187.163 503.355 186.924ZM507.482 183.687L506.617 182.192L509.819 180.347L510.685 181.843L507.482 183.687ZM513.174 183.22L508.906 175.846L510.612 174.864L514.879 182.238L513.174 183.22ZM507.566 175.663L506.791 174.323L508.163 173.532L508.939 174.872L507.566 175.663ZM509.75 174.405L508.974 173.065L510.347 172.275L511.122 173.614L509.75 174.405Z" fill="black"/>
<path d="M551.922 176C551.922 173.12 583.667 151.363 583.667 151.363L590.4 136.009L597.134 140.807L606.753 148.484L600.982 158.081L593.286 194.233C593.286 194.233 592.324 178.879 591.362 176C590.4 173.121 562.504 205.749 561.542 201.91C560.58 198.072 580.781 177.919 579.819 176C578.857 174.08 554.808 192.313 554.808 189.435C554.808 186.556 577.895 168.323 577.895 168.323C577.895 168.323 552.884 187.516 551.922 185.596C550.96 183.677 575.009 163.524 575.009 163.524C575.009 163.524 551.922 178.879 551.922 176Z" fill="#F4F1EF" stroke="black" stroke-width="1.41243"/>
<path d="M586.985 135.476L611.062 150.4L655.22 91.7084V71.3168H625.116L586.985 135.476Z" fill="black"/>
<path d="M466.282 45.1368L510.421 19.7143L525.105 45.0871L525.105 72.8015L498.409 72.8015L482.293 72.8015L466.282 45.1368Z" fill="white" stroke="black"/>
<path d="M502.669 23.8348C502.669 23.8348 504.341 26.724 505.67 29.0199C506.999 31.3157 504.803 32.6443 503.141 30.4765C501.479 28.3087 500.03 25.8988 498.118 22.5943C496.205 19.2898 500.716 16.8048 502.579 20.0246C504.442 23.2443 507.357 27.4831 510.029 32.1009C512.702 36.7187 506.474 40.1469 503.525 35.8474C500.576 31.5478 498.852 27.7726 494.846 20.8503C490.84 13.9279 498.887 9.29298 502.893 16.2153C506.899 23.1376 505.811 21.2566 505.811 21.2566" stroke="black"/>
<path d="M718.509 90.1562L718.155 73.0889L730.788 84.6039L726.695 86.4546L730.405 94.621L726.312 96.4718L722.602 88.3054L718.509 90.1562Z" fill="black" stroke="black"/>
<rect x="589.522" y="8.52026" width="128.444" height="64.0684" fill="#F4F1EF" stroke="black" stroke-dasharray="4 4"/>
<path d="M684.032 193.494C680.45 193.494 677.186 192.814 674.24 191.454C671.338 190.049 668.822 188.19 666.692 185.878C664.561 183.566 662.929 180.959 661.796 178.058C660.662 175.111 660.096 172.074 660.096 168.946C660.096 165.773 660.685 162.735 661.864 159.834C663.088 156.887 664.765 154.281 666.896 152.014C669.072 149.702 671.633 147.889 674.58 146.574C677.526 145.214 680.745 144.534 684.236 144.534C687.817 144.534 691.058 145.237 693.96 146.642C696.906 148.047 699.422 149.929 701.508 152.286C703.638 154.643 705.27 157.295 706.404 160.242C707.537 163.143 708.104 166.113 708.104 169.15C708.104 172.187 707.56 175.111 706.472 177.922C705.384 180.733 703.842 183.249 701.848 185.47L708.784 193.154H698.312L695.796 190.434C694.118 191.386 692.282 192.134 690.288 192.678C688.293 193.222 686.208 193.494 684.032 193.494ZM684.1 183.566C685.822 183.566 687.409 183.271 688.86 182.682L681.108 174.114H691.58L694.64 177.446C695.32 176.222 695.841 174.885 696.204 173.434C696.566 171.938 696.748 170.442 696.748 168.946C696.748 166.453 696.249 164.118 695.252 161.942C694.3 159.721 692.872 157.93 690.968 156.57C689.109 155.165 686.82 154.462 684.1 154.462C681.289 154.462 678.932 155.187 677.028 156.638C675.169 158.043 673.764 159.879 672.812 162.146C671.905 164.367 671.452 166.679 671.452 169.082C671.452 171.575 671.928 173.933 672.88 176.154C673.832 178.33 675.26 180.121 677.164 181.526C679.068 182.886 681.38 183.566 684.1 183.566Z" fill="#AAE2BF"/>
<path d="M674.24 191.454L673.804 192.354L673.812 192.358L673.821 192.362L674.24 191.454ZM666.692 185.878L667.427 185.2L666.692 185.878ZM661.796 178.058L660.862 178.417L660.864 178.422L661.796 178.058ZM661.864 159.834L660.94 159.45L660.937 159.458L661.864 159.834ZM666.896 152.014L666.168 151.329L666.167 151.329L666.896 152.014ZM674.58 146.574L674.987 147.487L674.999 147.482L674.58 146.574ZM693.96 146.642L693.524 147.542L693.529 147.545L693.96 146.642ZM701.508 152.286L700.759 152.949L700.766 152.957L701.508 152.286ZM706.404 160.242L705.47 160.601L705.472 160.606L706.404 160.242ZM706.472 177.922L705.539 177.561L706.472 177.922ZM701.848 185.47L701.104 184.802L700.502 185.472L701.105 186.14L701.848 185.47ZM708.784 193.154V194.154H711.034L709.526 192.484L708.784 193.154ZM698.312 193.154L697.578 193.833L697.875 194.154H698.312V193.154ZM695.796 190.434L696.53 189.755L695.992 189.173L695.302 189.564L695.796 190.434ZM690.288 192.678L690.025 191.713L690.288 192.678ZM688.86 182.682L689.236 183.609L690.56 183.071L689.601 182.011L688.86 182.682ZM681.108 174.114V173.114H678.854L680.366 174.785L681.108 174.114ZM691.58 174.114L692.316 173.438L692.019 173.114H691.58V174.114ZM694.64 177.446L693.903 178.122L694.841 179.143L695.514 177.932L694.64 177.446ZM696.204 173.434L697.174 173.677L697.176 173.67L696.204 173.434ZM695.252 161.942L694.333 162.336L694.338 162.347L694.343 162.359L695.252 161.942ZM690.968 156.57L690.365 157.368L690.375 157.376L690.387 157.384L690.968 156.57ZM677.028 156.638L677.631 157.436L677.634 157.433L677.028 156.638ZM672.812 162.146L671.89 161.759L671.886 161.768L672.812 162.146ZM672.88 176.154L671.961 176.548L671.964 176.555L672.88 176.154ZM677.164 181.526L676.57 182.331L676.576 182.335L676.583 182.34L677.164 181.526ZM684.032 192.494C680.58 192.494 677.461 191.839 674.659 190.546L673.821 192.362C676.912 193.789 680.321 194.494 684.032 194.494V192.494ZM674.676 190.554C671.884 189.202 669.471 187.418 667.427 185.2L665.956 186.556C668.174 188.962 670.793 190.895 673.804 192.354L674.676 190.554ZM667.427 185.2C665.38 182.979 663.815 180.479 662.727 177.694L660.864 178.422C662.043 181.44 663.742 184.153 665.956 186.556L667.427 185.2ZM662.729 177.699C661.639 174.866 661.096 171.95 661.096 168.946H659.096C659.096 172.198 659.685 175.357 660.862 178.417L662.729 177.699ZM661.096 168.946C661.096 165.9 661.661 162.991 662.79 160.21L660.937 159.458C659.709 162.48 659.096 165.645 659.096 168.946H661.096ZM662.787 160.218C663.966 157.379 665.578 154.875 667.624 152.699L666.167 151.329C663.952 153.686 662.209 156.395 660.94 159.45L662.787 160.218ZM667.624 152.699C669.708 150.485 672.159 148.749 674.987 147.487L674.172 145.661C671.107 147.029 668.436 148.919 666.168 151.329L667.624 152.699ZM674.999 147.482C677.804 146.187 680.879 145.534 684.236 145.534V143.534C680.612 143.534 677.248 144.241 674.161 145.666L674.999 147.482ZM684.236 145.534C687.683 145.534 690.773 146.21 693.524 147.542L694.396 145.742C691.344 144.264 687.951 143.534 684.236 143.534V145.534ZM693.529 147.545C696.359 148.894 698.766 150.696 700.759 152.949L702.257 151.623C700.079 149.162 697.454 147.2 694.39 145.739L693.529 147.545ZM700.766 152.957C702.815 155.223 704.382 157.77 705.47 160.601L707.337 159.883C706.159 156.821 704.462 154.063 702.25 151.616L700.766 152.957ZM705.472 160.606C706.562 163.394 707.104 166.24 707.104 169.15H709.104C709.104 165.985 708.513 162.892 707.335 159.878L705.472 160.606ZM707.104 169.15C707.104 172.065 706.582 174.866 705.539 177.561L707.404 178.283C708.537 175.356 709.104 172.31 709.104 169.15H707.104ZM705.539 177.561C704.494 180.26 703.017 182.672 701.104 184.802L702.592 186.138C704.668 183.826 706.273 181.206 707.404 178.283L705.539 177.561ZM701.105 186.14L708.041 193.824L709.526 192.484L702.59 184.8L701.105 186.14ZM708.784 192.154H698.312V194.154H708.784V192.154ZM699.046 192.475L696.53 189.755L695.062 191.113L697.578 193.833L699.046 192.475ZM695.302 189.564C693.702 190.472 691.945 191.19 690.025 191.713L690.551 193.643C692.62 193.078 694.534 192.3 696.289 191.304L695.302 189.564ZM690.025 191.713C688.12 192.233 686.124 192.494 684.032 192.494V194.494C686.292 194.494 688.466 194.211 690.551 193.643L690.025 191.713ZM684.1 184.566C685.938 184.566 687.654 184.251 689.236 183.609L688.483 181.756C687.164 182.292 685.706 182.566 684.1 182.566V184.566ZM689.601 182.011L681.849 173.443L680.366 174.785L688.118 183.353L689.601 182.011ZM681.108 175.114H691.58V173.114H681.108V175.114ZM690.843 174.79L693.903 178.122L695.376 176.77L692.316 173.438L690.843 174.79ZM695.514 177.932C696.239 176.626 696.791 175.206 697.174 173.677L695.234 173.192C694.891 174.563 694.4 175.818 693.766 176.96L695.514 177.932ZM697.176 173.67C697.556 172.099 697.748 170.524 697.748 168.946H695.748C695.748 170.36 695.576 171.777 695.232 173.198L697.176 173.67ZM697.748 168.946C697.748 166.315 697.221 163.838 696.161 161.525L694.343 162.359C695.278 164.399 695.748 166.59 695.748 168.946H697.748ZM696.171 161.548C695.149 159.164 693.607 157.226 691.549 155.756L690.387 157.384C692.137 158.634 693.45 160.277 694.333 162.336L696.171 161.548ZM691.571 155.772C689.511 154.215 687 153.462 684.1 153.462V155.462C686.64 155.462 688.708 156.115 690.365 157.368L691.571 155.772ZM684.1 153.462C681.11 153.462 678.529 154.237 676.422 155.843L677.634 157.433C679.335 156.138 681.468 155.462 684.1 155.462V153.462ZM676.425 155.84C674.418 157.358 672.906 159.339 671.89 161.759L673.734 162.533C674.621 160.42 675.921 158.729 677.631 157.436L676.425 155.84ZM671.886 161.768C670.93 164.11 670.452 166.55 670.452 169.082H672.452C672.452 166.809 672.88 164.625 673.738 162.524L671.886 161.768ZM670.452 169.082C670.452 171.706 670.954 174.198 671.961 176.548L673.799 175.76C672.902 173.667 672.452 171.444 672.452 169.082H670.452ZM671.964 176.555C672.986 178.891 674.524 180.821 676.57 182.331L677.758 180.721C675.995 179.421 674.678 177.769 673.796 175.753L671.964 176.555ZM676.583 182.34C678.683 183.84 681.206 184.566 684.1 184.566V182.566C681.553 182.566 679.453 181.932 677.745 180.712L676.583 182.34Z" fill="black"/>
<path d="M423.192 273.008H435.228L451.82 321.288H440.396L436.656 310.476H421.628L417.956 321.288H406.532L423.192 273.008ZM434.82 302.792L429.176 284.228L423.396 302.792H434.82Z" fill="#AAE2BF"/>
<path d="M423.192 273.008V272.008H422.479L422.246 272.682L423.192 273.008ZM435.228 273.008L436.173 272.683L435.941 272.008H435.228V273.008ZM451.82 321.288V322.288H453.221L452.765 320.963L451.82 321.288ZM440.396 321.288L439.45 321.615L439.683 322.288H440.396V321.288ZM436.656 310.476L437.601 310.149L437.368 309.476H436.656V310.476ZM421.628 310.476V309.476H420.911L420.681 310.155L421.628 310.476ZM417.956 321.288V322.288H418.672L418.902 321.61L417.956 321.288ZM406.532 321.288L405.586 320.962L405.129 322.288H406.532V321.288ZM434.82 302.792V303.792H436.169L435.776 302.501L434.82 302.792ZM429.176 284.228L430.132 283.937L429.187 280.828L428.221 283.931L429.176 284.228ZM423.396 302.792L422.441 302.495L422.037 303.792H423.396V302.792ZM423.192 274.008H435.228V272.008H423.192V274.008ZM434.282 273.333L450.874 321.613L452.765 320.963L436.173 272.683L434.282 273.333ZM451.82 320.288H440.396V322.288H451.82V320.288ZM441.341 320.961L437.601 310.149L435.71 310.803L439.45 321.615L441.341 320.961ZM436.656 309.476H421.628V311.476H436.656V309.476ZM420.681 310.155L417.009 320.967L418.902 321.61L422.574 310.798L420.681 310.155ZM417.956 320.288H406.532V322.288H417.956V320.288ZM407.477 321.615L424.137 273.335L422.246 272.682L405.586 320.962L407.477 321.615ZM435.776 302.501L430.132 283.937L428.219 284.519L433.863 303.083L435.776 302.501ZM428.221 283.931L422.441 302.495L424.35 303.09L430.13 284.526L428.221 283.931ZM423.396 303.792H434.82V301.792H423.396V303.792Z" fill="black"/>
<rect x="268.924" y="73.0889" width="63.217" height="63.0662" fill="#AAE2BF"/>
<rect x="76.2617" y="265.291" width="63.217" height="63.0662" fill="#AAE2BF"/>
<path d="M18.121 26.2212C16.9877 26.2212 16.0077 25.9746 15.181 25.4812C14.3677 24.9879 13.7343 24.3346 13.281 23.5212C12.8277 22.6946 12.601 21.8012 12.601 20.8412C12.601 19.8546 12.821 18.9479 13.261 18.1212C13.7143 17.2812 14.3543 16.6146 15.181 16.1212C16.0077 15.6146 16.9943 15.3612 18.141 15.3612C19.2877 15.3612 20.2677 15.6146 21.081 16.1212C21.8943 16.6146 22.5143 17.2746 22.941 18.1012C23.381 18.9146 23.601 19.7946 23.601 20.7412C23.601 21.0879 23.581 21.3879 23.541 21.6412H15.441C15.5077 22.4546 15.8077 23.0946 16.341 23.5612C16.8877 24.0279 17.5143 24.2612 18.221 24.2612C18.7543 24.2612 19.2543 24.1346 19.721 23.8812C20.201 23.6146 20.5277 23.2679 20.701 22.8412L23.001 23.4812C22.6143 24.2812 21.9943 24.9412 21.141 25.4612C20.2877 25.9679 19.281 26.2212 18.121 26.2212ZM15.381 19.9412H20.861C20.781 19.1546 20.481 18.5212 19.961 18.0412C19.4543 17.5479 18.8343 17.3012 18.101 17.3012C17.381 17.3012 16.761 17.5479 16.241 18.0412C15.7343 18.5212 15.4477 19.1546 15.381 19.9412ZM34.9737 26.0212H32.2937V20.1412C32.2937 19.3012 32.147 18.6879 31.8537 18.3012C31.5603 17.9146 31.1537 17.7212 30.6337 17.7212C30.2737 17.7212 29.907 17.8146 29.5337 18.0012C29.1737 18.1879 28.847 18.4479 28.5537 18.7812C28.2603 19.1012 28.047 19.4746 27.9137 19.9012V26.0212H25.2337V15.5412H27.6537V17.4812C28.0403 16.8279 28.6003 16.3146 29.3337 15.9412C30.067 15.5546 30.8937 15.3612 31.8137 15.3612C32.467 15.3612 33.0003 15.4812 33.4137 15.7212C33.827 15.9479 34.147 16.2612 34.3737 16.6612C34.6003 17.0479 34.7537 17.4879 34.8337 17.9812C34.927 18.4746 34.9737 18.9746 34.9737 19.4812V26.0212ZM43.5254 25.4812C43.1654 25.6412 42.7187 25.8012 42.1854 25.9612C41.6654 26.1212 41.1254 26.2012 40.5654 26.2012C40.0721 26.2012 39.6187 26.1146 39.2054 25.9412C38.7921 25.7679 38.4587 25.4946 38.2054 25.1212C37.9654 24.7346 37.8454 24.2346 37.8454 23.6212V17.6012H36.4654V15.5412H37.8454V12.1412H40.5254V15.5412H42.7254V17.6012H40.5254V22.7212C40.5254 23.0812 40.6187 23.3412 40.8054 23.5012C41.0054 23.6612 41.2454 23.7412 41.5254 23.7412C41.8054 23.7412 42.0787 23.6946 42.3454 23.6012C42.6121 23.5079 42.8254 23.4279 42.9854 23.3612L43.5254 25.4812ZM49.6445 26.2212C48.5111 26.2212 47.5311 25.9746 46.7045 25.4812C45.8911 24.9879 45.2578 24.3346 44.8045 23.5212C44.3511 22.6946 44.1245 21.8012 44.1245 20.8412C44.1245 19.8546 44.3445 18.9479 44.7845 18.1212C45.2378 17.2812 45.8778 16.6146 46.7045 16.1212C47.5311 15.6146 48.5178 15.3612 49.6645 15.3612C50.8111 15.3612 51.7911 15.6146 52.6045 16.1212C53.4178 16.6146 54.0378 17.2746 54.4645 18.1012C54.9045 18.9146 55.1245 19.7946 55.1245 20.7412C55.1245 21.0879 55.1045 21.3879 55.0645 21.6412H46.9645C47.0311 22.4546 47.3311 23.0946 47.8645 23.5612C48.4111 24.0279 49.0378 24.2612 49.7445 24.2612C50.2778 24.2612 50.7778 24.1346 51.2445 23.8812C51.7245 23.6146 52.0511 23.2679 52.2245 22.8412L54.5245 23.4812C54.1378 24.2812 53.5178 24.9412 52.6645 25.4612C51.8111 25.9679 50.8045 26.2212 49.6445 26.2212ZM46.9045 19.9412H52.3845C52.3045 19.1546 52.0045 18.5212 51.4845 18.0412C50.9778 17.5479 50.3578 17.3012 49.6245 17.3012C48.9045 17.3012 48.2845 17.5479 47.7645 18.0412C47.2578 18.5212 46.9711 19.1546 46.9045 19.9412ZM62.9971 17.8612C62.1838 17.8612 61.4571 18.0212 60.8171 18.3412C60.1771 18.6479 59.7171 19.0946 59.4371 19.6812V26.0212H56.7571V15.5412H59.2171V17.7812C59.5771 17.0612 60.0438 16.4946 60.6171 16.0812C61.2038 15.6679 61.8171 15.4412 62.4571 15.4012C62.7371 15.4012 62.9171 15.4079 62.9971 15.4212V17.8612Z" fill="black"/>
<rect x="35.6211" y="179.7" width="15.0551" height="21.0231" fill="#F4F1EF" stroke="black"/>
<path d="M34.864 174.684L30.1035 165.186H39.6246L34.864 174.684Z" fill="#F4F1EF" stroke="black"/>
<path d="M50.7327 174.684L45.9722 165.186H55.4932L50.7327 174.684Z" fill="#F4F1EF" stroke="black"/>
<rect x="343.424" y="117.434" width="89.3467" height="1.00105" fill="black"/>
<rect x="343.424" y="136.198" width="89.3467" height="1.00105" fill="black"/>
<rect x="343.424" y="154.964" width="89.3467" height="1.00105" fill="black"/>
<rect x="343.424" y="173.729" width="63.4831" height="1.00105" fill="black"/>
<rect x="398.391" y="199.68" width="31.6378" height="1.00105" fill="black"/>
<rect x="407.882" y="192.214" width="22.1465" height="1.00105" fill="black"/>
<path d="M348.698 87.1025L344.183 89.6052L348.698 92.6083" stroke="black" stroke-linecap="square"/>
<path d="M358.733 87.1025L363.248 89.6052L358.733 92.6083" stroke="black" stroke-linecap="square"/>
<path d="M356.224 86.1025L351.207 93.1099" stroke="black" stroke-linecap="square"/>
<path d="M642.85 35.1919L633.174 40.5547L642.85 46.99" stroke="black" stroke-linecap="square"/>
<path d="M664.352 35.1919L674.028 40.5547L664.352 46.99" stroke="black" stroke-linecap="square"/>
<path d="M658.976 33.0469L648.225 48.0626" stroke="black" stroke-linecap="square"/>
</svg>
