<svg width="928" height="600" viewBox="0 0 928 600" fill="none" xmlns="http://www.w3.org/2000/svg">
<g clip-path="url(#clip0_1550_4993)">
<path d="M465.645 446.723H618.666V598.922H465.645L465.645 446.723Z" fill="#AAE2BF"/>
<path d="M774.98 1.64539H928.002V146.44H774.98L774.98 1.64539Z" fill="#AAE2BF"/>
<path d="M774.98 446.723H928.002V597.277H774.98L774.98 446.723Z" fill="#AAE2BF"/>
<path d="M1.64453 445.901H154.666V597.277H1.64453L1.64453 445.901Z" fill="#AAE2BF"/>
<path d="M620.313 146.44H773.334V296.17H620.312L620.313 146.44Z" fill="#AAE2BF"/>
<path d="M156.312 2.46808H309.334V145.617H156.312V2.46808Z" fill="#AAE2BF"/>
<rect x="1.25689" y="1.25692" width="925.486" height="596.408" stroke="black" stroke-width="2.51379"/>
<line x1="774.589" y1="-5.33908e-08" x2="774.589" y2="597.281" stroke="black" stroke-width="2.51379"/>
<line x1="619.925" y1="2.49832" x2="619.925" y2="597.07" stroke="black" stroke-width="2.51379"/>
<line x1="310.589" y1="2.49832" x2="310.589" y2="597.07" stroke="black" stroke-width="2.51379"/>
<line x1="465.257" y1="2.49832" x2="465.257" y2="597.07" stroke="black" stroke-width="2.51379"/>
<line x1="155.929" y1="2.49832" x2="155.929" y2="597.07" stroke="black" stroke-width="2.51379"/>
<line y1="445.921" x2="925.422" y2="445.921" stroke="black" stroke-width="2.51379"/>
<line y1="296.029" x2="925.422" y2="296.029" stroke="black" stroke-width="2.51379"/>
<line y1="146.137" x2="925.422" y2="146.137" stroke="black" stroke-width="2.51379"/>
<path d="M271.607 374.372V411.44H249.888V445.901H209.635V411.44H113.781V374.372L181.255 243.189H224.115L156.93 374.372H209.635V326.301H249.888V374.372H271.607Z" fill="black"/>
<path d="M466.467 445.901C443.116 445.901 424.756 430.835 411.387 400.702C398.197 370.265 391.602 329.937 391.602 279.716C391.602 229.496 398.197 189.319 411.387 159.187C424.756 128.75 443.116 113.532 466.467 113.532C489.996 113.532 508.356 128.75 521.546 159.187C534.737 189.319 541.332 229.496 541.332 279.716C541.332 329.937 534.737 370.265 521.546 400.702C508.356 430.835 489.996 445.901 466.467 445.901ZM438.125 357.786C444.542 375.44 453.989 384.266 466.467 384.266C478.944 384.266 488.392 375.288 494.809 357.33C501.404 339.372 504.702 313.501 504.702 279.716C504.702 245.627 501.404 219.604 494.809 201.646C488.392 183.689 478.944 174.71 466.467 174.71C453.989 174.71 444.542 183.689 438.125 201.646C431.708 219.604 428.499 245.627 428.499 279.716C428.499 313.805 431.708 339.829 438.125 357.786Z" fill="black"/>
<path d="M754.8 381.156L746.108 417.189L724.994 412.096L716.913 445.597L677.783 436.157L685.864 402.657L592.683 380.18L601.375 344.146L697.73 232.443L739.394 242.493L643.32 354.264L694.556 366.623L705.829 319.892L744.959 329.331L733.686 376.063L754.8 381.156Z" fill="black"/>
<path d="M160.423 282.814C162.068 276.863 111.891 269.844 111.891 269.844L83.3912 242.719L75.165 260.248L64.3546 287.002L88.8557 296.993C88.8557 296.993 162.481 352.417 166.189 348.823C169.898 345.228 145.624 329.078 147.267 327.433C148.911 325.787 172.467 342.281 175.231 338.95C177.994 335.62 153.435 320.028 154.663 318.383C155.892 316.738 180.436 331.28 182.641 327.433C184.845 323.586 160.017 308.261 160.423 306.043C160.829 303.825 187.727 318.338 187.49 313.263C187.253 308.187 150.699 285.475 150.699 285.475C150.699 285.475 158.778 288.766 160.423 282.814Z" fill="#F4F1EF" stroke="black" stroke-width="3.11053"/>
<path d="M97.5764 246.66L65.7733 293.854L-26.7369 256.984L-26.7452 243.821L-26.7387 138.516L97.5764 246.66Z" fill="black"/>
<path d="M481.237 176.735C486.92 175.089 491.926 115.855 491.926 115.855L489.464 76.366L496.868 40.1674L481.563 37.3525L452.784 35.2542L452.784 60.7348C452.784 60.7348 421.998 128.419 425.292 132.421C428.586 136.422 440.718 120.657 443.392 114.21C446.066 107.763 440.099 176.734 445.86 176.735C451.622 176.735 454.91 145.472 454.91 145.472C454.91 145.472 454.914 174.217 459.024 175.089C463.134 175.961 466.427 145.472 466.427 145.472C466.427 145.472 465.606 175.089 470.542 175.089C475.478 175.089 477.945 146.295 477.945 146.295C477.945 146.295 475.554 178.38 481.237 176.735Z" fill="#F4F1EF" stroke="black" stroke-width="3.11053"/>
<path d="M494.404 77.1886L440.926 63.2028L453.267 2.32289L467.255 2.32289L517.439 2.32289L494.404 77.1886Z" fill="black"/>
<path d="M687.652 238.394C693.364 235.123 737.301 257.448 737.301 257.448L775.41 253.363L773.541 272.172L769.239 299.976L743.646 299.428C743.646 299.428 671.729 311.565 672.335 304.14C672.941 296.715 692.744 298.787 695.847 295.308C698.949 291.829 658.972 278.07 662.003 271.116C665.033 264.163 686.228 275.834 686.228 275.834C686.228 275.834 665.84 264.32 670.171 259.297C674.502 254.273 693.925 266.437 693.925 266.437C693.925 266.437 673.682 252.932 676.397 248.843C679.113 244.754 701.286 254.46 701.286 254.46C701.286 254.46 681.94 241.665 687.652 238.394Z" fill="#F4F1EF" stroke="black" stroke-width="2.324"/>
<path d="M772.584 245.984L765.923 305.601L926 337.016L930.087 301.049L936.493 244.646L772.584 245.984Z" fill="black"/>
</g>
<defs>
<clipPath id="clip0_1550_4993">
<rect width="928" height="600" fill="white"/>
</clipPath>
</defs>
</svg>
