<svg fill="none" viewBox="0 0 1120 708" xmlns="http://www.w3.org/2000/svg" preserveAspectRatio="none"><g stroke="#000"><path d="m.5 1-.000031 707"/><path d="m0 .5h1120"/><path d="m611.5 1v707"/><path d="m714.5 1v707"/><path d="m199.5 1v707"/><path d="m817.5 1v707"/><path d="m302.5 1v707"/><path d="m920.5 1v707"/><path d="m405.5 1v707"/><path d="m508.5 1v707"/><path d="m.000977 505.5h1119.999023"/><path d="m0 404.5h1120"/><path d="m0 303.5h1120"/><path d="m0 202.5h1120"/><path d="m.000977 101.7h1119.999023"/><path d="m1119.5 1v707"/><path d="m96.5 1v707"/><path d="m1023.5 1v707"/><path d="m0 606.5h1120"/><path d="m0 707.5h1120"/></g></svg>