<svg width="516" height="516" viewBox="0 0 516 516" fill="none" xmlns="http://www.w3.org/2000/svg">
<circle r="257" transform="matrix(1 0 0 -1 258 258)" stroke="white" stroke-width="2"/>
<rect x="328.466" y="329.404" width="138.687" height="138.687" fill="white" stroke="black" stroke-width="2"/>
<path d="M445.983 361.051V358.765H447.171V349.297H445.983V347.011H449.835V361.051H445.983Z" fill="black"/>
<rect x="49.9053" y="50.843" width="138.687" height="138.687" fill="white" stroke="black" stroke-width="2"/>
<rect x="49.9053" y="328.466" width="138.687" height="138.687" fill="white" stroke="black" stroke-width="2"/>
<path d="M165.514 258.043L141.772 223.357L116.715 258.952L93.0082 224.267L69.8799 259.828" stroke="white"/>
<path d="M170.413 258.043L146.672 223.357L121.615 258.952L97.9077 224.267L74.7793 259.828" stroke="black"/>
<path d="M160.504 258.044L136.757 223.359L111.706 258.953L87.9937 224.269L64.8706 259.829" stroke="black"/>
<path d="M166.512 292.186L142.77 257.501L117.713 293.096L94.0063 258.411L70.8779 293.971" stroke="white"/>
<path d="M171.351 292.745L147.61 258.06L122.553 293.655L98.8456 258.97L75.7173 294.531" stroke="black"/>
<path d="M161.442 292.747L137.695 258.062L112.644 293.656L88.9317 258.971L65.8086 294.532" stroke="black"/>
<path fill-rule="evenodd" clip-rule="evenodd" d="M80.1712 102.361L79.8147 102.72L80.1669 103.084L96.1089 119.529L80.1615 135.981L79.8135 136.34L80.1615 136.699L96.0215 153.06L96.7175 152.342L81.2055 136.34L96.8049 120.248L119.072 143.219L119.42 143.578L119.768 143.219L142.03 120.253L157.624 136.34L142.112 152.342L142.808 153.06L158.668 136.699L159.016 136.34L158.668 135.981L142.726 119.535L158.673 103.084L159.021 102.725L158.673 102.366L142.813 86.0043L142.117 86.7223L157.629 102.725L142.03 118.817L119.763 95.846L119.415 95.487L119.067 95.846L96.8049 118.811L81.2152 102.729L97.6452 86.1879L96.9577 85.4612L80.1712 102.361ZM97.5009 119.529L119.42 142.142L141.334 119.535L119.415 96.9231L97.5009 119.529Z" fill="black"/>
<rect width="18.1264" height="18.1264" transform="matrix(0.699441 0.714691 -0.699441 0.714691 118.855 105.539)" fill="black"/>
<path d="M297.271 375.962L257.243 445.293L217.215 375.962H297.271Z" fill="white" stroke="black"/>
<mask id="mask0_1370_4290" style="mask-type:alpha" maskUnits="userSpaceOnUse" x="222" y="366" width="71" height="62">
<path d="M222.952 426.66L257.349 367.082L291.747 426.66H222.952Z" fill="#C4C4C4" stroke="black"/>
</mask>
<g mask="url(#mask0_1370_4290)">
<rect width="86.9768" height="0.456654" transform="matrix(0.784463 -0.620176 0.801875 0.597491 201.786 412.555)" fill="black"/>
<rect width="86.9768" height="0.456654" transform="matrix(0.784463 -0.620176 0.801875 0.597491 206.546 416.102)" fill="black"/>
<rect width="86.9768" height="0.456654" transform="matrix(0.784463 -0.620176 0.801875 0.597491 211.307 419.649)" fill="black"/>
<rect width="86.9768" height="0.456654" transform="matrix(0.784463 -0.620176 0.801875 0.597491 216.067 423.196)" fill="black"/>
<rect width="86.9768" height="0.456654" transform="matrix(0.784463 -0.620176 0.801875 0.597491 218.415 427.051)" fill="black"/>
<rect width="86.9768" height="0.456654" transform="matrix(0.784463 -0.620176 0.801875 0.597491 223.175 430.598)" fill="black"/>
<rect width="86.9768" height="0.456654" transform="matrix(0.784463 -0.620176 0.801875 0.597491 227.935 434.145)" fill="black"/>
<rect width="86.9768" height="0.456654" transform="matrix(0.784463 -0.620176 0.801875 0.597491 232.696 437.692)" fill="black"/>
<rect width="86.9768" height="0.456654" transform="matrix(0.784463 -0.620176 0.801875 0.597491 235.043 441.974)" fill="black"/>
<rect width="86.9768" height="0.456654" transform="matrix(0.784463 -0.620176 0.801875 0.597491 239.804 445.521)" fill="black"/>
<rect width="86.9768" height="0.456654" transform="matrix(0.784463 -0.620176 0.801875 0.597491 244.563 449.068)" fill="black"/>
<rect width="86.9768" height="0.456654" transform="matrix(0.784463 -0.620176 0.801875 0.597491 249.324 452.615)" fill="black"/>
</g>
<path d="M419.047 376.771L401.412 390.092L414.425 372.241L419.047 376.771ZM424.5 395.261L402.502 392.466L424.5 388.879V395.261ZM415.043 412.171L401.496 394.878L419.664 407.642L415.043 412.171ZM396.221 417.517L399.08 395.88L402.749 417.517H396.221ZM378.991 408.247L396.625 394.957L383.612 412.777L378.991 408.247ZM373.5 389.781L395.536 392.587L373.5 396.175V389.781ZM382.958 372.883L396.534 390.173L378.349 377.411L382.958 372.883ZM401.817 367.5L398.957 389.17L395.288 367.5H401.817Z" stroke="black"/>
<rect x="188.717" y="189.655" width="139.625" height="138.687" fill="white" stroke="black" stroke-width="2"/>
<rect x="328.904" y="49.4053" width="139.687" height="139.687" stroke="black" stroke-dasharray="6 6"/>
<rect x="358.917" y="85.0459" width="62.7782" height="74.0332" fill="black" stroke="black"/>
<rect x="366.42" y="77.5427" width="62.7782" height="74.0332" fill="white" stroke="black"/>
<path d="M468.169 206.634L468.972 189.633L480.73 201.939L476.543 203.504L479.673 211.877L475.486 213.442L472.356 205.069L468.169 206.634Z" fill="white" stroke="black"/>
<path d="M386.211 89.4718H389.043L392.947 100.832H390.259L389.379 98.2878H385.843L384.979 100.832H382.291L386.211 89.4718ZM388.947 96.4798L387.619 92.1118L386.259 96.4798H388.947Z" fill="black"/>
<path d="M48.9053 461.588H181.151L189.592 469.091H48.9053V461.588Z" fill="black"/>
<path d="M327.466 320.9H459.712L468.153 328.404H327.466V320.9Z" fill="black"/>
<path d="M411.496 236.488H432.513V264.647H375.3" stroke="black"/>
<rect x="222.543" y="119.426" width="51.806" height="51.806" transform="rotate(-45 222.543 119.426)" stroke="black"/>
<rect x="239.122" y="119.426" width="28.4731" height="28.4731" transform="rotate(-45 239.122 119.426)" fill="white" stroke="black"/>
<rect x="251.222" y="119.45" width="11.2543" height="11.2543" transform="rotate(-45 251.222 119.45)" fill="black" stroke="black"/>
<path d="M368.734 264.625L387.024 256.503L387.024 272.748L368.734 264.625Z" fill="black"/>
<path d="M372.791 96.2238L379.543 92.1438V94.4158L375.911 96.6878L379.543 98.8638V101.264L372.791 97.2638V96.2238Z" fill="black"/>
<path d="M400.966 97.2638L394.214 101.264V98.8638L397.846 96.6878L394.214 94.4158V92.1438L400.966 96.2238V97.2638Z" fill="black"/>
<mask id="mask1_1370_4290" style="mask-type:alpha" maskUnits="userSpaceOnUse" x="225" y="219" width="69" height="69">
<circle cx="259.433" cy="253.444" r="34.4075" transform="rotate(-22.4445 259.433 253.444)" fill="#C4C4C4"/>
</mask>
<g mask="url(#mask1_1370_4290)">
<rect x="235.954" y="209.061" width="9.39835" height="102.363" transform="rotate(-22.4445 235.954 209.061)" fill="black" stroke="black" stroke-width="0.928571"/>
<rect x="217.758" y="277.215" width="9.39835" height="94.9694" transform="rotate(-112.444 217.758 277.215)" fill="black" stroke="black" stroke-width="0.928571"/>
<rect x="214.227" y="240.826" width="9.39835" height="94.9694" transform="rotate(-67.4445 214.227 240.826)" fill="black" stroke="black" stroke-width="0.928571"/>
<rect x="273.722" y="208.961" width="9.39835" height="94.9694" transform="rotate(22.5555 273.722 208.961)" fill="black" stroke="black" stroke-width="0.928571"/>
<path d="M255.114 242.988L259.416 248.776L264.35 243.516L262.507 250.488L269.695 251.066L263.096 253.972L267.126 259.953L260.738 256.605L258.576 263.485L257.211 256.403L250.484 259.002L255.169 253.52L248.943 249.88L256.15 250.125L255.114 242.988Z" fill="white"/>
</g>
<mask id="mask2_1370_4290" style="mask-type:alpha" maskUnits="userSpaceOnUse" x="212" y="276" width="27" height="27">
<circle cx="225.563" cy="289.439" r="12.9749" fill="#C4C4C4"/>
</mask>
<g mask="url(#mask2_1370_4290)">
<rect x="223.369" y="266.369" width="4.3377" height="47.2444" fill="black" stroke="black" stroke-width="0.428571"/>
<rect x="203.597" y="292.236" width="4.3377" height="43.832" transform="rotate(-90 203.597 292.236)" fill="black" stroke="black" stroke-width="0.428571"/>
<rect x="208.503" y="276.091" width="4.3377" height="43.832" transform="rotate(-45 208.503 276.091)" fill="black" stroke="black" stroke-width="0.428571"/>
<rect x="239.497" y="272.981" width="4.3377" height="43.832" transform="rotate(45 239.497 272.981)" fill="black" stroke="black" stroke-width="0.428571"/>
<path d="M225.563 285.447L226.225 288.393L228.684 287.138L227.05 289.557L229.455 290.938L226.755 291.008L227.295 293.985L225.563 291.654L223.831 293.985L224.371 291.008L221.671 290.938L224.076 289.557L222.442 287.138L224.901 288.393L225.563 285.447Z" fill="white"/>
</g>
<rect x="112.781" y="383.983" width="9.98066" height="33.9342" fill="black"/>
<path d="M112.781 380.988L109.787 375H115.776L112.781 380.988Z" fill="black" stroke="black"/>
<path d="M122.762 380.988L119.768 375H125.756L122.762 380.988Z" fill="black" stroke="black"/>
<path d="M67.3126 79.5962V65.5562H71.1826V67.8422H69.9766V77.3102H71.1826V79.5962H67.3126Z" fill="black"/>
<path d="M155.668 176.801V177.665H153.076V176.801H153.928V175.271C153.88 175.335 153.798 175.399 153.682 175.463C153.57 175.527 153.446 175.583 153.31 175.631C153.178 175.675 153.06 175.697 152.956 175.697V174.809C153.024 174.809 153.108 174.787 153.208 174.743C153.308 174.699 153.408 174.647 153.508 174.587C153.612 174.523 153.702 174.459 153.778 174.395C153.858 174.331 153.908 174.279 153.928 174.239H154.906V176.801H155.668ZM158.774 176.801V177.665H156.182V176.801H157.034V175.271C156.986 175.335 156.904 175.399 156.788 175.463C156.676 175.527 156.552 175.583 156.416 175.631C156.284 175.675 156.166 175.697 156.062 175.697V174.809C156.13 174.809 156.214 174.787 156.314 174.743C156.414 174.699 156.514 174.647 156.614 174.587C156.718 174.523 156.808 174.459 156.884 174.395C156.964 174.331 157.014 174.279 157.034 174.239H158.012V176.801H158.774ZM162.323 175.907C162.323 176.259 162.255 176.573 162.119 176.849C161.983 177.121 161.797 177.335 161.561 177.491C161.325 177.647 161.057 177.725 160.757 177.725C160.457 177.725 160.189 177.647 159.953 177.491C159.717 177.335 159.531 177.121 159.395 176.849C159.259 176.573 159.191 176.259 159.191 175.907C159.191 175.555 159.259 175.243 159.395 174.971C159.531 174.695 159.717 174.479 159.953 174.323C160.189 174.163 160.457 174.083 160.757 174.083C161.057 174.083 161.325 174.163 161.561 174.323C161.797 174.479 161.983 174.695 162.119 174.971C162.255 175.243 162.323 175.555 162.323 175.907ZM161.357 175.907C161.357 175.627 161.299 175.401 161.183 175.229C161.071 175.053 160.929 174.965 160.757 174.965C160.577 174.965 160.431 175.053 160.319 175.229C160.207 175.401 160.151 175.627 160.151 175.907C160.151 176.187 160.207 176.413 160.319 176.585C160.431 176.757 160.577 176.843 160.757 176.843C160.929 176.843 161.071 176.757 161.183 176.585C161.299 176.413 161.357 176.187 161.357 175.907ZM166.009 175.907C166.009 176.259 165.941 176.573 165.805 176.849C165.669 177.121 165.483 177.335 165.247 177.491C165.011 177.647 164.743 177.725 164.443 177.725C164.143 177.725 163.875 177.647 163.639 177.491C163.403 177.335 163.217 177.121 163.081 176.849C162.945 176.573 162.877 176.259 162.877 175.907C162.877 175.555 162.945 175.243 163.081 174.971C163.217 174.695 163.403 174.479 163.639 174.323C163.875 174.163 164.143 174.083 164.443 174.083C164.743 174.083 165.011 174.163 165.247 174.323C165.483 174.479 165.669 174.695 165.805 174.971C165.941 175.243 166.009 175.555 166.009 175.907ZM165.043 175.907C165.043 175.627 164.985 175.401 164.869 175.229C164.757 175.053 164.615 174.965 164.443 174.965C164.263 174.965 164.117 175.053 164.005 175.229C163.893 175.401 163.837 175.627 163.837 175.907C163.837 176.187 163.893 176.413 164.005 176.585C164.117 176.757 164.263 176.843 164.443 176.843C164.615 176.843 164.757 176.757 164.869 176.585C164.985 176.413 165.043 176.187 165.043 175.907ZM169.694 175.907C169.694 176.259 169.626 176.573 169.49 176.849C169.354 177.121 169.168 177.335 168.932 177.491C168.696 177.647 168.428 177.725 168.128 177.725C167.828 177.725 167.56 177.647 167.324 177.491C167.088 177.335 166.902 177.121 166.766 176.849C166.63 176.573 166.562 176.259 166.562 175.907C166.562 175.555 166.63 175.243 166.766 174.971C166.902 174.695 167.088 174.479 167.324 174.323C167.56 174.163 167.828 174.083 168.128 174.083C168.428 174.083 168.696 174.163 168.932 174.323C169.168 174.479 169.354 174.695 169.49 174.971C169.626 175.243 169.694 175.555 169.694 175.907ZM168.728 175.907C168.728 175.627 168.67 175.401 168.554 175.229C168.442 175.053 168.3 174.965 168.128 174.965C167.948 174.965 167.802 175.053 167.69 175.229C167.578 175.401 167.522 175.627 167.522 175.907C167.522 176.187 167.578 176.413 167.69 176.585C167.802 176.757 167.948 176.843 168.128 176.843C168.3 176.843 168.442 176.757 168.554 176.585C168.67 176.413 168.728 176.187 168.728 175.907ZM173.38 175.907C173.38 176.259 173.312 176.573 173.176 176.849C173.04 177.121 172.854 177.335 172.618 177.491C172.382 177.647 172.114 177.725 171.814 177.725C171.514 177.725 171.246 177.647 171.01 177.491C170.774 177.335 170.588 177.121 170.452 176.849C170.316 176.573 170.248 176.259 170.248 175.907C170.248 175.555 170.316 175.243 170.452 174.971C170.588 174.695 170.774 174.479 171.01 174.323C171.246 174.163 171.514 174.083 171.814 174.083C172.114 174.083 172.382 174.163 172.618 174.323C172.854 174.479 173.04 174.695 173.176 174.971C173.312 175.243 173.38 175.555 173.38 175.907ZM172.414 175.907C172.414 175.627 172.356 175.401 172.24 175.229C172.128 175.053 171.986 174.965 171.814 174.965C171.634 174.965 171.488 175.053 171.376 175.229C171.264 175.401 171.208 175.627 171.208 175.907C171.208 176.187 171.264 176.413 171.376 176.585C171.488 176.757 171.634 176.843 171.814 176.843C171.986 176.843 172.128 176.757 172.24 176.585C172.356 176.413 172.414 176.187 172.414 175.907ZM176.621 176.801V177.665H174.029V176.801H174.881V175.271C174.833 175.335 174.751 175.399 174.635 175.463C174.523 175.527 174.399 175.583 174.263 175.631C174.131 175.675 174.013 175.697 173.909 175.697V174.809C173.977 174.809 174.061 174.787 174.161 174.743C174.261 174.699 174.361 174.647 174.461 174.587C174.565 174.523 174.655 174.459 174.731 174.395C174.811 174.331 174.861 174.279 174.881 174.239H175.859V176.801H176.621Z" fill="black"/>
</svg>
