<svg width="140" height="41" viewBox="0 0 140 41" fill="none" xmlns="http://www.w3.org/2000/svg">
    <path fill-rule="evenodd" clip-rule="evenodd" d="M31.6991 24.632V25.0591V26.2977H32.803H35.1299V12.8125L31.6883 12.7805V14.4141C30.487 13.5706 28.7121 12.9299 26.8074 12.8125C24.2641 12.663 22.0238 13.5065 20.6061 15.1508C18.4632 17.6919 18.5498 22.0268 20.8874 24.4185C22.2403 25.8172 24.2965 26.5432 26.5909 26.4471C28.6255 26.3617 30.6818 25.7531 31.6991 24.632ZM12.8247 26.3297H16.6342V7.5487H12.8247V26.3297ZM136.19 3.75833V0H83.9286V3.75833H136.19ZM67.7273 24.0555V29.725L66.039 28.1448H58.1169V31.5721C62.4134 31.5721 66.7749 31.5401 71.0714 31.5721V12.8125L67.7597 12.7805H67.7273V14.3286C66.5909 13.5385 64.8701 12.9299 63.0628 12.8125C60.6061 12.663 58.4307 13.4745 57.1104 15.0547C55.0216 17.4464 55.119 21.5677 57.3593 23.8419C58.6796 25.2086 60.6169 25.9026 62.8571 25.8065C64.7835 25.7211 66.7749 25.1232 67.7273 24.0555ZM67.7597 18.151V20.5107C67.6623 20.6922 67.5758 20.8417 67.4783 20.9911C66.4935 22.3898 64.1667 23.1159 62.2944 22.6568C60.5411 22.2297 59.4697 20.8737 59.3831 19.475C59.2857 18.0229 60.2381 16.5388 61.9048 16.0156C63.842 15.407 66.5043 16.1651 67.5216 17.7133C67.5974 17.8734 67.6623 18.0016 67.7597 18.151ZM37.9329 26.3297H41.7424V18.7276C41.7424 14.4568 49.632 14.4247 49.632 19.2721V26.3297H53.4416V19.2081C53.4416 10.4208 43.4632 12.332 41.4394 14.3607V12.8125H37.9437V26.3297H37.9329ZM0 35.4159H3.80952V3.75833H0V35.4159ZM80.0974 41H3.80952V35.3625H74.0476L80.0974 41ZM80.0974 3.75833V0H3.80952V3.75833H80.0974ZM106.667 24.7815V25.2086V26.2977H107.771H110.13V12.8125H106.32V20.7242C106.32 23.4469 101.656 24.1516 99.5346 22.3258C98.9177 21.8133 98.5173 21.0232 98.5173 19.8701L98.5065 12.8125H94.697V20.4786C94.697 22.9984 95.8333 24.931 97.6732 25.9026C100.043 27.1518 104.892 26.7888 106.667 24.7815ZM118.506 17.788H116.299V7.5487H112.489V26.3297H116.299V21.2047H118.474L122.771 26.2336H127.251L121.548 19.507L127.251 12.7805H122.771L118.506 17.788ZM136.19 41H83.8961H83.0952H80.0866V3.75833H83.8961V35.3625H130.141L136.19 41ZM136.19 41H140V3.75833H136.19V41ZM31.7965 21.0872V18.2365C31.7316 18.1404 31.6775 18.0549 31.6126 17.9589C30.5736 16.3253 27.803 15.5352 25.7792 16.1971C24.0584 16.7417 23.0736 18.2898 23.171 19.806C23.2684 21.2581 24.3723 22.6888 26.2121 23.1372C28.1493 23.6177 30.5736 22.8596 31.5801 21.4075C31.6667 21.3008 31.7316 21.2047 31.7965 21.0872Z" fill="black"/>
</svg>
