<svg width="404" height="348" viewBox="0 0 404 348" fill="none" xmlns="http://www.w3.org/2000/svg">
<g clip-path="url(#clip0_1379_11206)">
<rect x="3.5" y="70.5" width="400" height="277" stroke="black" stroke-dasharray="4 4"/>
<path d="M206.5 224.937C206.5 224.937 194.507 211.52 194.507 208.52C194.507 205.52 212.5 216.437 214.5 217.437C216.5 218.437 222 223.437 223.5 228.437C225 233.437 226 350 226 350C226 350 217.162 349.814 210.5 350C204.056 350.18 193 350 193 350C193 350 200.487 283.52 200.007 280.02C199.531 276.558 197.854 274.25 195.582 271.124L195.507 271.02C194.124 269.118 193.265 268.081 191.507 266.52C188.627 263.963 186.326 263.473 183.007 261.52C181.894 260.277 180.979 259.188 181 257.52C181.034 254.864 182.991 252.87 185.507 252.02C183.007 250.52 181.569 247.532 182.507 244.52C183.377 241.723 190.5 241.52 190.5 241.52C190.5 241.52 183.507 238.02 185.007 233.52C186.506 229.02 197.5 232.02 197.5 232.02C197.5 232.02 186.007 226.52 188.007 222.02C190.006 217.52 206.5 224.937 206.5 224.937Z" fill="#F4F1EF"/>
<path d="M206.5 224.937C206.5 224.937 194.507 211.52 194.507 208.52C194.507 205.52 212.5 216.437 214.5 217.437C216.5 218.437 222 223.437 223.5 228.437C225 233.437 226 350 226 350C226 350 217.162 349.814 210.5 350C204.056 350.18 193 350 193 350C193 350 200.487 283.52 200.007 280.02C199.526 276.52 197.816 274.199 195.507 271.02C194.124 269.118 193.265 268.081 191.507 266.52C188.627 263.963 186.326 263.473 183.007 261.52M206.5 224.937C206.5 224.937 219.5 231.02 218.507 235.02C217.514 239.02 197.5 232.02 197.5 232.02M206.5 224.937C206.5 224.937 190.006 217.52 188.007 222.02C186.007 226.52 197.5 232.02 197.5 232.02M183.007 261.52C192.574 264.058 210.5 268.52 210.5 266.02C210.5 263.52 196.007 255.02 185.507 252.02M183.007 261.52C181.894 260.277 180.979 259.188 181 257.52C181.034 254.864 182.991 252.87 185.507 252.02M185.507 252.02C196.246 253.582 213.5 257.52 213.5 254.02C213.5 250.52 190.5 241.52 190.5 241.52M185.507 252.02C183.007 250.52 181.569 247.532 182.507 244.52C183.377 241.723 190.5 241.52 190.5 241.52M190.5 241.52C190.5 241.52 215.007 247.52 215.007 244.02C215.006 240.52 197.5 232.02 197.5 232.02M190.5 241.52C190.5 241.52 183.507 238.02 185.007 233.52C186.506 229.02 197.5 232.02 197.5 232.02" stroke="black"/>
<rect x="199" y="139" width="12" height="136" fill="black"/>
<path d="M210.5 266.02C210 269.937 192.574 264.058 183.007 261.52C181.894 260.277 180.979 259.188 181 257.52C181.034 254.864 182.991 252.87 185.507 252.02C183.007 250.52 181.569 247.532 182.507 244.52C183.377 241.724 190.5 241.52 190.5 241.52C190.5 241.52 183.507 238.02 185.007 233.52C186.506 229.02 197.5 232.02 197.5 232.02C197.5 232.02 186.007 226.52 188.007 222.02C190.006 217.52 206.5 224.937 206.5 224.937C206.5 224.937 219.5 231.02 218.507 235.02C217.514 239.02 197.5 232.02 197.5 232.02C197.5 232.02 215.006 240.52 215.007 244.02C215.007 247.52 190.5 241.52 190.5 241.52C190.5 241.52 214.5 249.603 213.5 254.02C212.5 258.437 196.246 253.582 185.507 252.02C196.007 255.02 211 262.103 210.5 266.02Z" fill="#F4F1EF"/>
<path d="M206.5 224.937C206.5 224.937 194.507 211.52 194.507 208.52M206.5 224.937C206.5 224.937 219.5 231.02 218.507 235.02C217.514 239.02 197.5 232.02 197.5 232.02M206.5 224.937C206.5 224.937 190.006 217.52 188.007 222.02C186.007 226.52 197.5 232.02 197.5 232.02M200.007 280.02C199.526 276.52 197.816 274.199 195.507 271.02C194.124 269.118 193.265 268.081 191.507 266.52C188.627 263.963 186.326 263.473 183.007 261.52M183.007 261.52C192.574 264.058 210 269.937 210.5 266.02C211 262.103 196.007 255.02 185.507 252.02M183.007 261.52C181.894 260.277 180.979 259.188 181 257.52C181.034 254.864 182.991 252.87 185.507 252.02M185.507 252.02C196.246 253.582 212.5 258.437 213.5 254.02C214.5 249.603 190.5 241.52 190.5 241.52M185.507 252.02C183.007 250.52 181.569 247.532 182.507 244.52C183.377 241.724 190.5 241.52 190.5 241.52M190.5 241.52C190.5 241.52 215.007 247.52 215.007 244.02C215.006 240.52 197.5 232.02 197.5 232.02M190.5 241.52C190.5 241.52 183.507 238.02 185.007 233.52C186.506 229.02 197.5 232.02 197.5 232.02" stroke="black"/>
<path d="M229.5 296.5L192.5 289.5L185.5 358.5H229.5V296.5Z" fill="black" stroke="black"/>
<path d="M229.5 296.5L192.5 289.5L191 304L229.5 312.5V296.5Z" fill="black"/>
<mask id="path-11-inside-1_1379_11206" fill="white">
<path fill-rule="evenodd" clip-rule="evenodd" d="M55.0521 296.452L55.05 296.451L55.05 296.451L46.9436 291.82L37.4364 308.113L53.8163 317.47L61.9228 322.1L66.4055 314.418L66.4077 314.419L75.9148 298.126L59.5349 288.77L55.0521 296.452Z"/>
</mask>
<path d="M55.05 296.451L55.298 296.017L54.8658 295.77L54.617 296.201L55.05 296.451ZM55.0521 296.452L54.8041 296.886L55.2343 297.132L55.484 296.704L55.0521 296.452ZM55.05 296.451L54.802 296.885L55.2341 297.132L55.483 296.701L55.05 296.451ZM46.9436 291.82L47.1916 291.386L46.7614 291.141L46.5117 291.568L46.9436 291.82ZM37.4364 308.113L37.0045 307.861L36.7502 308.297L37.1884 308.548L37.4364 308.113ZM53.8163 317.47L53.5683 317.904L53.5683 317.904L53.8163 317.47ZM61.9228 322.1L61.6748 322.535L62.1049 322.78L62.3546 322.352L61.9228 322.1ZM66.4055 314.418L66.6534 313.984L66.2233 313.738L65.9737 314.166L66.4055 314.418ZM66.4077 314.419L66.1598 314.854L66.5899 315.099L66.8395 314.671L66.4077 314.419ZM75.9148 298.126L76.3467 298.378L76.601 297.942L76.1628 297.692L75.9148 298.126ZM59.5349 288.77L59.7829 288.336L59.3527 288.09L59.103 288.518L59.5349 288.77ZM54.617 296.201L54.617 296.201L55.483 296.701L55.483 296.701L54.617 296.201ZM54.6169 296.201L54.6169 296.201L55.483 296.701L55.483 296.701L54.6169 296.201ZM55.298 296.017L54.2847 295.438L53.7887 296.306L54.802 296.885L55.298 296.017ZM52.2581 294.28L50.2315 293.123L49.7355 293.991L51.7621 295.149L52.2581 294.28ZM48.2049 291.965L47.1916 291.386L46.6956 292.255L47.7089 292.833L48.2049 291.965ZM46.5117 291.568L46.0363 292.383L46.9001 292.887L47.3754 292.072L46.5117 291.568ZM45.0856 294.012L44.1349 295.642L44.9986 296.146L45.9493 294.516L45.0856 294.012ZM43.1842 297.271L42.2335 298.9L43.0972 299.404L44.0479 297.775L43.1842 297.271ZM41.2828 300.53L40.332 302.159L41.1958 302.663L42.1465 301.034L41.2828 300.53ZM39.3813 303.788L38.4306 305.417L39.2943 305.921L40.245 304.292L39.3813 303.788ZM37.4799 307.047L37.0045 307.861L37.8682 308.365L38.3436 307.551L37.4799 307.047ZM37.1884 308.548L38.0074 309.015L38.5034 308.147L37.6844 307.679L37.1884 308.548ZM39.6454 309.951L41.2834 310.887L41.7794 310.018L40.1414 309.083L39.6454 309.951ZM42.9214 311.822L44.5594 312.758L45.0554 311.89L43.4174 310.954L42.9214 311.822ZM46.1974 313.694L47.8353 314.629L48.3314 313.761L46.6934 312.825L46.1974 313.694ZM49.4733 315.565L51.1113 316.501L51.6073 315.632L49.9693 314.697L49.4733 315.565ZM52.7493 317.436L53.5683 317.904L54.0643 317.036L53.2453 316.568L52.7493 317.436ZM53.5683 317.904L54.5816 318.483L55.0776 317.615L54.0643 317.036L53.5683 317.904ZM56.6082 319.641L58.6348 320.798L59.1308 319.93L57.1042 318.772L56.6082 319.641ZM60.6615 321.956L61.6748 322.535L62.1708 321.666L61.1575 321.087L60.6615 321.956ZM62.3546 322.352L62.915 321.392L62.0512 320.888L61.4909 321.848L62.3546 322.352ZM64.0356 319.472L65.1563 317.551L64.2926 317.047L63.1719 318.968L64.0356 319.472ZM66.277 315.63L66.8374 314.67L65.9737 314.166L65.4133 315.126L66.277 315.63ZM66.1576 314.852L66.1582 314.853L66.6539 313.984L66.6534 313.984L66.1576 314.852ZM66.1592 314.853L66.1598 314.854L66.6555 313.985L66.655 313.985L66.1592 314.853ZM66.8395 314.671L67.3149 313.857L66.4512 313.353L65.9758 314.167L66.8395 314.671ZM68.2656 312.227L69.2163 310.598L68.3526 310.094L67.4019 311.723L68.2656 312.227ZM70.167 308.969L71.1178 307.339L70.254 306.835L69.3033 308.465L70.167 308.969ZM72.0685 305.71L73.0192 304.081L72.1555 303.577L71.2048 305.206L72.0685 305.71ZM73.9699 302.452L74.9206 300.822L74.0569 300.318L73.1062 301.948L73.9699 302.452ZM75.8713 299.193L76.3467 298.378L75.483 297.874L75.0076 298.689L75.8713 299.193ZM76.1628 297.692L75.3438 297.224L74.8478 298.093L75.6668 298.56L76.1628 297.692ZM73.7058 296.289L72.0679 295.353L71.5719 296.221L73.2098 297.157L73.7058 296.289ZM70.4299 294.417L68.7919 293.482L68.2959 294.35L69.9339 295.286L70.4299 294.417ZM67.1539 292.546L65.5159 291.61L65.0199 292.479L66.6579 293.414L67.1539 292.546ZM63.8779 290.675L62.2399 289.739L61.7439 290.607L63.3819 291.543L63.8779 290.675ZM60.6019 288.803L59.7829 288.336L59.2869 289.204L60.1059 289.672L60.6019 288.803ZM59.103 288.518L58.5427 289.478L59.4064 289.982L59.9668 289.022L59.103 288.518ZM57.422 291.399L56.3013 293.319L57.165 293.823L58.2857 291.903L57.422 291.399ZM55.1806 295.24L54.6203 296.2L55.484 296.704L56.0443 295.744L55.1806 295.24ZM55.3001 296.018L55.2996 296.018L54.8036 296.886L54.8041 296.886L55.3001 296.018ZM55.2985 296.017L55.298 296.017L54.802 296.885L54.8025 296.885L55.2985 296.017ZM55.05 296.451L55.546 295.583L54.6817 295.089L54.184 295.951L55.05 296.451ZM55.0521 296.452L54.5561 297.32L55.4165 297.812L55.9158 296.956L55.0521 296.452ZM55.05 296.451L54.554 297.319L55.4183 297.813L55.916 296.951L55.05 296.451ZM46.9436 291.82L47.4396 290.952L46.5792 290.461L46.0798 291.316L46.9436 291.82ZM37.4364 308.113L36.5727 307.609L36.064 308.481L36.9404 308.982L37.4364 308.113ZM53.8163 317.47L53.3203 318.338L53.3203 318.338L53.8163 317.47ZM61.9228 322.1L61.4268 322.969L62.2871 323.46L62.7865 322.604L61.9228 322.1ZM66.4055 314.418L66.9013 313.55L66.041 313.059L65.5418 313.914L66.4055 314.418ZM66.4077 314.419L65.9119 315.288L66.7722 315.779L67.2714 314.923L66.4077 314.419ZM75.9148 298.126L76.7786 298.63L77.2872 297.759L76.4108 297.258L75.9148 298.126ZM59.5349 288.77L60.0309 287.901L59.1705 287.41L58.6712 288.266L59.5349 288.77ZM54.184 295.951L54.1839 295.951L55.916 296.951L55.916 296.951L54.184 295.951ZM54.1839 295.951L54.1839 295.951L55.916 296.951L55.916 296.951L54.1839 295.951ZM55.546 295.583L54.5327 295.004L53.5407 296.74L54.554 297.319L55.546 295.583ZM52.5061 293.846L50.4795 292.689L49.4875 294.425L51.5141 295.583L52.5061 293.846ZM48.4529 291.531L47.4396 290.952L46.4476 292.689L47.4609 293.268L48.4529 291.531ZM46.0798 291.316L45.6045 292.131L47.3319 293.139L47.8073 292.324L46.0798 291.316ZM44.6538 293.76L43.7031 295.39L45.4305 296.398L46.3812 294.768L44.6538 293.76ZM42.7523 297.019L41.8016 298.648L43.529 299.656L44.4798 298.027L42.7523 297.019ZM40.8509 300.278L39.9002 301.907L41.6276 302.915L42.5783 301.286L40.8509 300.278ZM38.9495 303.536L37.9988 305.165L39.7262 306.173L40.6769 304.544L38.9495 303.536ZM37.048 306.795L36.5727 307.609L38.3001 308.617L38.7755 307.803L37.048 306.795ZM36.9404 308.982L37.7594 309.45L38.7514 307.713L37.9324 307.245L36.9404 308.982ZM39.3974 310.385L41.0354 311.321L42.0274 309.584L40.3894 308.649L39.3974 310.385ZM42.6734 312.257L44.3114 313.192L45.3034 311.456L43.6654 310.52L42.6734 312.257ZM45.9494 314.128L47.5873 315.063L48.5794 313.327L46.9414 312.391L45.9494 314.128ZM49.2253 315.999L50.8633 316.935L51.8553 315.198L50.2173 314.262L49.2253 315.999ZM52.5013 317.87L53.3203 318.338L54.3123 316.602L53.4933 316.134L52.5013 317.87ZM53.3203 318.338L54.3336 318.917L55.3256 317.18L54.3123 316.602L53.3203 318.338ZM56.3602 320.075L58.3868 321.232L59.3788 319.496L57.3522 318.338L56.3602 320.075ZM60.4135 322.39L61.4268 322.969L62.4188 321.232L61.4054 320.653L60.4135 322.39ZM62.7865 322.604L63.3468 321.644L61.6194 320.636L61.059 321.596L62.7865 322.604ZM64.4675 319.724L65.5882 317.803L63.8608 316.795L62.7401 318.716L64.4675 319.724ZM66.7089 315.882L67.2692 314.922L65.5418 313.914L64.9815 314.874L66.7089 315.882ZM65.9098 315.287L65.9103 315.287L66.9018 313.55L66.9013 313.55L65.9098 315.287ZM65.9114 315.287L65.9119 315.288L66.9034 313.551L66.9029 313.551L65.9114 315.287ZM67.2714 314.923L67.7467 314.109L66.0193 313.101L65.544 313.915L67.2714 314.923ZM68.6975 312.479L69.6482 310.85L67.9207 309.842L66.97 311.471L68.6975 312.479ZM70.5989 309.221L71.5496 307.591L69.8222 306.583L68.8715 308.213L70.5989 309.221ZM72.5003 305.962L73.451 304.333L71.7236 303.325L70.7729 304.954L72.5003 305.962ZM74.4018 302.704L75.3525 301.074L73.6251 300.066L72.6743 301.696L74.4018 302.704ZM76.3032 299.445L76.7786 298.63L75.0511 297.622L74.5758 298.437L76.3032 299.445ZM76.4108 297.258L75.5918 296.79L74.5998 298.527L75.4188 298.995L76.4108 297.258ZM73.9539 295.855L72.3159 294.919L71.3239 296.656L72.9618 297.591L73.9539 295.855ZM70.6779 293.983L69.0399 293.048L68.0479 294.784L69.6859 295.72L70.6779 293.983ZM67.4019 292.112L65.7639 291.176L64.7719 292.913L66.4099 293.849L67.4019 292.112ZM64.1259 290.241L62.4879 289.305L61.4959 291.042L63.1339 291.977L64.1259 290.241ZM60.8499 288.369L60.0309 287.901L59.0389 289.638L59.8579 290.106L60.8499 288.369ZM58.6712 288.266L58.1108 289.226L59.8383 290.234L60.3986 289.274L58.6712 288.266ZM56.9901 291.147L55.8695 293.067L57.5969 294.075L58.7176 292.155L56.9901 291.147ZM54.7488 294.988L54.1884 295.948L55.9158 296.956L56.4762 295.996L54.7488 294.988ZM55.5481 295.584L55.5476 295.583L54.5556 297.32L54.5561 297.32L55.5481 295.584ZM55.5465 295.583L55.546 295.583L54.554 297.319L54.5545 297.32L55.5465 295.583Z" fill="#AAE2BF" mask="url(#path-11-inside-1_1379_11206)"/>
<rect x="3.18301" y="155.683" width="35" height="35" transform="rotate(30 3.18301 155.683)" stroke="#AAE2BF"/>
<rect x="384.183" y="59.683" width="35" height="35" transform="rotate(30 384.183 59.683)" stroke="#AAE2BF" stroke-dasharray="4 4"/>
<path d="M379.451 296.835L364.513 289.675L362.975 306.761L348.049 299.595L347.163 316.289" stroke="black"/>
<path d="M341.764 124.866L338.465 151.41L335.166 124.866H341.764Z" stroke="black"/>
<path d="M335.166 186.063L338.465 159.519L341.763 186.063H335.166Z" stroke="black"/>
<path d="M369.063 158.764L342.519 155.465L369.063 152.167V158.764Z" stroke="black"/>
<path d="M307.866 152.165L334.41 155.464L307.866 158.763V152.165Z" stroke="black"/>
<path d="M357.725 179.414L341.288 158.287L362.414 174.724L357.725 179.414Z" stroke="black"/>
<path d="M314.474 174.724L335.601 158.286L319.163 179.413L314.474 174.724Z" stroke="black"/>
<path d="M362.415 136.163L341.288 152.601L357.726 131.474L362.415 136.163Z" stroke="black"/>
<path d="M319.163 131.474L335.601 152.601L314.474 136.163L319.163 131.474Z" stroke="black"/>
<line x1="103.436" y1="249" x2="103.436" y2="198" stroke="black"/>
<line x1="124.553" y1="249" x2="124.553" y2="198" stroke="black"/>
<line x1="89" y1="212.436" x2="140" y2="212.436" stroke="black"/>
<line x1="89" y1="233.553" x2="140" y2="233.553" stroke="black"/>
<circle cx="281" cy="235" r="21.5" stroke="#AAE2BF" stroke-dasharray="4 4"/>
<circle cx="73" cy="128" r="30.5" stroke="black" stroke-dasharray="2 2"/>
</g>
<rect x="3.5" y="70.5" width="400" height="277" stroke="black" stroke-dasharray="4 4"/>
<path d="M319.515 22.1213L319.598 22.452L319.936 22.4959L346.5 25.9394V144.5H62.5V0.5H314.11L319.515 22.1213Z" fill="white" stroke="black"/>
<mask id="path-31-inside-2_1379_11206" fill="white">
<path fill-rule="evenodd" clip-rule="evenodd" d="M268.49 52L276.901 60.3331L284.912 52.3956L301.902 69.2301L284.912 86.0645L284.91 86.0625L276.899 94L259.908 77.1656L259.908 77.1655L251.5 68.8344L268.49 52Z"/>
</mask>
<path fill-rule="evenodd" clip-rule="evenodd" d="M268.49 52L276.901 60.3331L284.912 52.3956L301.902 69.2301L284.912 86.0645L284.91 86.0625L276.899 94L259.908 77.1656L259.908 77.1655L251.5 68.8344L268.49 52Z" fill="#AAE2BF"/>
<path d="M276.901 60.3331L276.197 61.0435L276.901 61.7408L277.605 61.0435L276.901 60.3331ZM268.49 52L269.194 51.2896L268.49 50.5923L267.787 51.2896L268.49 52ZM284.912 52.3956L285.615 51.6853L284.912 50.9879L284.208 51.6853L284.912 52.3956ZM301.902 69.2301L302.606 69.9404L303.323 69.2301L302.606 68.5197L301.902 69.2301ZM284.912 86.0645L284.208 86.7749L284.912 87.4722L285.615 86.7749L284.912 86.0645ZM284.91 86.0625L285.613 85.3521L284.91 84.6548L284.206 85.3521L284.91 86.0625ZM276.899 94L276.195 94.7104L276.899 95.4077L277.602 94.7104L276.899 94ZM259.908 77.1656L259.208 76.4512L258.483 77.1615L259.204 77.8759L259.908 77.1656ZM259.908 77.1655L260.608 77.8799L261.333 77.1696L260.612 76.4552L259.908 77.1655ZM251.5 68.8344L250.796 68.1241L250.079 68.8344L250.796 69.5448L251.5 68.8344ZM277.605 59.6227L269.194 51.2896L267.787 52.7104L276.197 61.0435L277.605 59.6227ZM284.208 51.6853L276.197 59.6227L277.605 61.0435L285.615 53.106L284.208 51.6853ZM302.606 68.5197L285.615 51.6853L284.208 53.106L301.198 69.9404L302.606 68.5197ZM285.615 86.7749L302.606 69.9404L301.198 68.5197L284.208 85.3541L285.615 86.7749ZM284.206 86.7729L284.208 86.7749L285.615 85.3541L285.613 85.3521L284.206 86.7729ZM284.206 85.3521L276.195 93.2896L277.602 94.7104L285.613 86.7728L284.206 85.3521ZM277.602 93.2896L260.612 76.4552L259.204 77.8759L276.195 94.7104L277.602 93.2896ZM260.608 77.8799L260.608 77.8799L259.208 76.4512L259.208 76.4512L260.608 77.8799ZM250.796 69.5448L259.204 77.8759L260.612 76.4552L252.204 68.1241L250.796 69.5448ZM267.787 51.2896L250.796 68.1241L252.204 69.5448L269.194 52.7104L267.787 51.2896Z" fill="black" mask="url(#path-31-inside-2_1379_11206)"/>
<rect x="180.807" y="41.5" width="49.4584" height="64.2992" fill="white" stroke="black"/>
<rect x="187.73" y="51.4478" width="35.3776" height="1" fill="black"/>
<rect x="187.73" y="59.6049" width="35.3776" height="1" fill="black"/>
<rect x="188.143" y="67.1197" width="26.1197" height="1" fill="black"/>
<rect x="188.143" y="81.4854" width="18.2831" height="1.30598" fill="black"/>
<rect x="188.143" y="85.1339" width="18.2831" height="1.30598" fill="black"/>
<rect x="188.355" y="88.7823" width="13.4986" height="1.30598" fill="black"/>
<rect x="201.201" y="94.3223" width="2.16599" height="23.2305" transform="rotate(-30 201.201 94.3223)" fill="black"/>
<circle cx="197.687" cy="87.1131" r="13.6802" transform="rotate(-30 197.687 87.1131)" fill="black"/>
<circle cx="197.686" cy="87.113" r="11.3673" transform="rotate(-30 197.686 87.113)" fill="white"/>
<line x1="188" y1="83" x2="201.06" y2="83" stroke="#AAE2BF" stroke-width="2"/>
<line x1="188" y1="86.9179" x2="206.284" y2="86.9179" stroke="#AAE2BF" stroke-width="2"/>
<line x1="188" y1="90.8359" x2="202.366" y2="90.8359" stroke="#AAE2BF" stroke-width="2"/>
<path d="M132.79 74.9194L128.115 74.4594L125.251 93.8269L129.736 94.5386L132.79 74.9194Z" fill="black"/>
<path d="M110.701 47.9718L107.458 35M104.215 50.5662L95.135 42.1345M99.6751 57.0521L88.0005 53.8091M99.6751 64.8352L88.0005 68.0781M103.567 71.9696L95.135 79.7527" stroke="#AAE2BF"/>
<mask id="path-48-inside-3_1379_11206" fill="white">
<path fill-rule="evenodd" clip-rule="evenodd" d="M150.286 65.7415L118.92 51.0188L119.345 50.1136L151.126 65.0311L151.541 65.226L151.383 65.6564L147.491 76.2355L147.357 76.599L146.972 76.5604L112.597 73.1158L112.696 72.1207L146.686 75.5268L150.286 65.7415Z"/>
</mask>
<path fill-rule="evenodd" clip-rule="evenodd" d="M150.286 65.7415L118.92 51.0188L119.345 50.1136L151.126 65.0311L151.541 65.226L151.383 65.6564L147.491 76.2355L147.357 76.599L146.972 76.5604L112.597 73.1158L112.696 72.1207L146.686 75.5268L150.286 65.7415Z" fill="#AAE2BF"/>
<path d="M150.286 65.7415L150.711 64.8363L151.541 65.226L151.224 66.0868L150.286 65.7415ZM118.92 51.0188L118.495 51.924L117.59 51.4991L118.015 50.5939L118.92 51.0188ZM119.345 50.1136L118.44 49.6886L118.865 48.7834L119.77 49.2083L119.345 50.1136ZM151.126 65.0311L151.551 64.1259H151.551L151.126 65.0311ZM151.541 65.226L151.966 64.3207L152.796 64.7105L152.48 65.5712L151.541 65.226ZM151.383 65.6564L152.321 66.0016H152.321L151.383 65.6564ZM147.491 76.2355L148.43 76.5808L148.43 76.5808L147.491 76.2355ZM147.357 76.599L148.296 76.9443L148.029 77.6713L147.258 77.5941L147.357 76.599ZM146.972 76.5604L146.872 77.5554H146.872L146.972 76.5604ZM112.597 73.1158L112.497 74.1108L111.502 74.0111L111.602 73.016L112.597 73.1158ZM112.696 72.1207L111.701 72.021L111.801 71.026L112.796 71.1257L112.696 72.1207ZM146.686 75.5268L147.625 75.872L147.357 76.599L146.587 76.5218L146.686 75.5268ZM149.861 66.6468L118.495 51.924L119.345 50.1136L150.711 64.8363L149.861 66.6468ZM118.015 50.5939L118.44 49.6886L120.25 50.5385L119.825 51.4437L118.015 50.5939ZM119.77 49.2083L151.551 64.1259L150.701 65.9364L118.92 51.0188L119.77 49.2083ZM151.551 64.1259L151.966 64.3207L151.116 66.1312L150.701 65.9364L151.551 64.1259ZM152.48 65.5712L152.321 66.0016L150.444 65.3111L150.602 64.8808L152.48 65.5712ZM152.321 66.0016L148.43 76.5808L146.553 75.8903L150.444 65.3111L152.321 66.0016ZM148.43 76.5808L148.296 76.9443L146.419 76.2538L146.553 75.8903L148.43 76.5808ZM147.258 77.5941L146.872 77.5554L147.072 75.5654L147.457 75.604L147.258 77.5941ZM146.872 77.5554L112.497 74.1108L112.696 72.1207L147.072 75.5654L146.872 77.5554ZM111.602 73.016L111.701 72.021L113.691 72.2204L113.592 73.2155L111.602 73.016ZM112.796 71.1257L146.786 74.5318L146.587 76.5218L112.597 73.1158L112.796 71.1257ZM145.748 75.1816L149.347 65.3963L151.224 66.0868L147.625 75.872L145.748 75.1816Z" fill="black" mask="url(#path-48-inside-3_1379_11206)"/>
<path d="M149.5 63.5L151.5 64.5L147 77.5L145 76.9718L149.5 63.5Z" fill="black" stroke="black"/>
<path d="M116.134 46.3894L120 48.5L112.999 74L109 74L116.134 46.3894Z" fill="black" stroke="black"/>
<path d="M345.358 24.8475L319.494 22.4773L315.255 1.22776L345.358 24.8475Z" fill="black" stroke="black"/>
<defs>
<clipPath id="clip0_1379_11206">
<rect x="3" y="70" width="401" height="278" fill="white"/>
</clipPath>
</defs>
</svg>
