<svg width="497" height="321" viewBox="0 0 497 321" fill="none" xmlns="http://www.w3.org/2000/svg">
<rect x="0.846954" y="0.66925" width="480.5" height="318.548" fill="#F4F1EF" stroke="black" stroke-width="1.33844"/>
<rect x="323" y="240" width="79" height="78" fill="#AAE2BF"/>
<line x1="402.378" y1="1.33844" x2="402.378" y2="319.887" stroke="black" stroke-width="1.33844"/>
<line x1="322.072" y1="1.33844" x2="322.072" y2="319.887" stroke="black" stroke-width="1.33844"/>
<line x1="161.459" y1="1.33844" x2="161.459" y2="319.887" stroke="black" stroke-width="1.33844"/>
<line x1="241.765" y1="1.33844" x2="241.765" y2="319.887" stroke="black" stroke-width="1.33844"/>
<line x1="81.1526" y1="1.33844" x2="81.1526" y2="319.887" stroke="black" stroke-width="1.33844"/>
<line x1="0.176758" y1="238.911" x2="480.676" y2="238.911" stroke="black" stroke-width="1.33844"/>
<line x1="0.176758" y1="158.605" x2="480.676" y2="158.605" stroke="black" stroke-width="1.33844"/>
<line x1="0.176758" y1="78.2987" x2="480.676" y2="78.2987" stroke="black" stroke-width="1.33844"/>
<mask id="path-11-inside-1_1376_8572" fill="white">
<path fill-rule="evenodd" clip-rule="evenodd" d="M480.394 174.879L462.645 168.871L460.07 176.477L452.463 173.902L451.176 177.706L447.372 176.418L449.518 170.079L431.769 164.071L421.04 195.765L438.789 201.774L441.364 194.167L445.168 195.454L443.451 200.526L451.058 203.1L420.159 294.38L437.908 300.388L468.807 209.108L477.82 212.159L479.328 207.703C480.202 207.876 484.821 208.842 487.424 210.465C490.924 212.647 494.786 220.022 494.786 220.022C494.786 220.022 499.917 209.042 492.983 198.216C490.74 194.714 486.114 190.71 485.311 190.028L486.832 185.536L477.819 182.485L480.394 174.879Z"/>
</mask>
<path fill-rule="evenodd" clip-rule="evenodd" d="M480.394 174.879L462.645 168.871L460.07 176.477L452.463 173.902L451.176 177.706L447.372 176.418L449.518 170.079L431.769 164.071L421.04 195.765L438.789 201.774L441.364 194.167L445.168 195.454L443.451 200.526L451.058 203.1L420.159 294.38L437.908 300.388L468.807 209.108L477.82 212.159L479.328 207.703C480.202 207.876 484.821 208.842 487.424 210.465C490.924 212.647 494.786 220.022 494.786 220.022C494.786 220.022 499.917 209.042 492.983 198.216C490.74 194.714 486.114 190.71 485.311 190.028L486.832 185.536L477.819 182.485L480.394 174.879Z" fill="white"/>
<path d="M462.645 168.871L463.074 167.603L461.806 167.174L461.377 168.441L462.645 168.871ZM480.394 174.879L481.661 175.308L482.091 174.04L480.823 173.611L480.394 174.879ZM460.07 176.477L459.641 177.745L460.909 178.174L461.338 176.906L460.07 176.477ZM452.463 173.902L452.893 172.635L451.625 172.205L451.196 173.473L452.463 173.902ZM451.176 177.706L450.747 178.973L452.015 179.403L452.444 178.135L451.176 177.706ZM447.372 176.418L446.105 175.989L445.675 177.257L446.943 177.686L447.372 176.418ZM449.518 170.079L450.786 170.508L451.215 169.241L449.947 168.812L449.518 170.079ZM431.769 164.071L432.198 162.803L430.931 162.374L430.501 163.642L431.769 164.071ZM421.04 195.765L419.773 195.336L419.343 196.604L420.611 197.033L421.04 195.765ZM438.789 201.774L438.36 203.041L439.628 203.471L440.057 202.203L438.789 201.774ZM441.364 194.167L441.793 192.899L440.526 192.47L440.096 193.738L441.364 194.167ZM445.168 195.454L446.436 195.884L446.865 194.616L445.597 194.187L445.168 195.454ZM443.451 200.526L442.184 200.096L441.754 201.364L443.022 201.793L443.451 200.526ZM451.058 203.1L452.326 203.529L452.755 202.262L451.487 201.833L451.058 203.1ZM420.159 294.38L418.891 293.951L418.462 295.219L419.73 295.648L420.159 294.38ZM437.908 300.388L437.478 301.656L438.746 302.085L439.175 300.817L437.908 300.388ZM468.807 209.108L469.236 207.841L467.968 207.412L467.539 208.679L468.807 209.108ZM477.82 212.159L477.391 213.427L478.658 213.856L479.087 212.589L477.82 212.159ZM479.328 207.703L479.587 206.39L478.437 206.163L478.06 207.274L479.328 207.703ZM487.424 210.465L486.716 211.601L486.716 211.601L487.424 210.465ZM494.786 220.022L493.601 220.643L494.855 223.038L495.999 220.589L494.786 220.022ZM492.983 198.216L494.11 197.494L494.11 197.494L492.983 198.216ZM485.311 190.028L484.044 189.599L483.752 190.459L484.444 191.048L485.311 190.028ZM486.832 185.536L488.1 185.965L488.529 184.698L487.261 184.268L486.832 185.536ZM477.819 182.485L476.551 182.056L476.122 183.324L477.39 183.753L477.819 182.485ZM462.216 170.138L479.964 176.146L480.823 173.611L463.074 167.603L462.216 170.138ZM461.338 176.906L463.913 169.3L461.377 168.441L458.802 176.048L461.338 176.906ZM452.034 175.17L459.641 177.745L460.499 175.209L452.893 172.635L452.034 175.17ZM452.444 178.135L453.731 174.331L451.196 173.473L449.908 177.276L452.444 178.135ZM446.943 177.686L450.747 178.973L451.605 176.438L447.801 175.15L446.943 177.686ZM448.25 169.65L446.105 175.989L448.64 176.847L450.786 170.508L448.25 169.65ZM431.34 165.339L449.089 171.347L449.947 168.812L432.198 162.803L431.34 165.339ZM422.308 196.195L433.037 164.5L430.501 163.642L419.773 195.336L422.308 196.195ZM439.218 200.506L421.47 194.498L420.611 197.033L438.36 203.041L439.218 200.506ZM440.096 193.738L437.521 201.344L440.057 202.203L442.632 194.596L440.096 193.738ZM445.597 194.187L441.793 192.899L440.935 195.435L444.739 196.722L445.597 194.187ZM444.719 200.955L446.436 195.884L443.9 195.025L442.184 200.096L444.719 200.955ZM451.487 201.833L443.88 199.258L443.022 201.793L450.629 204.368L451.487 201.833ZM421.427 294.809L452.326 203.529L449.79 202.671L418.891 293.951L421.427 294.809ZM438.337 299.12L420.588 293.112L419.73 295.648L437.478 301.656L438.337 299.12ZM467.539 208.679L436.64 299.959L439.175 300.817L470.074 209.538L467.539 208.679ZM478.249 210.892L469.236 207.841L468.377 210.376L477.391 213.427L478.249 210.892ZM478.06 207.274L476.552 211.73L479.087 212.589L480.596 208.133L478.06 207.274ZM488.132 209.329C486.67 208.418 484.721 207.73 483.104 207.256C481.462 206.774 480.046 206.481 479.587 206.39L479.069 209.016C479.484 209.098 480.815 209.374 482.351 209.825C483.913 210.283 485.575 210.889 486.716 211.601L488.132 209.329ZM494.786 220.022C495.972 219.401 495.972 219.401 495.972 219.401C495.972 219.401 495.972 219.401 495.972 219.401C495.971 219.4 495.971 219.4 495.971 219.399C495.97 219.398 495.969 219.396 495.968 219.394C495.966 219.389 495.963 219.383 495.958 219.375C495.95 219.36 495.938 219.337 495.923 219.308C495.892 219.25 495.847 219.167 495.788 219.06C495.672 218.846 495.503 218.541 495.289 218.169C494.862 217.426 494.255 216.411 493.533 215.323C492.136 213.215 490.157 210.591 488.132 209.329L486.716 211.601C488.192 212.521 489.893 214.676 491.302 216.802C491.984 217.83 492.561 218.795 492.968 219.503C493.171 219.856 493.331 220.144 493.439 220.343C493.493 220.442 493.534 220.519 493.562 220.57C493.575 220.595 493.585 220.614 493.592 220.627C493.595 220.633 493.598 220.638 493.599 220.64C493.6 220.642 493.6 220.643 493.601 220.643C493.601 220.643 493.601 220.644 493.601 220.644C493.601 220.644 493.601 220.644 493.601 220.644C493.601 220.643 493.601 220.643 494.786 220.022ZM491.856 198.938C495.119 204.032 495.547 209.16 495.153 213.044C494.956 214.987 494.553 216.609 494.202 217.74C494.026 218.305 493.864 218.745 493.748 219.038C493.69 219.185 493.644 219.295 493.614 219.366C493.598 219.401 493.587 219.426 493.58 219.441C493.577 219.449 493.575 219.454 493.573 219.456C493.573 219.458 493.573 219.458 493.573 219.458C493.573 219.458 493.573 219.458 493.573 219.457C493.573 219.457 493.573 219.457 493.573 219.457C493.574 219.456 493.574 219.456 494.786 220.022C495.999 220.589 495.999 220.588 496 220.588C496 220.587 496 220.587 496 220.586C496.001 220.585 496.001 220.584 496.002 220.583C496.003 220.58 496.005 220.576 496.007 220.572C496.01 220.564 496.015 220.553 496.022 220.54C496.034 220.513 496.05 220.475 496.071 220.427C496.112 220.332 496.17 220.195 496.238 220.02C496.376 219.671 496.561 219.169 496.758 218.535C497.151 217.269 497.598 215.469 497.816 213.314C498.254 209.001 497.781 203.226 494.11 197.494L491.856 198.938ZM484.444 191.048C485.268 191.748 489.737 195.63 491.856 198.938L494.11 197.494C491.742 193.797 486.959 189.672 486.178 189.008L484.444 191.048ZM485.564 185.107L484.044 189.599L486.579 190.457L488.1 185.965L485.564 185.107ZM477.39 183.753L486.403 186.804L487.261 184.268L478.248 181.217L477.39 183.753ZM479.126 174.45L476.551 182.056L479.087 182.914L481.661 175.308L479.126 174.45Z" fill="black" mask="url(#path-11-inside-1_1376_8572)"/>
<rect x="322.741" y="1.33844" width="78.9679" height="76.291" fill="white"/>
<rect x="81.1526" y="78.2987" width="121.798" height="160.613" fill="white" stroke="black" stroke-width="1.33844"/>
<path fill-rule="evenodd" clip-rule="evenodd" d="M52.3567 34.7994L60.2709 43.4215L59.258 51.7002L49.9459 51.5468L42.3608 43.3308L41.6683 55.7935L49.9459 63.4096L61.8733 61.352L92.6013 97.7469L90.1349 107.029L97.0587 116.722L109.522 117.415L101.607 108.793L102.62 100.514L111.932 100.667L118.193 108.412L117.152 94.7974L109.801 88.493L100.551 90.4904L69.4827 53.6928L71.7434 45.185L64.8196 35.4918L52.3567 34.7994Z" fill="white"/>
<path d="M60.2709 43.4215L60.7639 42.969L60.9726 43.1964L60.9351 43.5028L60.2709 43.4215ZM52.3567 34.7994L51.8637 35.2519L50.7512 34.04L52.3938 34.1312L52.3567 34.7994ZM59.258 51.7002L59.9223 51.7815L59.8492 52.3793L59.247 52.3694L59.258 51.7002ZM49.9459 51.5468L49.9348 52.2159L49.6484 52.2112L49.4541 52.0007L49.9459 51.5468ZM42.3608 43.3308L41.6926 43.2936L41.7803 41.7154L42.8525 42.8768L42.3608 43.3308ZM41.6683 55.7935L41.2151 56.286L40.9825 56.072L41.0001 55.7564L41.6683 55.7935ZM49.9459 63.4096L50.0596 64.0691L49.7351 64.1251L49.4927 63.9021L49.9459 63.4096ZM61.8733 61.352L61.7595 60.6925L62.1373 60.6274L62.3846 60.9203L61.8733 61.352ZM92.6013 97.7469L93.1126 97.3152L93.3376 97.5817L93.248 97.9188L92.6013 97.7469ZM90.1349 107.029L89.5903 107.418L89.4072 107.162L89.4881 106.857L90.1349 107.029ZM97.0587 116.722L97.0216 117.39L96.7008 117.373L96.5141 117.111L97.0587 116.722ZM109.522 117.415L110.015 116.962L111.127 118.174L109.484 118.083L109.522 117.415ZM101.607 108.793L101.114 109.245L100.906 109.018L100.943 108.711L101.607 108.793ZM102.62 100.514L101.956 100.433L102.029 99.8348L102.631 99.8447L102.62 100.514ZM111.932 100.667L111.943 99.9981L112.256 100.003L112.453 100.247L111.932 100.667ZM118.193 108.412L118.86 108.361L119.024 110.504L117.672 108.832L118.193 108.412ZM117.152 94.7974L117.588 94.2894L117.798 94.4699L117.819 94.7463L117.152 94.7974ZM109.801 88.493L109.659 87.8388L109.984 87.7687L110.236 87.985L109.801 88.493ZM100.551 90.4904L100.692 91.1446L100.299 91.2295L100.039 90.9221L100.551 90.4904ZM69.4827 53.6928L68.9714 54.1245L68.7464 53.858L68.836 53.521L69.4827 53.6928ZM71.7434 45.185L72.2879 44.7961L72.471 45.0524L72.3901 45.3569L71.7434 45.185ZM64.8196 35.4918L64.8567 34.8236L65.1774 34.8414L65.3642 35.1028L64.8196 35.4918ZM59.7779 43.874L51.8637 35.2519L52.8497 34.3469L60.7639 42.969L59.7779 43.874ZM58.5938 51.619L59.6066 43.3402L60.9351 43.5028L59.9223 51.7815L58.5938 51.619ZM49.9569 50.8776L59.2691 51.0311L59.247 52.3694L49.9348 52.2159L49.9569 50.8776ZM42.8525 42.8768L50.4376 51.0928L49.4541 52.0007L41.8691 43.7847L42.8525 42.8768ZM41.0001 55.7564L41.6926 43.2936L43.029 43.3679L42.3365 55.8307L41.0001 55.7564ZM49.4927 63.9021L41.2151 56.286L42.1214 55.3011L50.399 62.9172L49.4927 63.9021ZM61.9871 62.0115L50.0596 64.0691L49.8321 62.7502L61.7595 60.6925L61.9871 62.0115ZM62.3846 60.9203L93.1126 97.3152L92.0899 98.1786L61.362 61.7837L62.3846 60.9203ZM93.248 97.9188L90.7817 107.201L89.4881 106.857L91.9545 97.5751L93.248 97.9188ZM90.6795 106.64L97.6032 116.333L96.5141 117.111L89.5903 107.418L90.6795 106.64ZM97.0958 116.054L109.559 116.746L109.484 118.083L97.0216 117.39L97.0958 116.054ZM109.029 117.867L101.114 109.245L102.1 108.34L110.015 116.962L109.029 117.867ZM100.943 108.711L101.956 100.433L103.285 100.595L102.272 108.874L100.943 108.711ZM102.631 99.8447L111.943 99.9981L111.921 101.336L102.609 101.183L102.631 99.8447ZM112.453 100.247L118.713 107.991L117.672 108.832L111.412 101.088L112.453 100.247ZM117.526 108.463L116.485 94.8484L117.819 94.7463L118.86 108.361L117.526 108.463ZM116.716 95.3054L109.365 89.001L110.236 87.985L117.588 94.2894L116.716 95.3054ZM109.942 89.1471L100.692 91.1446L100.409 89.8363L109.659 87.8388L109.942 89.1471ZM100.039 90.9221L68.9714 54.1245L69.9941 53.2611L101.062 90.0587L100.039 90.9221ZM72.3901 45.3569L70.1295 53.8647L68.836 53.521L71.0966 45.0132L72.3901 45.3569ZM65.3642 35.1028L72.2879 44.7961L71.1988 45.574L64.275 35.8807L65.3642 35.1028ZM52.3938 34.1312L64.8567 34.8236L64.7825 36.16L52.3196 35.4676L52.3938 34.1312Z" fill="black"/>
<circle r="6.69219" transform="matrix(-1 0 0 1 105.583 103.729)" fill="#AAE2BF" stroke="black" stroke-width="1.33844"/>
<path d="M68.7823 64.3465C64.6233 64.3465 44.287 87.392 44.287 87.392L22.1098 96.9026L29.0401 106.413L40.1288 120L53.9895 111.848C53.9895 111.848 91.0569 95.9996 90.1459 94C89.2349 92.0003 89.0452 92.3454 83.5 91.5C77.9548 90.6546 105.044 77.8586 99.5 76.5C93.9564 75.1413 82.6431 83.316 79.8709 81.9573C77.0988 80.5987 100.5 71.5 98.1986 67.7313C95.8973 63.9626 68.7823 79.24 68.7823 79.24C68.7823 79.24 92.9188 63.4487 90.1459 62.09C87.373 60.7314 61.8519 75.1641 61.8519 75.1641C61.8519 75.1641 72.9413 64.3465 68.7823 64.3465Z" fill="#F4F1EF" stroke="black" stroke-width="1.89045"/>
<path d="M28.3578 90.5022L44.1922 121.252L0.999999 157.594L1 144.07L0.999998 103.5L28.3578 90.5022Z" fill="black"/>
<rect x="1.51514" y="239.581" width="78.9679" height="78.9679" fill="#AAE2BF"/>
<rect x="276.465" y="76.9057" width="83.7117" height="14.7228" transform="rotate(105 276.465 76.9057)" fill="#AAE2BF" stroke="black" stroke-width="1.33844"/>
<path d="M277.962 176.583C280.709 177.121 275.462 194.083 275.462 194.083L269.962 207.583L260.95 229.824L239.839 214.671L235.62 218.952L238 172.5L244.172 196.807C244.172 196.807 249.326 182.022 249.962 176.583C250.599 171.145 253.829 151.924 256.462 151.583C259.095 151.243 256.462 181.583 256.462 181.583C256.462 181.583 260.49 145.29 263.462 147.583C266.435 149.877 264.611 185.583 264.611 185.583C264.611 185.583 267.159 160.607 269.962 161.583C272.765 162.56 271.747 189.442 271.747 189.442C271.747 189.442 275.216 176.046 277.962 176.583Z" fill="#F4F1EF" stroke="black" stroke-width="1.33844"/>
<path d="M232.5 213C232.5 213 197.522 285.529 177.55 318.368L232.5 318.368L268.5 221L232.5 213Z" fill="black" stroke="black" stroke-width="1.33844"/>
<rect x="402.378" y="238.911" width="78.9679" height="80.3063" fill="#F4F1EF" stroke="black" stroke-width="1.33844"/>
<rect x="292.626" y="67.5912" width="91.0138" height="14.7228" transform="rotate(90 292.626 67.5912)" fill="#AAE2BF" stroke="black" stroke-width="1.33844"/>
<rect x="307.349" y="67.5912" width="91.0138" height="14.7228" transform="rotate(90 307.349 67.5912)" fill="#AAE2BF" stroke="black" stroke-width="1.33844"/>
<path d="M162.128 1.33844L241.096 77.6295" stroke="black" stroke-width="1.33844"/>
<rect x="322.072" y="67.5912" width="91.0138" height="14.7228" transform="rotate(90 322.072 67.5912)" fill="#AAE2BF" stroke="black" stroke-width="1.33844"/>
<path d="M322 239L402 319" stroke="black" stroke-width="1.33844"/>
<path d="M402 239L322 319" stroke="black" stroke-width="1.33844"/>
<path d="M160.79 239.581L80.4832 319.887" stroke="black" stroke-width="1.33844"/>
<rect x="97.8828" y="127.362" width="87.4625" height="1.33844" fill="black"/>
<rect x="97.8828" y="147.528" width="87.4625" height="1.33844" fill="black"/>
<rect x="97.8828" y="167.695" width="87.4625" height="1.33844" fill="black"/>
<rect x="97.8828" y="187.861" width="62.1444" height="1.33844" fill="black"/>
<rect x="151.69" y="215.751" width="30.9707" height="1.33844" fill="black"/>
<rect x="160.981" y="207.727" width="21.6795" height="1.33844" fill="black"/>
<path d="M170.563 96.1038L166.143 98.7934L170.563 102.021" stroke="black" stroke-width="1.33844" stroke-linecap="square"/>
<path d="M180.385 96.1038L184.806 98.7934L180.385 102.021" stroke="black" stroke-width="1.33844" stroke-linecap="square"/>
<path d="M177.93 95.0292L173.019 102.56" stroke="black" stroke-width="1.33844" stroke-linecap="square"/>
<mask id="mask0_1376_8572" style="mask-type:alpha" maskUnits="userSpaceOnUse" x="402" y="34" width="65" height="45">
<rect x="402" y="34" width="64.2205" height="44.0463" fill="#C4C4C4"/>
</mask>
<g mask="url(#mask0_1376_8572)">
<path d="M419.788 94.504C415.252 94.504 411.164 93.664 407.524 91.984C403.94 90.248 400.832 87.924 398.2 85.012C395.624 82.044 393.636 78.74 392.236 75.1C390.892 71.404 390.22 67.596 390.22 63.676C390.22 59.98 390.864 56.368 392.152 52.84C393.44 49.312 395.344 46.148 397.864 43.348C400.44 40.492 403.576 38.224 407.272 36.544C411.024 34.864 415.364 34.024 420.292 34.024C425.948 34.024 430.848 35.228 434.992 37.636C439.136 40.044 442.216 43.18 444.232 47.044L433.648 54.436C432.752 52.364 431.548 50.74 430.036 49.564C428.524 48.332 426.872 47.492 425.08 47.044C423.344 46.54 421.636 46.288 419.956 46.288C415.924 46.288 412.648 47.408 410.128 49.648C407.664 51.888 406.04 54.688 405.256 58.048H424.912V69.052H404.92C405.256 71.572 406.124 73.84 407.524 75.856C408.98 77.816 410.772 79.384 412.9 80.56C415.084 81.68 417.492 82.24 420.124 82.24C421.804 82.24 423.54 81.988 425.332 81.484C427.124 80.924 428.748 80.028 430.204 78.796C431.716 77.564 432.892 75.968 433.732 74.008L444.988 80.644C443.756 83.612 441.796 86.132 439.108 88.204C436.42 90.22 433.34 91.788 429.868 92.908C426.452 93.972 423.092 94.504 419.788 94.504Z" fill="black"/>
</g>
</svg>
