<svg width="99" height="23" viewBox="0 0 99 23" fill="none" xmlns="http://www.w3.org/2000/svg">
<path d="M71.9085 15.6609C70.4291 18.0115 67.8813 19.4251 65.087 19.4251C60.6489 19.4251 57.0326 15.8089 57.0326 11.3708C57.0326 6.93267 60.6489 3.31644 65.087 3.31644C67.8484 3.31644 70.3798 4.71362 71.8756 7.03129L72.0729 7.3436L74.6042 5.74917L74.407 5.43686C72.3687 2.23157 68.884 0.324829 65.087 0.324829C58.9887 0.324829 54.041 5.28893 54.041 11.3708C54.041 17.4526 59.0051 22.4167 65.087 22.4167C68.9004 22.4167 72.4016 20.4935 74.4398 17.2554L74.6371 16.943L72.1057 15.3486L71.9085 15.6609Z" fill="black"/>
<path d="M3.41494 0.324829H0.374023V22.4167H15.2499V19.3593H3.41494V0.324829Z" fill="black"/>
<path d="M28.3354 0.308228L18.6538 22.433H22.007L29.4696 5.40383L36.9486 22.433H40.2854L30.5709 0.308228H28.3354Z" fill="black"/>
<path d="M53.5499 0.324829H36.8823V3.38219H43.6874V22.4167H46.7283V3.38219H53.5499V0.324829Z" fill="black"/>
<path d="M92.2606 9.84209H80.4914V0.324829H77.4341V22.4167H80.4914V12.8994H92.2606V22.4331H95.318V0.324829H92.2606V9.84209Z" fill="black"/>
<path d="M97.9652 1.34395C98.0639 1.34395 98.1132 1.32751 98.1625 1.31107L98.2611 1.1467L98.1625 0.982323C98.1132 0.965886 98.0639 0.949451 97.9652 0.949451H97.6858V1.32751H97.9652V1.34395ZM97.6858 1.95213H97.5379V0.834388H97.9981C98.146 0.834388 98.2282 0.867261 98.294 0.900136C98.3762 0.965886 98.409 1.04807 98.409 1.1467C98.409 1.34395 98.2611 1.44257 98.1132 1.47545L98.4419 1.95213H98.2611L97.9159 1.49188H97.6858V1.95213ZM97.9324 0.456329C97.4228 0.456329 97.0283 0.883699 97.0283 1.39326C97.0283 1.90282 97.4228 2.33019 97.9324 2.33019C98.4584 2.33019 98.8529 1.90282 98.8529 1.39326C98.8529 0.867261 98.4584 0.456329 97.9324 0.456329ZM97.9324 2.46169C97.3406 2.46169 96.8804 2.00144 96.8804 1.39326C96.8804 0.785074 97.3406 0.324829 97.9324 0.324829C98.5405 0.324829 99.0008 0.785074 99.0008 1.39326C99.0008 1.98501 98.5405 2.46169 97.9324 2.46169Z" fill="black"/>
</svg>
