<svg width="150" height="64" viewBox="0 0 150 64" fill="none" xmlns="http://www.w3.org/2000/svg">
<path d="M62.8815 6.5889C63.0928 7.96464 63.479 9.28787 64.1214 10.5253C64.4269 11.1138 64.8195 11.6455 65.4203 11.981C65.4433 11.9901 65.4664 11.9984 65.4888 12.0073C65.4805 11.9837 65.4728 11.9606 65.4645 11.9369C65.0552 11.096 64.6268 10.2633 64.3955 9.34872C64.2982 8.96443 64.2373 8.57758 64.2816 8.18112C64.2944 8.06648 64.3238 7.95119 64.3629 7.84231C64.3987 7.74175 64.459 7.63416 64.5723 7.62007C64.719 7.60213 64.7196 7.75136 64.7587 7.83911C65.1077 8.62625 65.4171 9.43073 65.8142 10.1968C66.1639 10.8704 66.602 11.4783 67.1752 12.0048C67.0542 11.5616 66.928 11.1197 66.8133 10.6752C66.7231 10.3254 66.6206 9.97511 66.6462 9.60748C66.6551 9.48127 66.6699 9.35192 66.7057 9.2315C66.7711 9.0131 66.8754 8.74795 67.106 8.74603C67.293 8.74475 67.3085 9.03296 67.3667 9.20525C67.7433 10.3229 68.0527 11.4655 68.6201 12.5114C68.8783 12.9866 69.1466 13.4535 69.5437 13.9313C69.5629 13.7251 69.5713 13.5842 69.5898 13.4446C69.6129 13.2658 69.6327 13.0852 69.675 12.9104C69.7128 12.7535 69.7877 12.5684 69.9594 12.5614C70.1188 12.555 70.124 12.7605 70.1611 12.879C70.6536 14.4572 71.4113 15.9027 72.3496 17.258C72.4457 17.3969 72.5559 17.5257 72.6545 17.6525C72.7653 17.6442 72.7403 17.5577 72.7697 17.5129C72.8217 17.4328 72.8556 17.331 72.9722 17.3368C73.0753 17.3419 73.0996 17.4412 73.1355 17.5142C73.4846 18.2225 73.7081 18.9776 73.9579 19.7238C74.339 20.8632 74.5785 22.0462 75.0262 23.1651C75.488 24.3193 76.1131 25.3792 76.8682 26.3643C76.9374 26.4546 77.0065 26.5449 77.1109 26.6814C76.5941 26.6487 76.1348 26.657 75.7249 27.0381C76.2418 27.0253 76.466 27.3269 76.6408 27.7009C76.7689 27.9744 76.8298 28.3018 77.1961 28.426C76.7305 28.7053 76.2495 28.9396 75.9344 29.5378C76.5825 29.2112 76.9873 29.6903 77.5183 29.8011C77.0296 30.1905 76.4903 30.505 76.4327 31.2594C76.7024 31.0212 76.9547 30.9603 77.2851 31.0443C76.8727 31.3619 76.7689 31.907 76.2361 32.1197C76.6921 32.3604 77.0841 32.3579 77.4613 32.0722C77.6297 31.9448 77.8001 31.8256 78.0365 31.777C77.982 32.1138 77.918 32.4271 78.0966 32.7243C78.2087 32.91 78.2875 32.9907 78.4252 32.73C78.7167 32.1792 79.1777 31.8532 79.7933 31.7674C79.8305 31.8135 79.8221 31.8346 79.7926 31.8564C79.0529 32.4072 78.8044 33.1412 79.0138 34.0251C79.2232 34.9108 79.612 35.7063 80.2755 36.35C80.5708 36.6369 80.9192 36.8349 81.3105 36.9712C80.5305 37.8775 78.8229 38.4693 77.5388 37.982C77.5273 38.3284 77.8321 38.4168 78.0338 38.616C77.4331 38.8421 76.8465 38.794 76.2661 38.6474C75.7621 38.5199 75.2735 38.3265 74.7675 38.2087C74.3665 38.1158 73.9508 38.101 73.6914 38.5609C73.5441 38.3823 73.5729 38.2016 73.6133 38.0184C73.6152 37.9916 73.6172 37.9647 73.6191 37.9377C73.596 37.948 73.5723 37.9583 73.5492 37.9685C72.3714 38.7031 71.3472 38.1126 70.3078 37.5778C70.7683 37.3331 71.2627 37.1224 71.5388 36.5908C69.8005 37.157 69.3195 37.1602 68.7847 36.5921C69.7352 36.635 70.377 36.0848 71.102 35.4789C70.5435 35.5186 70.0747 35.5417 69.6032 35.4944C68.5241 35.3855 67.6191 34.6169 67.359 33.5575C67.3449 33.4992 67.3097 33.4358 67.3635 33.3769L67.359 33.384C68.1968 34.0449 69.073 34.0513 70.0163 33.5998C70.9271 33.1636 71.8821 32.8267 72.8332 32.4853C72.9505 32.4431 73.0855 32.4328 73.1944 32.3124C72.9498 32.2144 72.7108 32.128 72.4803 32.0229C72.2484 31.9172 72.0172 31.8147 71.9551 31.5144C71.9269 31.3792 71.7796 31.3126 71.6483 31.2557C71.3089 31.1077 71.002 30.9239 70.9131 30.5216C70.9022 30.4736 70.867 30.4096 70.8266 30.3936C70.1656 30.122 69.8973 29.3931 69.2676 29.0729C68.9724 28.923 68.615 28.6688 68.6477 28.3139C68.7207 27.5287 68.1705 27.1136 67.7734 26.6C67.4705 26.208 67.2136 25.7994 67.1503 25.2928C67.1368 25.1845 67.1156 25.0719 67.1649 24.9796C67.3302 24.6677 67.2072 24.4032 67.0388 24.152C66.8306 23.8408 66.7064 23.5289 66.9414 23.1798C66.9998 23.0934 66.9376 23.0389 66.9062 22.9781C66.7999 22.7699 66.6884 22.5644 66.5795 22.3575C66.5085 22.2224 66.4348 22.0584 66.511 21.9309C66.6878 21.6363 66.511 21.4281 66.3836 21.204C66.2523 20.9734 66.0813 20.7582 66.2625 20.4706C66.3292 20.3656 66.2145 20.2951 66.1505 20.2343C65.9186 20.0146 65.6797 19.8026 65.4421 19.5893C65.2346 19.4036 65.0533 19.1961 64.906 18.9591C64.8375 18.8483 64.7485 18.7093 64.8074 18.6023C64.9828 18.2847 64.7248 18.1892 64.5627 18.0285C64.3033 17.7716 63.8985 17.5994 64.0112 17.1094C64.0202 17.0709 63.9005 16.9935 63.8313 16.9473C63.4117 16.6694 63.0178 16.3626 62.7278 15.9431C62.6061 15.7676 62.5324 15.5927 62.5337 15.357C62.5356 14.9842 62.2717 14.7166 62.0207 14.4687C61.3744 13.8302 60.8633 13.1064 60.5982 12.2303C60.5123 11.9478 60.413 11.6602 60.4925 11.3553C60.5418 11.1651 60.6238 11.1234 60.766 11.29C61.0555 11.6307 61.3424 11.9753 61.7126 12.2353C61.7709 12.2764 61.8176 12.341 61.9406 12.3301C61.7606 11.9728 61.578 11.6326 61.4147 11.2836C61.0727 10.5516 60.8306 9.7977 60.9562 8.97212C60.9638 8.9196 60.9677 8.86515 60.9843 8.81583C61.0388 8.65636 61.0727 8.43347 61.2668 8.43539C61.425 8.43667 61.4051 8.66148 61.4499 8.78829C61.7453 9.6344 62.0629 10.4683 62.6528 11.1645C62.8776 11.4296 63.1261 11.6711 63.4925 11.8529C63.2881 11.3816 63.0954 10.9627 62.9244 10.5349C62.5375 9.57031 62.2608 8.58142 62.3043 7.52783C62.3191 7.16917 62.3819 6.82844 62.688 6.58826C62.7534 6.5889 62.8174 6.5889 62.8815 6.5889Z" fill="black"/>
<path d="M123.294 54.8053C123.045 55.2416 122.854 55.7091 122.578 56.1318C122.488 56.2702 122.41 56.3271 122.225 56.3086C121.822 56.2689 121.419 56.3387 121.016 56.3752C119.989 56.468 118.989 56.4085 118.127 55.752C116.591 54.5844 116.434 52.0994 117.797 50.6718C118.917 49.4997 120.42 49.1877 121.912 49.8244C122.215 49.9538 122.498 50.1286 122.836 49.8942C122.917 49.8378 123.061 49.8545 123.061 50.0467C123.063 50.4611 123.089 50.8755 123.1 51.2904C123.101 51.3532 123.145 51.4493 123.032 51.471C122.932 51.4897 122.846 51.4749 122.793 51.368C122.736 51.2539 122.67 51.1463 122.606 51.0362C121.727 49.5195 119.491 49.3357 118.551 51.1477C117.979 52.2486 117.892 53.4053 118.337 54.5658C118.887 56.0012 120.344 56.504 121.719 55.7706C122.167 55.5316 122.548 55.2108 122.864 54.8176C122.981 54.6722 123.105 54.587 123.294 54.6126C123.294 54.6772 123.294 54.7413 123.294 54.8053Z" fill="black"/>
<path d="M85.0549 18.2917C85.1048 18.4377 85.0791 18.5677 85.2015 18.6638C85.2739 18.3506 85.3302 18.0444 85.418 17.7472C85.5058 17.4507 85.6357 17.1695 85.8913 16.9627C86.0123 17.0344 85.9477 17.2144 86.1001 17.2848C86.127 16.9325 86.1577 16.5873 86.2666 16.2587C86.3198 16.0987 86.3928 15.9431 86.4741 15.7945C86.5452 15.6651 86.6342 15.4908 86.7835 15.5024C86.9327 15.5139 86.845 15.7195 86.9084 15.8239C86.9513 15.8943 86.9507 15.9924 87.0614 16.0436C87.2517 15.3666 87.3298 14.6223 88.115 14.1926C88.0138 14.6647 87.9934 15.0643 88.0529 15.5068C88.2163 15.2205 88.2515 14.9259 88.343 14.6538C88.4551 14.32 88.5672 13.9889 88.7485 13.6854C88.842 13.5284 88.9579 13.39 89.1045 13.2793C89.2102 13.1993 89.3435 13.123 89.4575 13.1947C89.6022 13.2863 89.453 13.4067 89.421 13.5009C89.1744 14.217 89.0149 14.9503 88.9739 15.7157C89.0873 15.3903 89.1968 15.063 89.3153 14.7389C89.4216 14.4494 89.5376 14.1619 89.7444 13.9249C89.8238 13.8333 89.9237 13.7514 90.0486 13.8076C90.1973 13.8743 90.0884 14.0011 90.071 14.0857C89.7924 15.4505 89.4594 16.8026 89.102 18.1495C88.767 19.4138 88.0273 20.427 87.2318 21.4191C85.8785 23.1062 84.4144 24.7003 83.0431 26.372C82.7652 26.7108 82.5576 27.0963 82.3444 27.4767C82.1266 27.8662 82.2175 28.2831 82.3027 28.7642C81.4438 28.0986 80.4408 28.1217 79.5127 27.8892C79.0004 27.7611 78.5361 27.5383 78.0993 27.2475C77.9571 27.1533 77.911 27.0502 77.9507 26.8747C78.0301 26.5218 78.0621 26.1484 78.2459 25.8359C78.4515 25.4868 78.759 25.2005 78.9108 24.8123C78.9216 24.7849 78.9517 24.7509 78.9773 24.7464C79.3712 24.6721 79.4462 24.2584 79.7004 24.0688C80.0296 23.8235 80.3345 23.5833 80.5484 23.233C80.5676 23.201 80.6221 23.1683 80.6566 23.1715C81.0704 23.2124 81.1754 22.8781 81.3407 22.6174C81.4765 22.4029 81.6257 22.2101 81.9222 22.2569C82.0549 22.278 82.115 22.187 82.1727 22.098C82.2937 21.9098 82.4033 21.7144 82.5294 21.5306C82.6563 21.3461 82.7862 21.1616 83.0565 21.1757C83.1949 21.1828 83.2577 21.0586 83.3102 20.9599C83.4402 20.7165 83.5574 20.4667 83.674 20.2163C83.7765 19.9953 83.9058 19.7994 84.1678 19.766C84.326 19.7455 84.301 19.6302 84.3304 19.5348C84.4688 19.0781 84.6039 18.6177 85.0549 18.2917Z" fill="black"/>
<path d="M71.032 51.9155C71.8398 52.3722 72.1293 53.1485 72.534 53.8376C72.8081 54.3045 73.0624 54.7836 73.4018 55.2083C73.8124 55.7206 74.335 56.0364 75.0017 56.0825C75.0965 56.0889 75.1933 56.0633 75.1914 56.2189C75.1894 56.3662 75.1209 56.3855 74.9941 56.3912C74.5247 56.4123 74.0558 56.4117 73.594 56.3182C72.8389 56.1651 72.24 55.7763 71.8371 55.1071C71.4535 54.4704 71.066 53.8363 70.6849 53.1978C70.3442 52.6264 69.9074 52.2595 69.1792 52.3626C68.8448 52.4099 68.4964 52.3907 68.1576 52.3619C67.9361 52.3434 67.9155 52.4273 67.9181 52.6085C67.9265 53.333 67.92 54.0573 67.9219 54.7817C67.9238 55.6643 68.1698 55.9115 69.0498 55.9615C69.185 55.9691 69.4431 55.8237 69.4456 56.096C69.4481 56.4027 69.1696 56.2497 69.0268 56.2515C67.8438 56.265 66.6602 56.2606 65.4766 56.2573C65.3633 56.2573 65.2025 56.3182 65.2005 56.1004C65.1986 55.8654 65.3747 55.9762 65.4772 55.9576C65.6335 55.9287 65.7937 55.9243 65.9505 55.898C66.315 55.8378 66.5225 55.6405 66.5942 55.2864C66.6365 55.0782 66.6589 54.8681 66.6589 54.6536C66.6557 52.6079 66.657 50.5629 66.657 48.5172C66.657 48.4742 66.6577 48.432 66.657 48.3891C66.6378 47.5609 66.3892 47.3073 65.5669 47.2778C65.5028 47.2753 65.4388 47.2739 65.3747 47.2778C65.2588 47.2855 65.1967 47.2509 65.1993 47.1184C65.2018 46.9922 65.255 46.9531 65.3741 46.9518C66.8844 46.9364 68.3921 46.7225 69.9036 46.882C70.7253 46.9684 71.5195 47.1677 72.1715 47.7185C73.3833 48.742 73.2136 50.6564 71.8378 51.5396C71.6124 51.6863 71.3747 51.8016 71.032 51.9155ZM67.9213 49.6143C67.9213 50.3483 67.9258 51.0822 67.9181 51.8163C67.9162 51.9918 67.9635 52.0622 68.15 52.0596C68.6496 52.0526 69.1478 52.0744 69.6454 51.995C70.6292 51.8387 71.271 51.2366 71.4785 50.2657C71.5599 49.8852 71.5579 49.5015 71.5156 49.1236C71.4254 48.3122 71.0219 47.7075 70.2417 47.4059C69.5648 47.1446 68.8532 47.1312 68.1391 47.16C67.9713 47.1664 67.913 47.2349 67.9162 47.413C67.9283 48.1463 67.9213 48.8804 67.9213 49.6143Z" fill="black"/>
<path d="M30.6565 46.9839C31.6799 46.9839 32.7041 46.989 33.7275 46.9794C33.919 46.9775 33.9876 47.0185 33.9792 47.2234C33.962 47.6596 33.9748 48.0971 33.9735 48.5339C33.9728 48.6337 34.01 48.7516 33.8319 48.7529C33.6737 48.7542 33.7077 48.6543 33.6962 48.562C33.5994 47.8127 33.3375 47.561 32.5382 47.5405C31.6428 47.5167 30.7468 47.5391 29.8507 47.5309C29.681 47.5289 29.6644 47.5994 29.665 47.7384C29.6695 48.7612 29.672 49.784 29.6631 50.8069C29.6618 50.9837 29.7233 51.0163 29.8815 51.0151C30.7666 51.0087 31.6518 51.017 32.5369 51.0099C33.073 51.0054 33.2971 50.812 33.4246 50.2817C33.4489 50.1806 33.4041 50.0281 33.6001 50.0524C33.8025 50.0774 33.7128 50.2318 33.7141 50.3252C33.7218 51.0394 33.7205 51.7529 33.7154 52.4671C33.7147 52.5548 33.7807 52.6886 33.593 52.6982C33.4182 52.7072 33.4547 52.5957 33.4393 52.492C33.3349 51.7971 33.1159 51.5876 32.3813 51.5684C31.5397 51.546 30.6962 51.5678 29.8539 51.5595C29.6887 51.5575 29.6644 51.6203 29.665 51.7638C29.6701 52.8507 29.6605 53.9375 29.6708 55.0244C29.6759 55.5932 29.8917 55.8174 30.4643 55.9077C30.5796 55.9256 30.6968 55.9551 30.8121 55.9506C30.9696 55.9441 30.9427 56.0422 30.9492 56.137C30.9581 56.2606 30.8896 56.2721 30.7916 56.2721C29.6823 56.2702 28.5736 56.2708 27.4643 56.2715C27.3695 56.2715 27.2978 56.2612 27.3016 56.137C27.3048 56.0364 27.3042 55.9704 27.4361 55.9359C28.3437 55.697 28.3911 55.6285 28.3911 54.6767C28.3911 52.6092 28.3911 50.5423 28.3911 48.475C28.3911 48.3789 28.3924 48.2828 28.3866 48.1873C28.3533 47.611 28.1208 47.3688 27.5425 47.3112C27.4131 47.2984 27.2831 47.3156 27.2952 47.1139C27.308 46.9012 27.4611 46.9884 27.5533 46.9877C28.5877 46.982 29.6221 46.9839 30.6565 46.9839Z" fill="black"/>
<path d="M44.536 53.2803C45.0023 53.7569 45.2092 54.3461 45.4935 54.89C45.6114 55.1154 45.7325 55.3414 45.8784 55.549C46.0463 55.7878 46.2686 55.9723 46.5695 56.0261C46.6995 56.0492 46.7515 56.1145 46.7387 56.2458C46.7232 56.4008 46.6061 56.3566 46.5209 56.3579C45.6562 56.3694 45.0087 55.9608 44.5424 55.2697C44.2222 54.7951 43.9429 54.2904 43.6797 53.7819C43.5478 53.5269 43.3921 53.4431 43.1104 53.4552C42.5512 53.4796 42.5467 53.4623 42.5519 54.0253C42.5563 54.4934 42.5256 54.9617 42.5845 55.4292C42.6306 55.7955 42.7702 55.9378 43.1346 55.957C43.2622 55.9634 43.3908 55.9602 43.5184 55.9602C43.6266 55.9602 43.7323 55.9442 43.7335 56.1126C43.7348 56.2753 43.6394 56.2734 43.5253 56.2727C43.088 56.2708 42.6512 56.2721 42.2137 56.2721C41.6699 56.2721 41.1255 56.2714 40.5817 56.2721C40.4728 56.2721 40.3684 56.2862 40.3672 56.119C40.3659 55.9563 40.4626 55.9576 40.576 55.9595C40.672 55.9615 40.7687 55.9652 40.8636 55.9538C41.2479 55.9063 41.4406 55.7104 41.4425 55.3209C41.4489 53.7755 41.4489 52.2307 41.4425 50.6851C41.4413 50.2958 41.3055 50.2086 40.7751 50.1376C40.6374 50.119 40.3883 50.2599 40.3774 49.9813C40.3665 49.6899 40.6362 49.8193 40.7643 49.8065C41.971 49.686 43.1827 49.5375 44.3856 49.8237C45.0555 49.9832 45.6223 50.3099 45.8432 51.0176C46.1199 51.9046 45.7535 52.7078 44.9114 53.112C44.7986 53.167 44.6815 53.2157 44.536 53.2803ZM42.5499 51.5818C42.5499 51.8477 42.5499 52.1135 42.5499 52.3793C42.5499 53.1709 42.5499 53.1709 43.3537 53.1228C44.2164 53.0709 44.6584 52.6757 44.764 51.8624C44.8736 51.0182 44.5008 50.3547 43.779 50.1081C43.4497 49.996 43.1136 50.0056 42.7722 50.0216C42.5793 50.0307 42.5441 50.1068 42.5473 50.2746C42.5551 50.7102 42.5499 51.1463 42.5499 51.5818Z" fill="black"/>
<path d="M102.173 52.5337C102.288 52.6618 102.45 52.6483 102.586 52.6912C103.589 53.0076 104.095 53.6365 104.023 54.4941C103.949 55.3709 103.2 56.1063 102.235 56.2055C100.864 56.347 99.487 56.244 98.1125 56.2728C98.0202 56.2747 97.9415 56.2741 97.9504 56.144C97.9568 56.0493 97.9337 55.9596 98.0817 55.9455C98.2495 55.9294 98.4167 55.8892 98.58 55.8443C99.004 55.7277 99.1622 55.5567 99.1654 55.1257C99.1763 53.634 99.1712 52.1417 99.1718 50.65C99.1718 50.3804 99.0168 50.244 98.7676 50.2004C98.621 50.1748 98.473 50.1556 98.3244 50.1428C98.2386 50.1357 98.1797 50.1191 98.1887 50.0159C98.1958 49.9327 98.1759 49.8373 98.3033 49.8276C99.69 49.7239 101.08 49.4773 102.456 49.8924C102.913 50.03 103.324 50.2625 103.498 50.7532C103.687 51.2905 103.487 51.8298 102.992 52.1724C102.743 52.3435 102.461 52.4332 102.173 52.5337ZM100.275 54.0696C100.275 54.3033 100.279 54.5377 100.275 54.7715C100.256 55.8116 100.418 55.9853 101.553 55.8866C102.301 55.8219 102.756 55.3409 102.851 54.5896C102.95 53.8146 102.6 53.1959 101.91 52.9365C101.444 52.7611 100.955 52.7521 100.465 52.7611C100.312 52.7643 100.27 52.8405 100.273 52.9846C100.28 53.3465 100.275 53.7083 100.275 54.0696ZM100.275 51.295C100.305 51.6204 100.227 52.0232 100.312 52.4209C100.694 52.46 101.074 52.4504 101.451 52.3768C102.062 52.2583 102.424 51.8188 102.431 51.1893C102.438 50.584 102.115 50.2088 101.485 50.0614C101.138 49.9807 100.79 50.0076 100.441 50.0025C100.284 49.9999 100.273 50.0807 100.274 50.2017C100.279 50.5411 100.275 50.8812 100.275 51.295Z" fill="black"/>
<path d="M95.596 52.4549C95.596 51.8797 95.6049 51.3046 95.5935 50.7294C95.5832 50.2433 95.4673 50.1286 94.9766 50.0569C94.8505 50.0383 94.7236 50.0166 94.5969 50.012C94.4925 50.0082 94.4405 49.9807 94.4464 49.8647C94.4514 49.7622 94.4829 49.7033 94.5943 49.7053C94.7435 49.7072 94.8928 49.7053 95.0419 49.7053C95.66 49.7053 96.2787 49.7033 96.8968 49.7072C97.0114 49.7078 97.1677 49.6502 97.1703 49.8673C97.1729 50.0774 97.0204 50.0038 96.9224 50.0076C96.2659 50.0312 96.093 50.2042 96.0924 50.8543C96.0917 51.8233 96.0897 52.793 96.0936 53.7621C96.0949 54.0618 96.068 54.359 96.0078 54.6498C95.8003 55.6483 95.2097 56.2086 94.1402 56.3816C93.3658 56.5065 92.5921 56.4764 91.8569 56.1549C91.1248 55.8346 90.6944 55.2998 90.6445 54.4742C90.5714 53.2612 90.6265 52.0475 90.6098 50.8344C90.6009 50.2029 90.5535 50.1536 89.92 50.0351C89.7874 50.0102 89.5178 50.1318 89.5312 49.8615C89.5454 49.5638 89.8131 49.7155 89.9585 49.7129C90.8321 49.6982 91.7063 49.7033 92.5806 49.7078C92.6895 49.7085 92.8458 49.6355 92.8566 49.859C92.8662 50.0665 92.7138 49.9979 92.6184 50.0204C92.4942 50.0492 92.3641 50.0524 92.2405 50.0832C91.9824 50.1478 91.7672 50.3029 91.7588 50.5731C91.7179 51.8918 91.6481 53.2157 91.7889 54.5287C91.9036 55.5996 92.7478 55.9525 93.8187 55.8795C94.2452 55.8506 94.6571 55.7398 95.0049 55.4677C95.3917 55.1647 95.5691 54.7516 95.5825 54.2751C95.5992 53.6685 95.5864 53.0614 95.5864 52.4542C95.5896 52.4549 95.5928 52.4549 95.596 52.4549Z" fill="black"/>
<path d="M84.7044 56.2722C84.2036 56.2722 83.7021 56.2716 83.2013 56.2728C83.0802 56.2734 82.9688 56.2889 82.9764 56.1012C82.9835 55.9218 83.102 55.9654 83.2 55.9615C83.9167 55.9314 84.0633 55.7777 84.064 55.0502C84.064 53.6763 84.064 52.3019 84.064 50.928C84.064 50.2741 83.8693 50.096 83.2096 50.1453C83.1776 50.1479 83.1462 50.1549 83.1141 50.1563C83.0341 50.1595 82.9387 50.1978 82.9278 50.0576C82.9188 49.9436 82.9476 49.8757 83.0725 49.8617C83.4529 49.8181 83.8315 49.7547 84.2126 49.7284C85.051 49.6701 85.8912 49.6119 86.7283 49.7553C87.8025 49.9391 88.4019 50.5629 88.4359 51.5371C88.4686 52.4811 87.8191 53.285 86.8276 53.522C86.3312 53.6405 85.8323 53.6232 85.3437 53.4893C85.1637 53.44 85.1503 53.4989 85.1515 53.6462C85.1567 54.1682 85.1503 54.6902 85.1547 55.2122C85.1585 55.7291 85.2592 55.8469 85.7645 55.925C85.9214 55.9494 86.0828 55.9545 86.2417 55.9558C86.3678 55.9571 86.4376 55.982 86.4331 56.1332C86.4287 56.283 86.339 56.2722 86.241 56.2722C85.728 56.2715 85.2162 56.2722 84.7044 56.2722ZM85.1528 51.5833C85.1528 51.8817 85.1528 52.1802 85.1528 52.4786C85.1528 53.2165 85.2111 53.2715 85.9739 53.251C86.0373 53.2491 86.1013 53.2453 86.1641 53.235C86.7886 53.1345 87.1998 52.6483 87.2651 51.9336C87.3509 51.0036 87.048 50.3753 86.4024 50.1268C86.054 49.993 85.6953 50.0032 85.3321 50.0172C85.1688 50.0236 85.1483 50.1037 85.1503 50.2401C85.1573 50.6885 85.1528 51.1355 85.1528 51.5833Z" fill="black"/>
<path d="M78.389 56.272C77.5788 56.272 76.768 56.2732 75.9577 56.2707C75.8419 56.27 75.6869 56.3245 75.6951 56.1042C75.7029 55.9024 75.8476 55.9658 75.9501 55.9626C76.5963 55.9421 76.768 55.7737 76.7686 55.1409C76.7699 53.7344 76.7699 52.3279 76.7686 50.9214C76.768 50.2534 76.6277 50.108 75.9545 50.0593C75.8508 50.0517 75.7022 50.1074 75.6978 49.9127C75.6926 49.6878 75.8617 49.7609 75.9705 49.7602C77.5058 49.7564 79.0417 49.7622 80.5769 49.7526C80.7909 49.7513 80.8562 49.8159 80.8535 50.0222C80.8498 50.3514 80.8722 50.6812 80.8824 51.0105C80.8856 51.1052 80.9061 51.2064 80.7524 51.2103C80.6332 51.2128 80.5737 51.1648 80.5564 51.0514C80.5468 50.9887 80.5379 50.9253 80.5212 50.8638C80.3617 50.2784 80.1792 50.1355 79.5765 50.1323C79.0756 50.1298 78.5741 50.1375 78.0733 50.1285C77.9138 50.1253 77.8517 50.1586 77.8542 50.3354C77.8645 51.0809 77.8631 51.827 77.8549 52.5725C77.853 52.7307 77.9055 52.7679 78.0547 52.7654C78.5453 52.757 79.0359 52.7634 79.5258 52.7622C80.0203 52.7609 80.1107 52.6873 80.2086 52.2024C80.2349 52.0736 80.2035 51.9084 80.427 51.9423C80.6467 51.9756 80.5379 52.1441 80.5404 52.2434C80.5532 52.7545 80.548 53.2662 80.5448 53.7773C80.5443 53.8728 80.5916 53.9931 80.4078 53.997C80.2329 54.0009 80.2336 53.9093 80.2227 53.7805C80.1779 53.247 80.0607 53.1413 79.5253 53.1381C79.0346 53.1349 78.544 53.1433 78.054 53.1342C77.9029 53.1317 77.8535 53.1721 77.8555 53.3283C77.8638 54.0315 77.8517 54.7348 77.8626 55.438C77.8677 55.7999 77.9663 55.8858 78.3282 55.8896C78.7759 55.8947 79.2236 55.8915 79.6719 55.8903C80.3066 55.8883 80.5814 55.6981 80.7973 55.1082C80.8407 54.9891 80.8766 54.8667 80.9163 54.7457C80.9599 54.6125 81.0707 54.6573 81.1578 54.6612C81.2738 54.6663 81.2455 54.7592 81.2391 54.8297C81.1994 55.2633 81.1546 55.6969 81.1168 56.1305C81.1001 56.3213 80.958 56.2675 80.853 56.2681C80.0306 56.2732 79.2095 56.272 78.389 56.272Z" fill="black"/>
<path d="M49.9885 56.4688C49.5952 56.5162 49.1968 56.3439 48.7857 56.2459C48.6415 56.2114 48.5173 56.1761 48.3719 56.2901C48.2304 56.4009 48.1074 56.3651 48.0856 56.1383C48.0446 55.7156 47.978 55.2954 47.9249 54.874C47.9158 54.8049 47.8845 54.7113 47.9985 54.6992C48.1112 54.6876 48.231 54.6608 48.288 54.8183C48.3821 55.0803 48.516 55.3249 48.7075 55.528C49.1302 55.9769 49.6196 56.26 50.2678 56.0845C51.1061 55.8578 51.4122 54.9682 50.8948 54.2675C50.6815 53.9793 50.3881 53.7833 50.0954 53.5892C49.5735 53.2427 49.015 52.9481 48.5558 52.5132C48.0587 52.0437 47.7846 51.4871 47.985 50.7961C48.1734 50.1492 48.6332 49.7489 49.2794 49.6016C49.7861 49.4863 50.294 49.5542 50.7795 49.7527C50.9421 49.8194 51.0914 49.8943 51.2803 49.7598C51.3969 49.6772 51.5659 49.6887 51.58 49.9269C51.6024 50.2978 51.6505 50.6674 51.6807 51.0382C51.6864 51.1087 51.7594 51.2227 51.614 51.2393C51.5006 51.2528 51.3956 51.2617 51.3373 51.1042C51.2336 50.8249 51.0798 50.5662 50.8659 50.3548C50.497 49.9891 50.0666 49.7906 49.5376 49.9397C48.8004 50.1466 48.5807 50.9844 49.1283 51.523C49.5401 51.9284 50.0461 52.2116 50.5245 52.5273C50.8448 52.7387 51.1688 52.9443 51.4373 53.221C52.038 53.8403 52.1981 54.6261 51.8817 55.3582C51.5724 56.0724 50.9127 56.4681 49.9885 56.4688Z" fill="black"/>
<path d="M56.8662 52.7821C56.8662 53.5167 56.8662 54.252 56.8662 54.9866C56.8662 55.7764 56.9591 55.8769 57.7482 55.9467C57.8116 55.9525 57.8763 55.9595 57.9397 55.9544C58.0877 55.941 58.0793 56.0364 58.0845 56.1382C58.0909 56.2625 58.0229 56.2734 57.9256 56.2727C56.8598 56.2708 55.7934 56.2702 54.7276 56.2734C54.6098 56.274 54.5561 56.2471 54.5573 56.1152C54.5593 55.9883 54.6054 55.9518 54.7264 55.9525C54.8641 55.9531 55.0025 55.9358 55.1395 55.9166C55.6859 55.841 55.7755 55.7385 55.7768 55.1743C55.7787 53.7255 55.7774 52.2774 55.7774 50.8287C55.7774 50.1324 55.7774 50.1324 55.0653 50.1324C54.8519 50.1324 54.6386 50.1299 54.426 50.1363C53.9995 50.1491 53.8694 50.2458 53.7266 50.6513C53.6702 50.8107 53.6197 50.9728 53.5684 51.1342C53.5325 51.2475 53.4403 51.2251 53.3577 51.2231C53.2341 51.2199 53.2718 51.1342 53.277 51.0624C53.3077 50.6276 53.3334 50.192 53.3667 49.7572C53.3846 49.5221 53.5152 49.485 53.678 49.6264C53.8137 49.7449 53.9623 49.7572 54.123 49.7572C55.5834 49.7572 57.0436 49.7584 58.5039 49.7552C58.6795 49.7545 58.8485 49.7636 58.999 49.6047C59.0964 49.5022 59.2622 49.5118 59.2809 49.7296C59.3199 50.1849 59.359 50.6404 59.4019 51.095C59.409 51.1726 59.3949 51.2226 59.3097 51.2219C59.2206 51.2213 59.1181 51.2578 59.0816 51.1175C59.0343 50.9337 58.9798 50.7499 58.9113 50.5725C58.796 50.2734 58.5763 50.1228 58.2471 50.1299C57.8744 50.1376 57.5003 50.1427 57.1282 50.1273C56.9264 50.119 56.8573 50.1677 56.8611 50.3842C56.8752 51.1841 56.8662 51.9834 56.8662 52.7821Z" fill="black"/>
<path d="M111.142 54.7504C110.941 55.218 110.745 55.663 110.561 56.1133C110.506 56.2459 110.426 56.2754 110.294 56.2747C108.823 56.2708 107.351 56.2722 105.88 56.2722C105.765 56.2722 105.639 56.3004 105.644 56.1089C105.65 55.9091 105.791 55.966 105.896 55.9628C106.558 55.9411 106.722 55.7778 106.722 55.1187C106.723 53.7231 106.724 52.3269 106.722 50.9313C106.721 50.2338 106.586 50.098 105.887 50.0685C105.833 50.066 105.78 50.055 105.727 50.0596C105.6 50.0717 105.562 50.0147 105.562 49.8924C105.562 49.7694 105.623 49.7572 105.721 49.7572C106.777 49.7591 107.832 49.7598 108.889 49.7566C108.995 49.7566 109.044 49.7867 109.044 49.8995C109.044 50.0185 109.002 50.0737 108.876 50.071C108.685 50.0678 108.492 50.066 108.301 50.0833C108.025 50.1082 107.845 50.2446 107.839 50.5469C107.837 50.6322 107.827 50.7167 107.827 50.8019C107.826 52.3045 107.825 53.8064 107.827 55.3089C107.827 55.7758 107.874 55.8347 108.348 55.8757C108.794 55.9141 109.242 55.9116 109.685 55.8296C110.211 55.7316 110.49 55.3403 110.73 54.9202C110.825 54.7536 110.924 54.6787 111.142 54.7504Z" fill="black"/>
<path d="M113.713 56.2721C113.222 56.2721 112.731 56.2709 112.241 56.2734C112.145 56.2741 112.072 56.2657 112.075 56.1428C112.078 56.0422 112.077 55.9769 112.217 55.9506C113.037 55.7976 113.104 55.722 113.116 54.8663C113.13 53.9395 113.123 53.0122 113.124 52.0854C113.125 51.7229 113.125 51.361 113.124 50.9984C113.121 50.3241 112.941 50.1287 112.272 50.0736C112.208 50.0685 112.135 50.0851 112.082 50.0595C112.001 50.0198 112.036 49.9282 112.033 49.8572C112.029 49.7373 112.121 49.7597 112.191 49.7592C113.184 49.7579 114.175 49.7592 115.167 49.7572C115.279 49.7572 115.351 49.7777 115.346 49.9129C115.341 50.041 115.276 50.0775 115.161 50.0704C115.097 50.0666 115.033 50.0691 114.969 50.0749C114.449 50.1223 114.294 50.2542 114.258 50.7807C114.184 51.8861 114.239 52.9949 114.231 54.1016C114.228 54.484 114.199 54.8676 114.254 55.2493C114.32 55.7053 114.435 55.827 114.888 55.9045C115.004 55.9244 115.119 55.9526 115.235 55.9526C115.379 55.9532 115.379 56.0371 115.381 56.1403C115.384 56.2619 115.314 56.2734 115.217 56.2728C114.715 56.2702 114.213 56.2721 113.713 56.2721Z" fill="black"/>
<path d="M37.1226 56.2722C36.6531 56.2722 36.1843 56.2735 35.7148 56.2709C35.6181 56.2703 35.4983 56.3138 35.4906 56.1338C35.4829 55.9539 35.5848 55.9577 35.711 55.952C35.8275 55.9468 35.9422 55.9096 36.0587 55.9032C36.3021 55.8904 36.411 55.7553 36.4616 55.5292C36.5359 55.1942 36.5532 54.8548 36.5557 54.5166C36.5641 53.3765 36.5589 52.2365 36.5589 51.0958C36.5589 50.2959 36.4315 50.1505 35.6399 50.073C35.5175 50.0608 35.4368 50.0506 35.44 49.8988C35.4432 49.7521 35.5329 49.7572 35.6335 49.7572C36.6147 49.7579 37.5959 49.7585 38.5765 49.7566C38.6809 49.7566 38.7564 49.7566 38.759 49.9013C38.7615 50.0557 38.6898 50.0794 38.5649 50.0698C38.5015 50.0646 38.4368 50.0685 38.3734 50.0762C37.8546 50.1345 37.6797 50.3132 37.6689 50.8345C37.6573 51.3885 37.6625 51.9426 37.6625 52.4965C37.6619 53.317 37.6605 54.1375 37.6625 54.9579C37.6644 55.6874 37.8041 55.8404 38.5329 55.9468C38.6476 55.9635 38.8378 55.886 38.8147 56.1319C38.7923 56.3779 38.606 56.2619 38.4977 56.2651C38.0404 56.2799 37.5811 56.2722 37.1226 56.2722Z" fill="black"/>
<path d="M81.0616 33.8298C81.6835 33.4365 81.8187 33.0061 81.5522 32.4111C81.4977 32.2888 81.419 32.1882 81.4997 32.0332C81.5535 31.9295 81.4408 31.8692 81.3408 31.8443C80.8502 31.7194 80.6165 31.4004 80.6075 30.899C80.6036 30.6972 80.4826 30.5243 80.4141 30.3282C81.3479 30.514 81.9532 31.1423 82.0294 32.032C82.7185 31.681 82.8127 31.0072 83.0119 30.4019C83.2725 30.9034 83.1022 31.9128 82.7268 32.2407C82.6391 32.3176 82.5654 32.3938 82.5859 32.5366C82.7263 33.5326 82.1434 33.8445 81.2806 33.8426C81.2281 33.8413 81.1769 33.8362 81.0616 33.8298Z" fill="black"/>
<path d="M67.3675 33.3787C67.3519 33.3787 67.3369 33.3787 67.3213 33.3787C67.3219 33.3685 67.3226 33.359 67.3233 33.3488C67.3362 33.361 67.3498 33.3739 67.3628 33.3862C67.3634 33.3862 67.3675 33.3787 67.3675 33.3787Z" fill="#B2882E"/>
</svg>
