<svg width="24" height="21" viewBox="0 0 24 21" fill="none" xmlns="http://www.w3.org/2000/svg">
<path fill-rule="evenodd" clip-rule="evenodd" d="M0.353623 4.80793L0 5.16963L0.349392 5.53582L5.13712 10.5537L0.353781 15.5782L0.00902288 15.9403L0.353781 16.3024L4.78976 20.962L5.47927 20.2378L1.38805 15.9403L5.82741 11.2772L11.2437 16.9538L11.5889 17.3156L11.9341 16.9538L17.3417 11.2863L21.7723 15.9403L17.6811 20.2378L18.3706 20.962L22.8065 16.3024L23.1513 15.9403L22.8065 15.5782L18.0319 10.5629L22.8284 5.53582L23.1736 5.17406L22.8284 4.81231L18.3873 0.157663L17.6969 0.881166L21.7929 5.17406L17.3424 9.83855L11.9249 4.14799L11.5802 3.78586L11.2354 4.14799L5.82667 9.82938L1.3891 5.1785L5.73607 0.732265L5.05422 0L0.353623 4.80793ZM6.51696 10.5528L11.5889 15.8686L16.6521 10.562L11.5802 5.2344L6.51696 10.5528Z" fill="black"/>
</svg>
