<svg width="39" height="146" viewBox="0 0 39 146" fill="none" xmlns="http://www.w3.org/2000/svg">
<path d="M34.4941 60.9199C34.4931 61.853 34.4941 144.594 34.4941 144.594H1.52627C1.52627 144.594 11.4776 78.0258 11.4776 60.9199C11.4776 43.814 13.0339 27.3295 13.0339 27.3295C13.0339 27.3295 12.7229 1.83739 14.278 1.21538C15.833 0.593363 20.4971 27.3297 20.4971 27.3297C20.4971 27.3297 22.9864 0.904329 25.4746 1.21537C27.9627 1.52641 27.0284 26.3964 27.0284 26.3964L36.0489 26.7187H37.292C37.292 26.7187 34.495 59.9869 34.4941 60.9199Z" fill="#F4F1EF" stroke="black"/>
<path d="M8.99071 31.6843C8.99079 33.2394 11.4787 51.9004 11.4787 51.9004L13.9811 45.1238C13.9811 45.1238 14.4823 38.7144 14.5892 35.4165C14.6497 33.5504 23.9192 28.5741 22.9863 27.6411C22.0534 26.7081 8.99064 30.1292 8.99071 31.6843Z" fill="#F4F1EF" stroke="black"/>
<path d="M37.4974 30.4893C37.4974 30.4893 35.2992 41.187 33.6474 40.527C31.9956 39.867 32.7525 29.5064 32.7525 29.5064C32.7525 29.5064 34.7697 20.5774 36.9638 21.5389C39.1578 22.5005 37.4974 30.4893 37.4974 30.4893Z" fill="#F4F1EF" stroke="black"/>
<path d="M32.5643 29.8475C32.5643 29.8475 30.6896 39.6213 29.132 39.465C27.5743 39.3087 27.2989 32.5428 27.8101 29.1166C28.3585 25.4415 29.8904 20.1249 32.0416 21.0679C34.1927 22.011 32.5643 29.8475 32.5643 29.8475Z" fill="#F4F1EF" stroke="black"/>
<path d="M18.1824 73.5228H10.6143V77.7273H18.1824H26.5915H34.5802L34.1597 73.5228H26.5915H18.1824Z" fill="black" stroke="black" stroke-width="0.840909"/>
<circle cx="22.3868" cy="76.0455" r="4.625" fill="white" stroke="black" stroke-width="0.840909"/>
<path d="M22.3866 71.4205V76.0455M22.3866 76.0455L19.0229 79.4092M22.3866 76.0455L25.7502 79.4092M22.3866 76.0455V80.6705" stroke="black" stroke-width="0.840909"/>
</svg>
