<svg width="39" height="145" viewBox="0 0 39 145" fill="none" xmlns="http://www.w3.org/2000/svg">
<path d="M2.43616 144.42L7.99454 56.1718C7.99454 56.1718 3.09649 42.3671 2.11612 33.5477C0.707085 20.872 1.30265 1.04544 3.85209 1.04545C6.40154 1.04547 9.12641 28.4493 9.12641 28.4493C9.12641 28.4493 9.44506 19.5271 12.137 19.5271C14.8289 19.5271 15.6421 27.1747 15.6421 27.1747C15.6421 27.1747 17.2354 19.5271 19.7846 19.5271C22.3337 19.5271 22.8283 28.768 22.8283 28.768C22.8283 28.768 25.0901 1.04545 28.0695 1.04545C31.0488 1.04546 30.9373 30.0426 30.9373 30.0426L31.0488 53.9413L30.9373 56.1718L32.2119 144.42H2.43616Z" fill="#F4F1EF"/>
<path d="M9.12641 28.4493C9.12641 28.4493 6.40154 1.04547 3.85209 1.04545C1.30265 1.04544 0.707085 20.872 2.11612 33.5477C3.09649 42.3671 7.99454 56.1718 7.99454 56.1718L2.43616 144.42H32.2119L30.9373 56.1718L31.0488 53.9413L30.9373 30.0426C30.9373 30.0426 31.0488 1.04546 28.0695 1.04545C25.0901 1.04545 22.8283 28.768 22.8283 28.768M9.12641 28.4493C9.12641 28.4493 9.44506 19.5271 12.137 19.5271C14.8289 19.5271 15.6421 27.1747 15.6421 27.1747M9.12641 28.4493C9.12641 28.4493 10.7197 40.9886 13.2689 40.9886C15.818 40.9886 15.6421 27.1747 15.6421 27.1747M15.6421 27.1747C15.6421 27.1747 17.2354 19.5271 19.7846 19.5271C22.3337 19.5271 22.8283 28.768 22.8283 28.768M15.6421 27.1747C15.6421 27.1747 18.1914 40.67 20.1032 40.67C22.0151 40.67 22.8283 28.768 22.8283 28.768" stroke="black"/>
<path d="M38.2641 36.7343C38.264 38.3275 30.9352 51.9205 30.9352 51.9205C30.9352 51.9205 29.9066 50.0118 29.8379 47.2497C29.7538 43.8701 31.0453 42.3436 30.9352 38.9648C30.7454 33.1391 25.837 25.5815 26.7927 24.6256C27.7485 23.6696 38.2642 35.141 38.2641 36.7343Z" fill="#F4F1EF" stroke="black" stroke-width="0.840909"/>
<path d="M31.2159 76.7273H7.25V81.7728H31.2159V76.7273Z" fill="black" stroke="black" stroke-width="0.840909"/>
<path d="M10.6135 78.8296H11.2802L10.1372 79.9726L10.6135 78.8296Z" fill="white" stroke="white" stroke-width="0.840909"/>
<path d="M27.4315 78.8296H26.7647L27.9077 79.9726L27.4315 78.8296Z" fill="white" stroke="white" stroke-width="0.840909"/>
<path d="M18.7389 78.8296L19.0796 80.0215L19.5335 78.8296H18.7389Z" fill="white" stroke="white" stroke-width="0.840909"/>
</svg>
