<svg width="27" height="23" viewBox="0 0 27 23" fill="none" xmlns="http://www.w3.org/2000/svg">
<mask id="path-1-inside-1_704_4368" fill="white">
<path fill-rule="evenodd" clip-rule="evenodd" d="M13.2954 5.13542L13.2951 5.13509L13.2947 5.13542L8.95912 0.799805L0.199219 9.55971L8.95912 18.3196L8.95945 18.3193L13.2951 22.6549L17.4249 18.525L17.4253 18.5253L26.1852 9.76543L17.4253 1.00553L13.2954 5.13542Z"/>
</mask>
<path d="M13.2951 5.13509L14.7103 3.72191L13.2951 2.30459L11.8798 3.72191L13.2951 5.13509ZM13.2954 5.13542L11.8801 6.54859L13.2943 7.96488L14.7096 6.54963L13.2954 5.13542ZM13.2947 5.13542L11.8805 6.54963L13.2958 7.96488L14.71 6.54859L13.2947 5.13542ZM8.95912 0.799805L10.3733 -0.614409L8.95912 -2.02862L7.54491 -0.614409L8.95912 0.799805ZM0.199219 9.55971L-1.21499 8.14549L-2.62921 9.55971L-1.21499 10.9739L0.199219 9.55971ZM8.95912 18.3196L7.54491 19.7338L8.95912 21.148L10.3733 19.7338L8.95912 18.3196ZM8.95945 18.3193L10.3737 16.9051L8.95945 15.4909L7.54523 16.9051L8.95945 18.3193ZM13.2951 22.6549L11.8808 24.0691L13.2951 25.4833L14.7093 24.0691L13.2951 22.6549ZM17.4249 18.525L18.8392 17.1108L17.4249 15.6966L16.0107 17.1108L17.4249 18.525ZM17.4253 18.5253L16.0111 19.9395L17.4253 21.3538L18.8395 19.9395L17.4253 18.5253ZM26.1852 9.76543L27.5994 11.1796L29.0136 9.76543L27.5994 8.35122L26.1852 9.76543ZM17.4253 1.00553L18.8395 -0.40868L17.4253 -1.82289L16.0111 -0.40868L17.4253 1.00553ZM11.8798 6.54827L11.8801 6.54859L14.7106 3.72224L14.7103 3.72191L11.8798 6.54827ZM14.71 6.54859L14.7103 6.54827L11.8798 3.72191L11.8795 3.72224L14.71 6.54859ZM14.7089 3.7212L10.3733 -0.614409L7.54491 2.21402L11.8805 6.54963L14.7089 3.7212ZM7.54491 -0.614409L-1.21499 8.14549L1.61343 10.9739L10.3733 2.21402L7.54491 -0.614409ZM-1.21499 10.9739L7.54491 19.7338L10.3733 16.9054L1.61343 8.14549L-1.21499 10.9739ZM10.3733 19.7338L10.3737 19.7335L7.54523 16.9051L7.54491 16.9054L10.3733 19.7338ZM14.7093 21.2407L10.3737 16.9051L7.54523 19.7335L11.8808 24.0691L14.7093 21.2407ZM16.0107 17.1108L11.8808 21.2407L14.7093 24.0691L18.8392 19.9392L16.0107 17.1108ZM16.0107 19.9392L16.0111 19.9395L18.8395 17.1111L18.8392 17.1108L16.0107 19.9392ZM18.8395 19.9395L27.5994 11.1796L24.771 8.35122L16.0111 17.1111L18.8395 19.9395ZM27.5994 8.35122L18.8395 -0.40868L16.0111 2.41975L24.771 11.1796L27.5994 8.35122ZM16.0111 -0.40868L11.8812 3.7212L14.7096 6.54963L18.8395 2.41975L16.0111 -0.40868Z" fill="black" mask="url(#path-1-inside-1_704_4368)"/>
</svg>
