<svg xmlns="http://www.w3.org/2000/svg" viewBox="0 0 450 121.82"><path d="M41.6,93.73H57.5v6.34H48.41v3.83H57.5v6.34H48.41v4.66H57.5v6.35H41.6Zm38.79,16.84a7.47,7.47,0,0,1,.31,2.23,7.78,7.78,0,0,1-.71,3.29,8.06,8.06,0,0,1-2,2.67,9.3,9.3,0,0,1-3,1.82,10.76,10.76,0,0,1-3.82.67H61.9V93.73h8.94a9,9,0,0,1,5.92,2.18,7,7,0,0,1,1.8,2.35,6.64,6.64,0,0,1,.65,2.89,7.25,7.25,0,0,1-.59,2.94A6.37,6.37,0,0,1,77,106.3a8.89,8.89,0,0,1,1.4,1,6.66,6.66,0,0,1,1.16,1.41A7.54,7.54,0,0,1,80.39,110.57ZM68.7,104h1.79a1.8,1.8,0,0,0,1.36-.59,2,2,0,0,0,.56-1.43,1.91,1.91,0,0,0-1.92-1.92H68.7Zm5,8.49a2.4,2.4,0,0,0-.74-1.78,2.43,2.43,0,0,0-1.78-.75H68.7v4.93h2.52a2.5,2.5,0,0,0,1.78-.7A2.26,2.26,0,0,0,73.74,112.5Zm39.68-5.6a14.77,14.77,0,0,0-2.74-1.74L108,103.8a14.76,14.76,0,0,1-2.1-1.24,1.75,1.75,0,0,1-.84-1.41,1.63,1.63,0,0,1,.47-1.15,1.53,1.53,0,0,1,1.13-.5,2.18,2.18,0,0,1,.67.1,1.31,1.31,0,0,1,.59.36,2,2,0,0,1,.44.74,3.8,3.8,0,0,1,.17,1.29h6.81a9.74,9.74,0,0,0-.69-3.79,8.23,8.23,0,0,0-1.86-2.77,7.54,7.54,0,0,0-2.75-1.7,9.87,9.87,0,0,0-3.38-.57,8.57,8.57,0,0,0-6,2.35,8,8,0,0,0-1.8,2.54,7.56,7.56,0,0,0-.65,3.1,5.68,5.68,0,0,0,.83,3.19,7.36,7.36,0,0,0,2.08,2.08,16.93,16.93,0,0,0,2.69,1.45,28.25,28.25,0,0,1,2.7,1.32,7.91,7.91,0,0,1,2.08,1.64,3.56,3.56,0,0,1,.82,2.43,2.08,2.08,0,0,1-.71,1.57,2.63,2.63,0,0,1-1.85.65,2.48,2.48,0,0,1-1.83-.9,4,4,0,0,1-.84-2.81h-7a10.53,10.53,0,0,0,.78,4.11,10.17,10.17,0,0,0,2.09,3.17,9.26,9.26,0,0,0,3,2,9,9,0,0,0,3.53.72,10,10,0,0,0,3.8-.72,9.88,9.88,0,0,0,3.1-2,9.48,9.48,0,0,0,2.08-2.93,8.34,8.34,0,0,0,.77-3.53,6.38,6.38,0,0,0-.84-3.35A9.12,9.12,0,0,0,113.42,106.9Zm5.61-6.83h4.78v21.18h6.8V100.07h4.78V93.73H119Zm32.3,12.54a2.9,2.9,0,0,1-2.91,2.87,2.65,2.65,0,0,1-2-.86,2.85,2.85,0,0,1-.82-2V93.73h-6.8v18.92a8.74,8.74,0,0,0,.74,3.57,9.47,9.47,0,0,0,2,2.91,9.8,9.8,0,0,0,3,2,9.65,9.65,0,0,0,3.73.72,10.18,10.18,0,0,0,3.82-.72,9.81,9.81,0,0,0,3.11-2,9.68,9.68,0,0,0,2.09-2.93,8.41,8.41,0,0,0,.76-3.57V93.73h-6.8Zm33-10.62a12.41,12.41,0,0,1,1.11,5.19,14.2,14.2,0,0,1-1.07,5.51,13.92,13.92,0,0,1-13,8.56h-8.67V93.73h8.67a14.11,14.11,0,0,1,5.47,1.07,14.38,14.38,0,0,1,4.47,2.91A13.79,13.79,0,0,1,184.35,102Zm-5.85,5.38a6.66,6.66,0,0,0-.61-2.82,7.67,7.67,0,0,0-7-4.48h-1.37V114.9H171a7.29,7.29,0,0,0,2.94-.59,7.49,7.49,0,0,0,2.39-1.6,7.41,7.41,0,0,0,1.59-2.39A7.64,7.64,0,0,0,178.5,107.37Zm10.78,13.88h6.8V93.73h-6.8ZM229,107.49a13.73,13.73,0,0,1-1.15,5.58,14.55,14.55,0,0,1-3.13,4.55,15.09,15.09,0,0,1-4.63,3.07,14.25,14.25,0,0,1-5.65,1.13,14.4,14.4,0,0,1-5.68-1.13,14.69,14.69,0,0,1-4.62-3.07,14.52,14.52,0,0,1-3.12-4.55,14.11,14.11,0,0,1,0-11.16,14.52,14.52,0,0,1,3.12-4.55,14.72,14.72,0,0,1,4.62-3.08,14.39,14.39,0,0,1,5.68-1.12,14.25,14.25,0,0,1,5.65,1.12,15.12,15.12,0,0,1,4.63,3.08,14.55,14.55,0,0,1,3.13,4.55A13.73,13.73,0,0,1,229,107.49Zm-6.92,0a8.17,8.17,0,0,0-2.22-5.68,7.36,7.36,0,0,0-5.42-2.31,7.13,7.13,0,0,0-3,.63,7.47,7.47,0,0,0-2.42,1.72,8.56,8.56,0,0,0-1.65,2.54,8.18,8.18,0,0,0,0,6.2,8.56,8.56,0,0,0,1.65,2.54,7.62,7.62,0,0,0,2.42,1.72,7.29,7.29,0,0,0,5.93,0,7.62,7.62,0,0,0,2.42-1.72,8.56,8.56,0,0,0,1.65-2.54A8,8,0,0,0,222.11,107.49Zm-195.19.18L21.49,93.73H17.25l-5.49,13.9-5-13.9H0l10.11,27.52H13l6.33-16.16,6.27,16.16h2.83L38.71,93.73H32Z"/><path d="M37.18,1.49H54.87V73.06H37.18V44.23H17.69V73.06H0V1.49H17.69V27.73H37.18ZM64.81,73.06h17.7V1.49H64.81ZM128.39,49.4h16.14A9.2,9.2,0,0,1,142,53.18a17.29,17.29,0,0,1-4.08,2.69,22.6,22.6,0,0,1-9.44,2.18,18.33,18.33,0,0,1-7.7-1.64,19.83,19.83,0,0,1-6.32-4.47,21.79,21.79,0,0,1-4.27-6.61,21.17,21.17,0,0,1,0-16.1,21.84,21.84,0,0,1,4.27-6.62,20.15,20.15,0,0,1,6.32-4.47,18.48,18.48,0,0,1,7.7-1.64,18.17,18.17,0,0,1,9.64,2.68,18.68,18.68,0,0,1,6.76,7.06h19.58a36.36,36.36,0,0,0-5.76-10.73,40.67,40.67,0,0,0-8.6-8.3,39.89,39.89,0,0,0-10.39-5.32A34.7,34.7,0,0,0,128.43,0a37.43,37.43,0,0,0-14.76,2.93,38.69,38.69,0,0,0-12.08,8,37.78,37.78,0,0,0-8.15,11.83,35.56,35.56,0,0,0-3,14.52,35.51,35.51,0,0,0,3,14.51,37.66,37.66,0,0,0,8.15,11.83,38.52,38.52,0,0,0,12.08,8,37.43,37.43,0,0,0,14.76,2.93,34.55,34.55,0,0,0,14.71-3.18,38,38,0,0,0,12-8.7A42.18,42.18,0,0,0,166.2,33.9H128.39Zm82.94-21.67H191.85V1.49H174.16V73.06h17.69V44.23h19.48V73.06H229V1.49h-17.7Zm87.18,15.71V1.49H282.8L256.56,43.44V1.49H238.87V73.06h17.69L280.82,33.8V73.06H300.2L347.32,1.49H324.75ZM350.3,73.06h41.35V56.56H368V44.43h23.66V27.93H368V18h23.66V1.49H350.3Zm98.9-27.78a19.72,19.72,0,0,0-2.08-4.72,17.59,17.59,0,0,0-3-3.68,21.88,21.88,0,0,0-3.62-2.69,16.47,16.47,0,0,0,4.12-5.76,18.64,18.64,0,0,0,1.54-7.65,17.13,17.13,0,0,0-1.69-7.51,18.56,18.56,0,0,0-4.67-6.11,23.64,23.64,0,0,0-7-4.13,23.3,23.3,0,0,0-8.45-1.54H401.09V73.06h24.16a27.72,27.72,0,0,0,9.94-1.74A24.43,24.43,0,0,0,443,66.6a21.59,21.59,0,0,0,5.12-7,21.06,21.06,0,0,0,1-14.36Z"/></svg>