<svg viewBox="0 0 1120 918" fill="none" preserveAspectRatio="none" xmlns="http://www.w3.org/2000/svg">
    <path d="M194.303 72.3328L122.299 38.859L114.886 118.741L42.939 85.2352L38.6658 163.286" stroke="black"/>
    <circle cx="212.5" cy="642.5" r="42.5" fill="#AAE2BF"/>
    <path d="M586.735 671.983L585.675 675.938L585.192 675.808L584.887 676.949L584.052 676.114L583.698 676.467L580.803 673.573L581.157 673.219L578.262 670.324L577.908 670.678L575.013 667.783L575.367 667.429L572.472 664.535L572.119 664.888L569.224 661.993L569.577 661.64L566.682 658.745L566.329 659.098L563.434 656.204L563.788 655.85L560.893 652.955L560.539 653.309L557.644 650.414L557.998 650.06L555.103 647.165L554.749 647.519L551.855 644.624L552.208 644.271L549.313 641.376L548.96 641.729L546.065 638.834L546.418 638.481L543.524 635.586L543.17 635.94L540.275 633.045L540.629 632.691L537.734 629.796L537.38 630.15L534.485 627.255L534.839 626.901L531.944 624.007L531.591 624.36L528.696 621.465L529.049 621.112L526.154 618.217L525.801 618.57L522.906 615.676L523.26 615.322L522.425 614.487L523.565 614.181L523.436 613.698L527.39 612.639L527.52 613.122L531.474 612.062L531.345 611.579L535.299 610.52L535.429 611.003L539.383 609.943L539.254 609.46L543.208 608.4L543.337 608.883L547.292 607.824L547.163 607.341L551.117 606.281L551.246 606.764L555.201 605.705L555.071 605.222L559.026 604.162L559.155 604.645L563.11 603.585L562.98 603.102L566.935 602.043L567.064 602.526L571.019 601.466L570.889 600.983L574.844 599.924L574.973 600.407L578.927 599.347L578.798 598.864L582.752 597.805L582.882 598.287L586.836 597.228L586.707 596.745L590.661 595.685L590.791 596.168L594.745 595.109L594.616 594.626L598.57 593.566L598.7 594.049L602.654 592.99L602.525 592.507L606.479 591.447L606.609 591.93L607.749 591.624L607.444 592.765L607.927 592.894L606.867 596.849L606.384 596.719L605.324 600.674L605.807 600.803L604.748 604.758L604.265 604.628L603.205 608.583L603.688 608.712L602.629 612.667L602.146 612.537L601.086 616.492L601.569 616.621L600.509 620.575L600.026 620.446L598.967 624.401L599.45 624.53L598.39 628.484L597.907 628.355L596.848 632.309L597.331 632.439L596.271 636.393L595.788 636.264L594.729 640.218L595.211 640.348L594.152 644.302L593.669 644.173L592.609 648.127L593.092 648.257L592.033 652.211L591.55 652.082L590.49 656.036L590.973 656.165L589.914 660.12L589.431 659.99L588.371 663.945L588.854 664.074L587.794 668.029L587.311 667.899L586.252 671.854L586.735 671.983Z" stroke="black" stroke-dasharray="4 4"/>
    <path d="M1071.75 267.624L1048.89 352.949L986.425 290.487L1071.75 267.624Z" stroke="black"/>
    <circle cx="84.5" cy="386.5" r="52" stroke="black" stroke-dasharray="8 8"/>
    <circle cx="999" cy="90" r="57.5" stroke="black" stroke-dasharray="2 2"/>
    <rect x="376.281" y="17.683" width="61.1951" height="61.1951" transform="rotate(30 376.281 17.683)" stroke="#AAE2BF"/>
    <path d="M977.535 635.535L965.834 541.384H989.235L977.535 635.535Z" fill="#AAE2BF"/>
    <path d="M977.534 635.535L989.235 729.687H965.834L977.534 635.535Z" fill="#AAE2BF"/>
    <path d="M977.535 635.538L1071.69 623.837V647.238L977.535 635.538Z" fill="#AAE2BF"/>
    <path d="M977.535 635.534L883.384 647.234V623.833L977.535 635.534Z" fill="#AAE2BF"/>
    <path d="M977.439 635.438L1052.32 693.703L1035.7 710.324L977.439 635.438Z" fill="#AAE2BF"/>
    <path d="M977.508 635.436L919.244 710.322L902.622 693.701L977.508 635.436Z" fill="#AAE2BF"/>
    <path d="M977.443 635.506L1035.71 560.62L1052.33 577.242L977.443 635.506Z" fill="#AAE2BF"/>
    <path d="M977.506 635.507L902.62 577.242L919.242 560.621L977.506 635.507Z" fill="#AAE2BF"/>
    <circle cx="662.5" cy="51.5" r="21.5" fill="#AAE2BF"/>
</svg>
