<svg width="80" height="80" viewBox="0 0 80 80" fill="none" xmlns="http://www.w3.org/2000/svg">
<path d="M15.0601 65V34.0759L40.3301 15.0369L65.254 34.1813V65H15.0601Z" fill="#F4F1EF"/>
<path d="M15.0601 34.0759V65M15.0601 34.0759L35.83 47.3456L15.0601 65M15.0601 34.0759L40.3301 15.0369L65.254 34.1813M15.0601 34.0759L40.3301 50.2303L65.254 34.1813M15.0601 65H65.254V34.1813" stroke="black"/>
<path d="M65.2539 64.7482V34.1814L44.4841 47.5765L65.2539 64.7482Z" fill="#F4F1EF"/>
<path d="M65.2539 34.1814L64.9829 33.7612C65.1367 33.662 65.3325 33.6548 65.4932 33.7424C65.6539 33.83 65.7539 33.9984 65.7539 34.1814H65.2539ZM65.2539 64.7482H65.7539V65.8103L64.9353 65.1336L65.2539 64.7482ZM44.4841 47.5765L44.1655 47.9618L43.639 47.5265L44.2131 47.1563L44.4841 47.5765ZM65.7539 34.1814V64.7482H64.7539V34.1814H65.7539ZM64.9353 65.1336L44.1655 47.9618L44.8027 47.1911L65.5725 64.3628L64.9353 65.1336ZM44.2131 47.1563L64.9829 33.7612L65.5249 34.6016L44.7551 47.9967L44.2131 47.1563Z" fill="black"/>
<path d="M40.4421 15.0369L15.4758 33.7615L40.4421 49.5735L64.5761 34.1776L40.4421 15.0369Z" fill="black" stroke="black"/>
<path d="M20.9573 22.3615H59.8965V37.205L40.4261 49.8706L20.9573 37.2815V22.3615Z" fill="white" stroke="black"/>
<rect x="30.0398" y="29.1844" width="19.973" height="0.832208" fill="#AAE2BF"/>
<rect x="30.0398" y="33.3455" width="19.973" height="0.832208" fill="#AAE2BF"/>
<rect x="30.0398" y="37.5065" width="12.4831" height="0.832208" fill="#AAE2BF"/>
</svg>
