<svg width="60" height="60" viewBox="0 0 60 60" fill="none" xmlns="http://www.w3.org/2000/svg">
<rect x="17.5541" y="38.6719" width="17.5561" height="17.5561" transform="rotate(-45 17.5541 38.6719)" stroke="black" stroke-width="2"/>
<rect x="12.6642" y="25.9377" width="24.0748" height="24.0748" transform="rotate(-45 12.6642 25.9377)" stroke="black" stroke-width="2"/>
<mask id="path-3-inside-1_704_10663" fill="white">
<path fill-rule="evenodd" clip-rule="evenodd" d="M39.5318 34.6258L29.6258 44.5318L20 34.906L29.906 25L39.5318 34.6258Z"/>
</mask>
<path fill-rule="evenodd" clip-rule="evenodd" d="M39.5318 34.6258L29.6258 44.5318L20 34.906L29.906 25L39.5318 34.6258Z" fill="black"/>
<path d="M39.5318 34.6258L40.946 36.04L42.3603 34.6258L40.946 33.2116L39.5318 34.6258ZM29.6258 44.5318L28.2116 45.946L29.6258 47.3603L31.04 45.946L29.6258 44.5318ZM20 34.906L18.5858 33.4918L17.1716 34.906L18.5858 36.3202L20 34.906ZM29.906 25L31.3202 23.5858L29.906 22.1716L28.4918 23.5858L29.906 25ZM38.1176 33.2116L28.2116 43.1176L31.04 45.946L40.946 36.04L38.1176 33.2116ZM31.04 43.1176L21.4142 33.4918L18.5858 36.3202L28.2116 45.946L31.04 43.1176ZM21.4142 36.3202L31.3202 26.4142L28.4918 23.5858L18.5858 33.4918L21.4142 36.3202ZM28.4918 26.4142L38.1176 36.04L40.946 33.2116L31.3202 23.5858L28.4918 26.4142Z" fill="black" mask="url(#path-3-inside-1_704_10663)"/>
</svg>
